{
.appVersion = "1060";
copyright = "Copyright 2017 Google Inc. All Rights Reserved.";
customParameters = (
{
name = licenseURL;
value = "http://scripts.sil.org/OFL";
},
{
name = description;
value = "Designed by Monotype design team.";
},
{
name = panose;
value = (
"2",
"11",
"5",
"2",
"4",
"5",
"4",
"2",
"2",
"4"
);
},
{
name = openTypeOS2Type;
value = (
);
},
{
name = trademark;
value = "Noto is a trademark of Google Inc.";
},
{
name = versionString;
value = "Version 2.000";
},
{
name = "Has WWS Names";
value = 1;
},
{
name = "Don't use Production Names";
value = 1;
},
{
name = license;
value = "This Font Software is licensed under the SIL Open Font License, Version 1.1. This Font Software is distributed on an \"AS IS\" BASIS, WITHOUT WARRANTIES OR CONDITIONS OF ANY KIND, either express or implied. See the SIL Open Font License for the specific language, permissions and limitations governing your use of this Font Software.";
},
{
name = glyphOrder;
value = (
.notdef,
NULL,
CR,
space,
uni00A0,
uni25CC,
mark_marc,
shad_marc,
ka_marc,
kha_marc,
ga_marc,
nga_marc,
ca_marc,
cha_marc,
ja_marc,
nya_marc,
ta_marc,
tha_marc,
da_marc,
na_marc,
pa_marc,
pha_marc,
ba_marc,
ma_marc,
tsa_marc,
tsha_marc,
dza_marc,
wa_marc,
zha_marc,
za_marc,
aa_marc,
ya_marc,
ra_marc,
la_marc,
sha_marc,
sa_marc,
ha_marc,
a_marc,
i_marc,
u_marc,
e_marc,
o_marc,
anusvara_marc,
candrabindu_marc,
candrabindu_marc.narrow,
ka_marc.sub,
kha_marc.sub,
ga_marc.sub,
nga_marc.sub,
ca_marc.sub,
cha_marc.sub,
ja_marc.sub,
nya_marc.sub,
ta_marc.sub,
tha_marc.sub,
da_marc.sub,
na_marc.sub,
pa_marc.sub,
pha_marc.sub,
ba_marc.sub,
ma_marc.sub,
tsa_marc.sub,
tsha_marc.sub,
dza_marc.sub,
wa_marc.sub,
zha_marc.sub,
za_marc.sub,
aa_marc.sub,
ra_marc.sub,
la_marc.sub,
sha_marc.sub,
sa_marc.sub,
ha_marc.sub,
a_marc.sub,
ya_marc.sub,
a_aa_marc.sub,
a_aa_o_marc,
a_e_marc,
a_i_marc,
a_o_marc,
a_ra.sub,
a_u_marc,
aa_i_marc,
aa_o_marc,
aa_u_marc,
ba_aa_marc.sub,
ba_e_marc,
ba_i_marc,
ba_la.sub,
ba_la.sub_e_marc,

glyphs = (
{
glyphname = .notdef;
lastChange = "2017-09-25 23:19:54 +0000";
layers = (
{
layerId = "76B3AF2C-89AC-4CB1-B1C9-F754B2D43151";
paths = (
{
closed = 1;
nodes = (
"505 0 LINE",
"505 714 LINE",
"94 714 LINE",
"94 0 LINE"
);
},
{
closed = 1;
nodes = (
"454 663 LINE",
"454 51 LINE",
"145 51 LINE",
"145 663 LINE"
);
}
);
width = 600;
}
);
},
{
glyphname = uni25CC;
lastChange = "2017-12-05 21:46:11 +0000";
layers = (
{
anchors = (
{
name = bottom;
position = "{318, 40}";
},
{
name = e_marc;
position = "{461, 556}";
},
{
name = o_marc;
position = "{400, 540}";
},
{
name = top;
position = "{316, 611}";
},
{
name = wa_ra;
position = "{513, 78}";
}
);
layerId = "76B3AF2C-89AC-4CB1-B1C9-F754B2D43151";
paths = (
{
closed = 1;
nodes = (
"232 438 OFFCURVE",
"243 449 OFFCURVE",
"243 462 CURVE SMOOTH",
"243 475 OFFCURVE",
"232 486 OFFCURVE",
"219 486 CURVE SMOOTH",
"206 486 OFFCURVE",
"195 475 OFFCURVE",
"195 462 CURVE SMOOTH",
"195 449 OFFCURVE",
"206 438 OFFCURVE",
"219 438 CURVE SMOOTH"
);
},
{
closed = 1;
nodes = (
"329 462 OFFCURVE",
"340 473 OFFCURVE",
"340 486 CURVE SMOOTH",
"340 499 OFFCURVE",
"329 510 OFFCURVE",
"316 510 CURVE SMOOTH",
"303 510 OFFCURVE",
"292 499 OFFCURVE",
"292 486 CURVE SMOOTH",
"292 473 OFFCURVE",
"303 462 OFFCURVE",
"316 462 CURVE SMOOTH"
);
},
{
closed = 1;
nodes = (
"426 438 OFFCURVE",
"437 449 OFFCURVE",
"437 462 CURVE SMOOTH",
"437 475 OFFCURVE",
"426 486 OFFCURVE",
"413 486 CURVE SMOOTH",
"400 486 OFFCURVE",
"389 475 OFFCURVE",
"389 462 CURVE SMOOTH",
"389 449 OFFCURVE",
"400 438 OFFCURVE",
"413 438 CURVE SMOOTH"
);
},
{
closed = 1;
nodes = (
"496 366 OFFCURVE",
"507 377 OFFCURVE",
"507 390 CURVE SMOOTH",
"507 403 OFFCURVE",
"496 414 OFFCURVE",
"483 414 CURVE SMOOTH",
"470 414 OFFCURVE",
"459 403 OFFCURVE",
"459 390 CURVE SMOOTH",
"459 377 OFFCURVE",
"470 366 OFFCURVE",
"483 366 CURVE SMOOTH"
);
},
{
closed = 1;
nodes = (
"526 267 OFFCURVE",
"537 278 OFFCURVE",
"537 291 CURVE SMOOTH",
"537 304 OFFCURVE",
"526 315 OFFCURVE",
"513 315 CURVE SMOOTH",
"500 315 OFFCURVE",
"489 304 OFFCURVE",
"489 291 CURVE SMOOTH",
"489 278 OFFCURVE",
"500 267 OFFCURVE",
"513 267 CURVE SMOOTH"
);
},
{
closed = 1;
nodes = (
"498 173 OFFCURVE",
"509 184 OFFCURVE",
"509 197 CURVE SMOOTH",
"509 210 OFFCURVE",
"498 221 OFFCURVE",
"485 221 CURVE SMOOTH",
"472 221 OFFCURVE",
"461 210 OFFCURVE",
"461 197 CURVE SMOOTH",
"461 184 OFFCURVE",
"472 173 OFFCURVE",
"485 173 CURVE SMOOTH"
);
},
{
closed = 1;
nodes = (
"427 101 OFFCURVE",
"438 112 OFFCURVE",
"438 125 CURVE SMOOTH",
"438 138 OFFCURVE",
"427 149 OFFCURVE",
"414 149 CURVE SMOOTH",
"401 149 OFFCURVE",
"390 138 OFFCURVE",
"390 125 CURVE SMOOTH",
"390 112 OFFCURVE",
"401 101 OFFCURVE",
"414 101 CURVE SMOOTH"
);
},
{
closed = 1;
nodes = (
"329 73 OFFCURVE",
"340 84 OFFCURVE",
"340 97 CURVE SMOOTH",
"340 110 OFFCURVE",
"329 121 OFFCURVE",
"316 121 CURVE SMOOTH",
"303 121 OFFCURVE",
"292 110 OFFCURVE",
"292 97 CURVE SMOOTH",
"292 84 OFFCURVE",
"303 73 OFFCURVE",
"316 73 CURVE SMOOTH"
);
},
{
closed = 1;
nodes = (
"232 100 OFFCURVE",
"243 111 OFFCURVE",
"243 124 CURVE SMOOTH",
"243 137 OFFCURVE",
"232 148 OFFCURVE",
"219 148 CURVE SMOOTH",
"206 148 OFFCURVE",
"195 137 OFFCURVE",
"195 124 CURVE SMOOTH",
"195 111 OFFCURVE",
"206 100 OFFCURVE",
"219 100 CURVE SMOOTH"
);
},
{
closed = 1;
nodes = (
"159 172 OFFCURVE",
"170 183 OFFCURVE",
"170 196 CURVE SMOOTH",
"170 209 OFFCURVE",
"159 220 OFFCURVE",
"146 220 CURVE SMOOTH",
"133 220 OFFCURVE",
"122 209 OFFCURVE",
"122 196 CURVE SMOOTH",
"122 183 OFFCURVE",
"133 172 OFFCURVE",
"146 172 CURVE SMOOTH"
);
},
{
closed = 1;
nodes = (
"135 267 OFFCURVE",
"146 278 OFFCURVE",
"146 291 CURVE SMOOTH",
"146 304 OFFCURVE",
"135 315 OFFCURVE",
"122 315 CURVE SMOOTH",
"109 315 OFFCURVE",
"98 304 OFFCURVE",
"98 291 CURVE SMOOTH",
"98 278 OFFCURVE",
"109 267 OFFCURVE",
"122 267 CURVE SMOOTH"
);
},
{
closed = 1;
nodes = (
"161 368 OFFCURVE",
"172 379 OFFCURVE",
"172 392 CURVE SMOOTH",
"172 405 OFFCURVE",
"161 416 OFFCURVE",
"148 416 CURVE SMOOTH",
"135 416 OFFCURVE",
"124 405 OFFCURVE",
"124 392 CURVE SMOOTH",
"124 379 OFFCURVE",
"135 368 OFFCURVE",
"148 368 CURVE SMOOTH"
);
}
);
width = 635;
}
);
unicode = 25CC;
category = Letter;
},
{
glyphname = mark_marc;
lastChange = "2017-12-13 20:01:40 +0000";
layers = (
{
background = {
paths = (
{
closed = 1;
nodes = (
"641 141 LINE",
"640 375 LINE",
"484 375 LINE",
"484 671 LINE",
"226 671 LINE",
"226 585 LINE",
"388 585 LINE",
"388 289 LINE",
"544 289 LINE",
"544 227 LINE",
"156 227 LINE",
"156 678 LINE",
"129 703 OFFCURVE",
"98 717 OFFCURVE",
"60 719 CURVE",
"60 141 LINE"
);
}
);
};
layerId = "76B3AF2C-89AC-4CB1-B1C9-F754B2D43151";
paths = (
{
closed = 1;
nodes = (
"654 124 LINE",
"654 366 LINE",
"488 366 LINE",
"488 678 LINE",
"226 678 LINE",
"226 592 LINE",
"392 592 LINE",
"392 280 LINE",
"558 280 LINE",
"558 210 LINE",
"156 210 LINE",
"156 678 LINE",
"60 708 LINE",
"60 124 LINE"
);
},
{
closed = 1;
nodes = (
"322 280 LINE",
"322 436 LINE",
"654 436 LINE",
"654 678 LINE",
"558 678 LINE",
"558 522 LINE",
"226 522 LINE",
"226 280 LINE"
);
}
);
width = 715;
}
);
unicode = 11C70;
script = marc;
category = Letter;
},
{
glyphname = shad_marc;
lastChange = "2017-12-11 22:27:52 +0000";
layers = (
{
background = {
paths = (
{
closed = 1;
nodes = (
"79 678 LINE",
"79 434 LINE",
"372 434 LINE",
"372 678 LINE"
);
},
{
closed = 1;
nodes = (
"323 531 LINE",
"128 531 LINE",
"128 580 LINE",
"323 580 LINE"
);
},
{
closed = 1;
nodes = (
"79 385 LINE",
"79 141 LINE",
"372 141 LINE",
"372 385 LINE"
);
},
{
closed = 1;
nodes = (
"323 238 LINE",
"128 238 LINE",
"128 287 LINE",
"323 287 LINE"
);
}
);
};
components = (
{
locked = 1;
name = _part_box;
transform = "{1, 0, 0, 1, 30, 206}";
},
{
locked = 1;
name = _part_box;
transform = "{1, 0, 0, 1, 30, -96}";
}
);
guideLines = (
{
position = "{-19, 378}";
}
);
layerId = "76B3AF2C-89AC-4CB1-B1C9-F754B2D43151";
width = 430;
}
);
unicode = 11C71;
script = marc;
category = Letter;
},
{
glyphname = nga_marc;
lastChange = "2017-12-11 22:27:57 +0000";
layers = (
{
background = {
paths = (
{
closed = 1;
nodes = (
"74 592 LINE",
"92 678 LINE",
"468 678 LINE",
"450 592 LINE"
);
},
{
closed = 1;
nodes = (
"450 532 LINE",
"432 446 LINE",
"177 446 LINE",
"177 284 LINE",
"295 284 LINE SMOOTH",
"416 284 OFFCURVE",
"480 197 OFFCURVE",
"516 151 CURVE",
"491 132 LINE",
"458 162 OFFCURVE",
"408 198 OFFCURVE",
"288 198 CURVE SMOOTH",
"80 198 LINE",
"80 532 LINE"
);
},
{
closed = 1;
nodes = (
"314 621 LINE",
"314 513 LINE",
"218 513 LINE",
"218 621 LINE"
);
}
);
};
components = (
{
locked = 1;
name = _part_nga;
transform = "{1, 0, 0, 1, -20, 0}";
}
);
guideLines = (
{
angle = 180;
position = "{275, 532}";
}
);
layerId = "76B3AF2C-89AC-4CB1-B1C9-F754B2D43151";
width = 516;
}
);
unicode = 11C75;
script = marc;
category = Letter;
},
{
glyphname = ca_marc;
lastChange = "2017-12-12 07:55:26 +0000";
layers = (
{
background = {
paths = (
{
closed = 1;
nodes = (
"505 592 LINE",
"505 110 LINE",
"537 84 OFFCURVE",
"568 70 OFFCURVE",
"601 69 CURVE",
"601 678 LINE",
"62 678 LINE",
"44 592 LINE"
);
},
{
closed = 1;
nodes = (
"96 122 OFFCURVE",
"127 105 OFFCURVE",
"159 101 CURVE",
"159 436 LINE",
"349 436 LINE",
"349 366 LINE",
"219 366 LINE",
"219 144 LINE",
"330 144 OFFCURVE",
"397 127 OFFCURVE",
"446 83 CURVE",
"492 91 LINE",
"458 158 OFFCURVE",
"383 209 OFFCURVE",
"315 220 CURVE",
"315 280 LINE",
"445 280 LINE",
"445 522 LINE",
"315 522 LINE",
"315 631 LINE",
"219 631 LINE",
"219 522 LINE",
"63 522 LINE",
"63 149 LINE"
);
}
);
};
components = (
{
locked = 1;
name = _part_ca;
piece = {
FootNarrow = 100;
FootShape = 100;
RightLegHeight = 110;
};
transform = "{1, 0, 0, 1, -16, 0}";
}
);
layerId = "76B3AF2C-89AC-4CB1-B1C9-F754B2D43151";
width = 671;
}
);
unicode = 11C76;
script = marc;
category = Letter;
},
{
glyphname = da_marc;
lastChange = "2017-12-11 22:27:58 +0000";
layers = (
{
background = {
paths = (
{
closed = 1;
nodes = (
"395 592 LINE",
"395 120 LINE",
"428 94 OFFCURVE",
"459 80 OFFCURVE",
"491 79 CURVE",
"491 678 LINE",
"82 678 LINE",
"82 592 LINE"
);
},
{
closed = 1;
nodes = (
"202 151 OFFCURVE",
"272 146 OFFCURVE",
"322 108 CURVE",
"368 116 LINE",
"290 209 OFFCURVE",
"228 235 OFFCURVE",
"156 235 CURVE",
"156 305 LINE",
"325 305 LINE",
"325 532 LINE",
"156 532 LINE",
"156 678 LINE",
"60 678 LINE",
"60 450 LINE",
"229 450 LINE",
"229 390 LINE",
"60 390 LINE",
"60 151 LINE"
);
}
);
};
components = (
{
locked = 1;
name = _part_da;
piece = {
FootShape = 1;
};
}
);
layerId = "76B3AF2C-89AC-4CB1-B1C9-F754B2D43151";
width = 551;
}
);
unicode = 11C7C;
script = marc;
category = Letter;
},
{
glyphname = pha_marc;
lastChange = "2017-12-11 22:27:59 +0000";
layers = (
{
background = {
paths = (
{
closed = 1;
nodes = (
"405 592 LINE",
"405 172 LINE",
"437 146 OFFCURVE",
"468 132 OFFCURVE",
"501 131 CURVE",
"501 678 LINE",
"60 678 LINE",
"60 592 LINE"
);
},
{
closed = 1;
nodes = (
"363 164 LINE",
"363 248 LINE",
"62 248 LINE",
"62 164 LINE"
);
},
{
closed = 1;
nodes = (
"256 234 LINE",
"256 324 LINE",
"160 324 LINE",
"160 234 LINE"
);
},
{
closed = 1;
nodes = (
"363 296 LINE",
"365 533 LINE",
"60 534 LINE",
"60 297 LINE"
);
},
{
closed = 1;
nodes = (
"150 440 LINE",
"278 440 LINE",
"278 397 LINE",
"150 397 LINE"
);
},
{
closed = 1;
nodes = (
"156 498 LINE",
"156 604 LINE",
"60 604 LINE",
"60 498 LINE"
);
}
);
};
components = (
{
locked = 1;
name = _part_pha;
piece = {
FootShape = 1;
RightLegHeight = 60;
};
}
);
layerId = "76B3AF2C-89AC-4CB1-B1C9-F754B2D43151";
width = 646;
}
);
unicode = 11C7F;
script = marc;
category = Letter;
},
{
glyphname = wa_marc;
lastChange = "2017-12-11 22:28:00 +0000";
layers = (
{
background = {
paths = (
{
closed = 1;
nodes = (
"328 334 LINE",
"108 334 LINE",
"108 295 LINE",
"328 295 LINE",
"328 207 LINE",
"61 207 LINE",
"61 422 LINE",
"328 422 LINE"
);
}
);
};
components = (
{
locked = 1;
name = _part_wa;
piece = {
FootShape = 1;
RightLegHeight = 60;
};
transform = "{1, 0, 0, 1, -8, 0}";
}
);
layerId = "76B3AF2C-89AC-4CB1-B1C9-F754B2D43151";
width = 584;
}
);
unicode = 11C85;
script = marc;
category = Letter;
},
{
glyphname = zha_marc;
lastChange = "2017-12-11 22:28:01 +0000";
layers = (
{
background = {
paths = (
{
closed = 1;
nodes = (
"219 275 LINE",
"219 154 LINE",
"352 154 OFFCURVE",
"402 159 OFFCURVE",
"468 113 CURVE",
"514 121 LINE",
"454 204 OFFCURVE",
"389 238 OFFCURVE",
"306 240 CURVE",
"306 275 LINE"
);
}
);
};
components = (
{
locked = 1;
name = _part_zha;
piece = {
FootShape = 100;
};
}
);
layerId = "76B3AF2C-89AC-4CB1-B1C9-F754B2D43151";
width = 505;
}
);
unicode = 11C86;
script = marc;
category = Letter;
},
{
glyphname = ra_marc;
lastChange = "2017-12-11 22:28:01 +0000";
layers = (
{
background = {
paths = (
{
closed = 1;
nodes = (
"72 678 LINE",
"418 678 LINE",
"418 450 LINE",
"289 450 LINE",
"289 387 LINE",
"331 387 LINE SMOOTH",
"422 387 OFFCURVE",
"454 295 OFFCURVE",
"457 219 CURVE",
"422 251 OFFCURVE",
"376 301 OFFCURVE",
"346 301 CURVE SMOOTH",
"202 301 LINE",
"202 531 LINE",
"331 531 LINE",
"331 591 LINE",
"156 591 LINE",
"156 100 LINE",
"126 106 OFFCURVE",
"98 121 OFFCURVE",
"71 141 CURVE"
);
}
);
};
components = (
{
locked = 1;
name = _part_ra;
piece = {
FootSlant = 100;
};
}
);
layerId = "76B3AF2C-89AC-4CB1-B1C9-F754B2D43151";
width = 502;
}
);
unicode = 11C8A;
script = marc;
category = Letter;
},
{
glyphname = anusvara_marc;
lastChange = "2017-12-07 01:17:05 +0000";
layers = (
{
anchors = (
{
name = _top;
position = "{-136, 497}";
}
);
background = {
paths = (
{
closed = 1;
nodes = (
"-263 594 LINE",
"-117 524 LINE",
"-6 663 LINE",
"-152 733 LINE"
);
},
{
closed = 1;
nodes = (
"-80 655 LINE",
"-142 577 LINE",
"-192 601 LINE",
"-129 679 LINE"
);
}
);
};
guideLines = (
{
angle = 231.4912;
position = "{145, 527}";
},
{
angle = 154.359;
position = "{-82, 713}";
},
{
angle = 229.2507;
position = "{-247, 716}";
}
);
layerId = "76B3AF2C-89AC-4CB1-B1C9-F754B2D43151";
paths = (
{
closed = 1;
nodes = (
"-291 593 LINE",
"-116 505 LINE",
"21 664 LINE",
"-154 752 LINE"
);
},
{
closed = 1;
nodes = (
"-77 653 LINE",
"-142 577 LINE",
"-195 603 LINE",
"-129 679 LINE"
);
}
);
width = 0;
}
);
unicode = 11CB5;
script = marc;
category = Mark;
},
{
glyphname = candrabindu_marc;
lastChange = "2017-12-08 21:46:18 +0000";
layers = (
{
anchors = (
{
name = _top;
position = "{-87, 482}";
}
);
background = {
anchors = (
{
name = _top;
position = "{-87, 482}";
}
);
components = (
{
name = anusvara_marc;
transform = "{1, 0, 0, 1, 22, 115}";
}
);
paths = (
{
closed = 1;
nodes = (
"83 705 OFFCURVE",
"18 565 OFFCURVE",
"-117 565 CURVE SMOOTH",
"-207 565 OFFCURVE",
"-285 625 OFFCURVE",
"-312 653 CURVE",
"-360 637 LINE",
"-331 591 OFFCURVE",
"-240 492 OFFCURVE",
"-95 492 CURVE SMOOTH",
"88 492 OFFCURVE",
"169 663 OFFCURVE",
"190 715 CURVE",
"99 746 LINE"
);
}
);
};
components = (
{
locked = 1;
name = anusvara_marc;
transform = "{1, 0, 0, 1, 22, 115}";
}
);
layerId = "76B3AF2C-89AC-4CB1-B1C9-F754B2D43151";
paths = (
{
closed = 1;
nodes = (
"83 705 OFFCURVE",
"18 565 OFFCURVE",
"-117 565 CURVE SMOOTH",
"-207 565 OFFCURVE",
"-285 625 OFFCURVE",
"-312 653 CURVE",
"-360 637 LINE",
"-331 591 OFFCURVE",
"-240 492 OFFCURVE",
"-95 492 CURVE SMOOTH",
"88 492 OFFCURVE",
"169 663 OFFCURVE",
"190 715 CURVE",
"99 746 LINE"
);
}
);
width = 0;
}
);
unicode = 11CB6;
script = marc;
category = Mark;
},
{
glyphname = candrabindu_marc.narrow;
lastChange = "2017-12-08 21:46:18 +0000";
layers = (
{
anchors = (
{
name = _candra;
position = "{-87, 482}";
}
);
background = {
anchors = (
{
name = _top;
position = "{-87, 482}";
}
);
components = (
{
name = anusvara_marc;
transform = "{1, 0, 0, 1, 22, 115}";
}
);
paths = (
{
closed = 1;
nodes = (
"83 705 OFFCURVE",
"18 565 OFFCURVE",
"-117 565 CURVE SMOOTH",
"-207 565 OFFCURVE",
"-285 625 OFFCURVE",
"-312 653 CURVE",
"-360 637 LINE",
"-331 591 OFFCURVE",
"-240 492 OFFCURVE",
"-95 492 CURVE SMOOTH",
"88 492 OFFCURVE",
"169 663 OFFCURVE",
"190 715 CURVE",
"99 746 LINE"
);
}
);
};
components = (
{
locked = 1;
name = anusvara_marc;
transform = "{1, 0, 0, 1, 22, 115}";
}
);
layerId = "76B3AF2C-89AC-4CB1-B1C9-F754B2D43151";
paths = (
{
closed = 1;
nodes = (
"55 694 OFFCURVE",
"8 565 OFFCURVE",
"-117 565 CURVE SMOOTH",
"-183 565 OFFCURVE",
"-241 598 OFFCURVE",
"-272 626 CURVE",
"-320 610 LINE",
"-291 564 OFFCURVE",
"-207 492 OFFCURVE",
"-102 492 CURVE SMOOTH",
"71 492 OFFCURVE",
"140 653 OFFCURVE",
"160 705 CURVE",
"69 736 LINE"
);
}
);
width = 0;
}
);
script = marc;
category = Mark;
},
{
glyphname = kha_ya.sub;
lastChange = "2017-12-12 02:21:18 +0000";
layers = (
{
anchors = (
{
name = connect;
position = "{481, 678}";
}
);
components = (
{
locked = 1;
name = _part_kha;
piece = {
FootShape = 1;
};
transform = "{1, 0, 0, 1, -8, 0}";
}
);
guideLines = (
{
angle = 148.4258;
position = "{78, 1028}";
}
);
layerId = "76B3AF2C-89AC-4CB1-B1C9-F754B2D43151";
paths = (
{
closed = 1;
nodes = (
"551 151 LINE",
"523 151 LINE",
"504 177 LINE",
"464 152 LINE",
"486 126 OFFCURVE",
"498 103 OFFCURVE",
"512 77 CURVE",
"647 77 LINE",
"647 678 LINE",
"551 678 LINE"
);
}
);
width = 707;
}
);
leftMetricsKey = kha_marc;
rightMetricsKey = ya_marc.sub;
script = marc;
category = Letter;
},
{
glyphname = kha_ya.sub_e_marc;
lastChange = "2017-12-11 22:24:40 +0000";
layers = (
{
components = (
{
locked = 1;
name = kha_ya.sub;
transform = "{1, 0, 0, 1, 0, -146}";
},
{
locked = 1;
name = _part_evwl;
piece = {
Slant = 0;
Width = 59;
};
transform = "{1, 0, 0, 1, -9, -126}";
}
);
layerId = "76B3AF2C-89AC-4CB1-B1C9-F754B2D43151";
paths = (
{
closed = 1;
nodes = (
"551 471 LINE",
"647 471 LINE",
"647 678 LINE",
"551 678 LINE"
);
}
);
width = 707;
}
);
leftMetricsKey = kha_marc;
rightMetricsKey = ya_marc.sub;
script = marc;
category = Letter;
},
{
glyphname = kha_ya.sub_i_marc;
lastChange = "2017-12-11 22:24:41 +0000";
layers = (
{
anchors = (
{
name = candra;
position = "{612, 718}";
},
{
name = top;
position = "{502, 718}";
}
);
components = (
{
locked = 1;
name = _part_kha;
piece = {
FootShape = 1;
LeftLegHeight = 14;
};
transform = "{1, 0, 0, 1, 158, 0}";
},
{
locked = 1;
name = _part_longi;
piece = {
HeadStretch = 222.93784;
};
transform = "{1, 0, 0, 1, 274, 0}";
}
);
layerId = "76B3AF2C-89AC-4CB1-B1C9-F754B2D43151";
paths = (
{
closed = 1;
nodes = (
"717 151 LINE",
"689 151 LINE",
"670 177 LINE",
"630 152 LINE",
"652 126 OFFCURVE",
"664 103 OFFCURVE",
"678 77 CURVE",
"813 77 LINE",
"813 678 LINE",
"717 678 LINE"
);
}
);
width = 873;
}
);
leftMetricsKey = i_marc;
rightMetricsKey = ya_marc.sub;
script = marc;
category = Letter;
},
{
glyphname = kha_ya.sub_u_marc;
lastChange = "2017-12-12 04:01:11 +0000";
layers = (
{
anchors = (
{
name = connect;
position = "{481, 678}";
}
);
components = (
{
locked = 1;
name = _part_uvwl;
piece = {
Connection = 157.8125;
Width = 491;
};
transform = "{1, 0, 0, 1, 157, -8}";
},
{
locked = 1;
name = _part_kha;
piece = {
LeftLegHeight = 1;
};
transform = "{1, 0, 0, 1, -8, 0}";
}
);
layerId = "76B3AF2C-89AC-4CB1-B1C9-F754B2D43151";
paths = (
{
closed = 1;
nodes = (
"551 151 LINE",
"523 151 LINE",
"504 177 LINE",
"464 152 LINE",
"486 126 OFFCURVE",
"498 103 OFFCURVE",
"512 77 CURVE",
"647 77 LINE",
"647 678 LINE",
"551 678 LINE"
);
}
);
width = 707;
}
);
leftMetricsKey = kha_marc;
rightMetricsKey = ya_marc.sub;
script = marc;
category = Letter;
},
{
glyphname = tsha_wa.sub_i_marc;
lastChange = "2017-12-12 06:08:17 +0000";
layers = (
{
anchors = (
{
name = candra;
position = "{570, 718}";
},
{
name = top;
position = "{505, 718}";
}
);
background = {
paths = (
{
closed = 1;
nodes = (
"657 678 LINE",
"441 678 LINE",
"401 759 OFFCURVE",
"315 869 OFFCURVE",
"194 869 CURVE SMOOTH",
"108 869 OFFCURVE",
"60 808 OFFCURVE",
"60 714 CURVE SMOOTH",
"60 8 LINE",
"156 -51 LINE",
"156 717 LINE SMOOTH",
"156 768 OFFCURVE",
"169 797 OFFCURVE",
"224 797 CURVE SMOOTH",
"304 797 OFFCURVE",
"372 731 OFFCURVE",
"407 678 CURVE",
"224 678 LINE",
"224 592 LINE",
"387 592 LINE",
"387 532 LINE",
"224 532 LINE",
"224 300 LINE",
"315 300 LINE",
"315 255 LINE",
"289 251 OFFCURVE",
"259 241 OFFCURVE",
"228 224 CURVE",
"220 142 LINE",
"253 164 OFFCURVE",
"295 185 OFFCURVE",
"343 185 CURVE SMOOTH",
"389 185 OFFCURVE",
"437 165 OFFCURVE",
"479 121 CURVE",
"525 129 LINE",
"490 192 OFFCURVE",
"443 234 OFFCURVE",
"391 250 CURVE",
"391 300 LINE",
"491 300 LINE",
"491 386 LINE",
"320 386 LINE",
"320 446 LINE",
"561 446 LINE",
"561 65 LINE",
"224 65 LINE",
"224 -150 LINE",
"657 -150 LINE",
"657 532 LINE",
"483 532 LINE",
"483 592 LINE",
"657 592 LINE"
);
},
{
closed = 1;
nodes = (
"274 -64 LINE",
"274 -21 LINE",
"561 -21 LINE",
"561 -64 LINE"
);
}
);
};
components = (
{
locked = 1;
name = _part_longi;
piece = {
HeadStretch = 200;
Height = 70;
};
transform = "{1, 0, 0, 1, 274, 0}";
},
{
locked = 1;
name = tsha_wa.sub;
transform = "{1, 0, 0, 1, 162, 0}";
}
);
layerId = "76B3AF2C-89AC-4CB1-B1C9-F754B2D43151";
width = 719;
}
);
leftMetricsKey = i_marc;
rightMetricsKey = tsha_marc;
script = marc;
category = Letter;
},
{
export = 0;
glyphname = _part_a;
lastChange = "2017-12-20 17:32:06 +0000";
layers = (
{
anchors = (
{
name = top;
position = "{376, 718}";
}
);
background = {
paths = (
{
closed = 1;
nodes = (
"731 222 LINE",
"731 678 LINE",
"21 678 LINE",
"21 592 LINE",
"635 592 LINE",
"635 222 LINE"
);
},
{
closed = 1;
nodes = (
"402 446 LINE",
"422 532 LINE",
"217 532 LINE",
"197 446 LINE"
);
},
{
closed = 1;
nodes = (
"491 274 OFFCURVE",
"433 405 OFFCURVE",
"388 474 CURVE",
"312 457 LINE",
"381 382 OFFCURVE",
"469 210 OFFCURVE",
"491 115 CURVE",
"520 162 LINE"
);
},
{
closed = 1;
nodes = (
"477 532 LINE",
"501 464 OFFCURVE",
"497 224 OFFCURVE",
"491 115 CURVE",
"565 99 LINE",
"565 452 LINE SMOOTH",
"565 486 OFFCURVE",
"570 516 OFFCURVE",
"573 532 CURVE"
);
},
{
closed = 1;
nodes = (
"133 446 LINE",
"153 532 LINE",
"47 532 LINE",
"27 446 LINE"
);
},
{
closed = 1;
nodes = (
"247 419 OFFCURVE",
"274 462 OFFCURVE",
"313 501 CURVE",
"259 501 LINE",
"223 457 OFFCURVE",
"185 406 OFFCURVE",
"178 328 CURVE",
"229 327 OFFCURVE",
"277 301 OFFCURVE",
"277 269 CURVE SMOOTH",
"277 240 OFFCURVE",
"244 223 OFFCURVE",
"202 223 CURVE SMOOTH",
"136 223 OFFCURVE",
"76 265 OFFCURVE",
"76 353 CURVE SMOOTH",
"76 394 OFFCURVE",
"90 432 OFFCURVE",
"118 453 CURVE",
"84 467 LINE",
"52 443 OFFCURVE",
"21 380 OFFCURVE",
"21 314 CURVE SMOOTH",
"21 209 OFFCURVE",
"94 137 OFFCURVE",
"186 137 CURVE SMOOTH",
"272 137 OFFCURVE",
"333 204 OFFCURVE",
"333 297 CURVE SMOOTH",
"333 366 OFFCURVE",
"294 419 OFFCURVE",
"232 419 CURVE",
"268 392 LINE"
);
}
);
};
components = (
{
name = _part_foot_down;
transform = "{1, 0, 0, 1, 605, -40}";
}
);
guideLines = (
{
angle = 90;
position = "{21, 262}";
}
);
layerId = "76B3AF2C-89AC-4CB1-B1C9-F754B2D43151";
paths = (
{
closed = 1;
nodes = (
"731 222 LINE",
"731 678 LINE",
"21 678 LINE",
"21 592 LINE",
"635 592 LINE",
"635 222 LINE"
);
},
{
closed = 1;
nodes = (
"402 446 LINE",
"422 532 LINE",
"217 532 LINE",
"197 446 LINE"
);
},
{
closed = 1;
nodes = (
"491 274 OFFCURVE",
"433 405 OFFCURVE",
"388 474 CURVE",
"306 457 LINE",
"375 382 OFFCURVE",
"465 210 OFFCURVE",
"487 115 CURVE",
"520 162 LINE"
);
},
{
closed = 1;
nodes = (
"469 532 LINE",
"493 464 OFFCURVE",
"493 224 OFFCURVE",
"487 115 CURVE",
"565 99 LINE",
"565 452 LINE SMOOTH",
"565 486 OFFCURVE",
"570 516 OFFCURVE",
"573 532 CURVE"
);
},
{
closed = 1;
nodes = (
"133 446 LINE",
"153 532 LINE",
"47 532 LINE",
"27 446 LINE"
);
},
{
closed = 1;
nodes = (
"247 419 OFFCURVE",
"274 462 OFFCURVE",
"313 501 CURVE",
"259 501 LINE",
"223 457 OFFCURVE",
"185 406 OFFCURVE",
"178 328 CURVE",
"229 327 OFFCURVE",
"277 301 OFFCURVE",
"277 268 CURVE SMOOTH",
"277 240 OFFCURVE",
"244 223 OFFCURVE",
"202 223 CURVE SMOOTH",
"136 223 OFFCURVE",
"76 265 OFFCURVE",
"76 353 CURVE SMOOTH",
"76 394 OFFCURVE",
"90 432 OFFCURVE",
"118 453 CURVE",
"74 467 LINE",
"45 443 OFFCURVE",
"13 393 OFFCURVE",
"13 323 CURVE SMOOTH",
"13 213 OFFCURVE",
"94 137 OFFCURVE",
"186 137 CURVE SMOOTH",
"278 137 OFFCURVE",
"339 204 OFFCURVE",
"339 293 CURVE SMOOTH",
"339 366 OFFCURVE",
"294 419 OFFCURVE",
"232 419 CURVE",
"268 392 LINE"
);
}
);
userData = {
PartSelection = {
FootHeight = 1;
HeadlineSlant = 1;
};
};
width = 763;
},
{
anchors = (
{
name = top;
position = "{376, 718}";
}
);
associatedMasterId = "76B3AF2C-89AC-4CB1-B1C9-F754B2D43151";
background = {
paths = (
{
closed = 1;
nodes = (
"731 -478 LINE",
"731 678 LINE",
"27 678 LINE",
"27 592 LINE",
"635 592 LINE",
"635 -478 LINE"
);
},
{
closed = 1;
nodes = (
"402 446 LINE",
"422 532 LINE",
"217 532 LINE",
"197 446 LINE"
);
},
{
closed = 1;
nodes = (
"491 274 OFFCURVE",
"433 405 OFFCURVE",
"388 474 CURVE",
"312 457 LINE",
"381 382 OFFCURVE",
"469 210 OFFCURVE",
"491 115 CURVE",
"520 162 LINE"
);
},
{
closed = 1;
nodes = (
"477 532 LINE",
"501 464 OFFCURVE",
"497 224 OFFCURVE",
"491 115 CURVE",
"565 99 LINE",
"565 452 LINE SMOOTH",
"565 486 OFFCURVE",
"570 516 OFFCURVE",
"573 532 CURVE"
);
},
{
closed = 1;
nodes = (
"133 446 LINE",
"153 532 LINE",
"47 532 LINE",
"27 446 LINE"
);
},
{
closed = 1;
nodes = (
"247 419 OFFCURVE",
"274 462 OFFCURVE",
"313 501 CURVE",
"259 501 LINE",
"223 457 OFFCURVE",
"185 406 OFFCURVE",
"178 328 CURVE",
"229 327 OFFCURVE",
"277 301 OFFCURVE",
"277 269 CURVE SMOOTH",
"277 240 OFFCURVE",
"244 223 OFFCURVE",
"202 223 CURVE SMOOTH",
"136 223 OFFCURVE",
"76 265 OFFCURVE",
"76 353 CURVE SMOOTH",
"76 394 OFFCURVE",
"90 432 OFFCURVE",
"118 453 CURVE",
"84 467 LINE",
"52 443 OFFCURVE",
"21 380 OFFCURVE",
"21 314 CURVE SMOOTH",
"21 209 OFFCURVE",
"94 137 OFFCURVE",
"186 137 CURVE SMOOTH",
"272 137 OFFCURVE",
"333 204 OFFCURVE",
"333 297 CURVE SMOOTH",
"333 366 OFFCURVE",
"294 419 OFFCURVE",
"232 419 CURVE",
"268 392 LINE"
);
}
);
};
components = (
{
name = _part_foot_down;
transform = "{1, 0, 0, 1, 605, -700}";
}
);
layerId = "99AA3785-44BB-4280-82A2-8B87F8A6D265";
name = FootHeight;
paths = (
{
closed = 1;
nodes = (
"731 -478 LINE",
"731 678 LINE",
"21 678 LINE",
"21 592 LINE",
"635 592 LINE",
"635 -478 LINE"
);
},
{
closed = 1;
nodes = (
"402 446 LINE",
"422 532 LINE",
"217 532 LINE",
"197 446 LINE"
);
},
{
closed = 1;
nodes = (
"491 274 OFFCURVE",
"433 405 OFFCURVE",
"388 474 CURVE",
"306 457 LINE",
"375 382 OFFCURVE",
"465 210 OFFCURVE",
"487 115 CURVE",
"520 162 LINE"
);
},
{
closed = 1;
nodes = (
"469 532 LINE",
"493 464 OFFCURVE",
"493 224 OFFCURVE",
"487 115 CURVE",
"565 99 LINE",
"565 452 LINE SMOOTH",
"565 486 OFFCURVE",
"570 516 OFFCURVE",
"573 532 CURVE"
);
},
{
closed = 1;
nodes = (
"133 446 LINE",
"153 532 LINE",
"47 532 LINE",
"27 446 LINE"
);
},
{
closed = 1;
nodes = (
"247 419 OFFCURVE",
"274 462 OFFCURVE",
"313 501 CURVE",
"259 501 LINE",
"223 457 OFFCURVE",
"185 406 OFFCURVE",
"178 328 CURVE",
"229 327 OFFCURVE",
"277 301 OFFCURVE",
"277 268 CURVE SMOOTH",
"277 240 OFFCURVE",
"244 223 OFFCURVE",
"202 223 CURVE SMOOTH",
"136 223 OFFCURVE",
"76 265 OFFCURVE",
"76 353 CURVE SMOOTH",
"76 394 OFFCURVE",
"90 432 OFFCURVE",
"118 453 CURVE",
"74 467 LINE",
"45 443 OFFCURVE",
"13 393 OFFCURVE",
"13 323 CURVE SMOOTH",
"13 213 OFFCURVE",
"94 137 OFFCURVE",
"186 137 CURVE SMOOTH",
"278 137 OFFCURVE",
"339 204 OFFCURVE",
"339 293 CURVE SMOOTH",
"339 366 OFFCURVE",
"294 419 OFFCURVE",
"232 419 CURVE",
"268 392 LINE"
);
}
);
userData = {
PartSelection = {
FootHeight = 2;
};
};
width = 763;
},
{
anchors = (
{
name = top;
position = "{376, 718}";
}
);
associatedMasterId = "76B3AF2C-89AC-4CB1-B1C9-F754B2D43151";
background = {
paths = (
{
closed = 1;
nodes = (
"731 192 LINE",
"731 678 LINE",
"45 678 LINE",
"27 592 LINE",
"635 592 LINE",
"635 192 LINE"
);
},
{
closed = 1;
nodes = (
"402 446 LINE",
"422 532 LINE",
"217 532 LINE",
"197 446 LINE"
);
},
{
closed = 1;
nodes = (
"491 274 OFFCURVE",
"433 405 OFFCURVE",
"388 474 CURVE",
"312 457 LINE",
"381 382 OFFCURVE",
"469 210 OFFCURVE",
"491 115 CURVE",
"520 162 LINE"
);
},
{
closed = 1;
nodes = (
"477 532 LINE",
"501 464 OFFCURVE",
"497 224 OFFCURVE",
"491 115 CURVE",
"565 99 LINE",
"565 452 LINE SMOOTH",
"565 486 OFFCURVE",
"570 516 OFFCURVE",
"573 532 CURVE"
);
},
{
closed = 1;
nodes = (
"133 446 LINE",
"153 532 LINE",
"47 532 LINE",
"27 446 LINE"
);
},
{
closed = 1;
nodes = (
"247 419 OFFCURVE",
"274 462 OFFCURVE",
"313 501 CURVE",
"259 501 LINE",
"223 457 OFFCURVE",
"185 406 OFFCURVE",
"178 328 CURVE",
"229 327 OFFCURVE",
"277 301 OFFCURVE",
"277 269 CURVE SMOOTH",
"277 240 OFFCURVE",
"244 223 OFFCURVE",
"202 223 CURVE SMOOTH",
"136 223 OFFCURVE",
"76 265 OFFCURVE",
"76 353 CURVE SMOOTH",
"76 394 OFFCURVE",
"90 432 OFFCURVE",
"118 453 CURVE",
"84 467 LINE",
"52 443 OFFCURVE",
"21 380 OFFCURVE",
"21 314 CURVE SMOOTH",
"21 209 OFFCURVE",
"94 137 OFFCURVE",
"186 137 CURVE SMOOTH",
"272 137 OFFCURVE",
"333 204 OFFCURVE",
"333 297 CURVE SMOOTH",
"333 366 OFFCURVE",
"294 419 OFFCURVE",
"232 419 CURVE",
"268 392 LINE"
);
}
);
};
components = (
{
name = _part_foot_down;
transform = "{1, 0, 0, 1, 605, -40}";
}
);
guideLines = (
{
angle = 76.9081;
position = "{57, 489}";
}
);
layerId = "6D86E24E-61FB-4BAA-995B-7BBEE51F15D4";
name = HeadlineSlant;
paths = (
{
closed = 1;
nodes = (
"731 222 LINE",
"731 678 LINE",
"39 678 LINE",
"21 592 LINE",
"635 592 LINE",
"635 222 LINE"
);
},
{
closed = 1;
nodes = (
"402 446 LINE",
"422 532 LINE",
"217 532 LINE",
"197 446 LINE"
);
},
{
closed = 1;
nodes = (
"491 274 OFFCURVE",
"433 405 OFFCURVE",
"388 474 CURVE",
"306 457 LINE",
"375 382 OFFCURVE",
"465 210 OFFCURVE",
"487 115 CURVE",
"520 162 LINE"
);
},
{
closed = 1;
nodes = (
"469 532 LINE",
"493 464 OFFCURVE",
"493 224 OFFCURVE",
"487 115 CURVE",
"565 99 LINE",
"565 452 LINE SMOOTH",
"565 486 OFFCURVE",
"570 516 OFFCURVE",
"573 532 CURVE"
);
},
{
closed = 1;
nodes = (
"133 446 LINE",
"153 532 LINE",
"47 532 LINE",
"27 446 LINE"
);
},
{
closed = 1;
nodes = (
"247 419 OFFCURVE",
"274 462 OFFCURVE",
"313 501 CURVE",
"259 501 LINE",
"223 457 OFFCURVE",
"185 406 OFFCURVE",
"178 328 CURVE",
"229 327 OFFCURVE",
"277 301 OFFCURVE",
"277 268 CURVE SMOOTH",
"277 240 OFFCURVE",
"244 223 OFFCURVE",
"202 223 CURVE SMOOTH",
"136 223 OFFCURVE",
"76 265 OFFCURVE",
"76 353 CURVE SMOOTH",
"76 394 OFFCURVE",
"90 432 OFFCURVE",
"118 453 CURVE",
"74 467 LINE",
"45 443 OFFCURVE",
"13 393 OFFCURVE",
"13 323 CURVE SMOOTH",
"13 213 OFFCURVE",
"94 137 OFFCURVE",
"186 137 CURVE SMOOTH",
"278 137 OFFCURVE",
"339 204 OFFCURVE",
"339 293 CURVE SMOOTH",
"339 366 OFFCURVE",
"294 419 OFFCURVE",
"232 419 CURVE",
"268 392 LINE"
);
}
);
userData = {
PartSelection = {
HeadlineSlant = 2;
};
};
width = 763;
}
);
partsSettings = (
{
name = HeadlineSlant;
bottomName = Low;
bottomValue = 0;
topName = High;
topValue = 100;
},
{
name = FootHeight;
bottomName = Low;
bottomValue = 0;
topName = High;
topValue = 400;
}
);
},
{
export = 0;
glyphname = _part_aa;
lastChange = "2017-12-20 17:32:07 +0000";
layers = (
{
anchors = (
{
name = wa_ra;
position = "{-38, -505}";
}
);
components = (
{
name = _part_foot_down;
piece = {
Flatness = 1;
};
transform = "{1, 0, 0, 1, -119, -679}";
},
{
name = _part_foot_down;
piece = {
Flatness = 1;
};
transform = "{1, 0, 0, 1, -451, -679}";
},
{
name = _part_foot_down;
piece = {
Flatness = 1;
};
transform = "{1, 0, 0, 1, -285, -679}";
}
);
guideLines = (
{
position = "{-121, -663}";
},
{
position = "{135, -600}";
}
);
layerId = "76B3AF2C-89AC-4CB1-B1C9-F754B2D43151";
paths = (
{
closed = 1;
nodes = (
"-325 -505 LINE",
"-325 -388 LINE",
"-301 -386 OFFCURVE",
"-279 -391 OFFCURVE",
"-255 -403 CURVE",
"-255 -505 LINE",
"-159 -505 LINE",
"-159 -233 LINE",
"-78 -233 LINE",
"-78 -147 LINE",
"-421 -147 LINE",
"-421 -233 LINE",
"-255 -233 LINE",
"-255 -334 LINE",
"-302 -312 OFFCURVE",
"-364 -301 OFFCURVE",
"-421 -304 CURVE",
"-421 -505 LINE"
);
},
{
closed = 1;
nodes = (
"7 -505 LINE",
"7 -1 LINE",
"-421 -1 LINE",
"-421 -87 LINE",
"-89 -87 LINE",
"-89 -505 LINE"
);
}
);
userData = {
PartSelection = {
FootShape = 1;
HeadlineSlant = 1;
LeftLegHeight = 1;
MidLegHeight = 1;
RightLegHeight = 1;
Width = 1;
};
};
width = 0;
},
{
anchors = (
{
name = wa_ra;
position = "{-37, -505}";
}
);
associatedMasterId = "76B3AF2C-89AC-4CB1-B1C9-F754B2D43151";
background = {
paths = (
{
closed = 1;
nodes = (
"-325 -448 LINE",
"-325 -388 LINE",
"-301 -386 OFFCURVE",
"-279 -391 OFFCURVE",
"-255 -403 CURVE",
"-255 -502 LINE",
"-159 -502 LINE",
"-159 -233 LINE",
"-78 -233 LINE",
"-78 -147 LINE",
"-411 -147 LINE",
"-431 -233 LINE",
"-255 -233 LINE",
"-255 -334 LINE",
"-302 -312 OFFCURVE",
"-364 -301 OFFCURVE",
"-421 -304 CURVE",
"-421 -448 LINE"
);
},
{
closed = 1;
nodes = (
"7 -505 LINE",
"7 -1 LINE",
"-409 -1 LINE",
"-429 -87 LINE",
"-89 -87 LINE",
"-89 -505 LINE"
);
}
);
};
components = (
{
name = _part_foot_down;
piece = {
Flatness = 1;
};
transform = "{1, 0, 0, 1, -119, -679}";
},
{
name = _part_foot_down;
piece = {
Flatness = 1;
};
transform = "{1, 0, 0, 1, -451, -679}";
},
{
name = _part_foot_down;
piece = {
Flatness = 1;
};
transform = "{1, 0, 0, 1, -285, -679}";
}
);
guideLines = (
{
position = "{135, -600}";
}
);
layerId = "77912F3A-FCAF-48A9-9BE5-ABD8DB317F1B";
name = HeadlineSlant;
paths = (
{
closed = 1;
nodes = (
"-325 -505 LINE",
"-325 -388 LINE",
"-301 -386 OFFCURVE",
"-279 -391 OFFCURVE",
"-255 -403 CURVE",
"-255 -505 LINE",
"-159 -505 LINE",
"-159 -233 LINE",
"-78 -233 LINE",
"-78 -147 LINE",
"-411 -147 LINE",
"-431 -233 LINE",
"-255 -233 LINE",
"-255 -334 LINE",
"-302 -312 OFFCURVE",
"-364 -301 OFFCURVE",
"-421 -304 CURVE",
"-421 -505 LINE"
);
},
{
closed = 1;
nodes = (
"7 -505 LINE",
"7 -1 LINE",
"-403 -1 LINE",
"-421 -87 LINE",
"-89 -87 LINE",
"-89 -505 LINE"
);
}
);
userData = {
PartSelection = {
HeadlineSlant = 2;
};
};
width = 0;
},
{
anchors = (
{
name = wa_ra;
position = "{21, -505}";
}
);
associatedMasterId = "76B3AF2C-89AC-4CB1-B1C9-F754B2D43151";
background = {
paths = (
{
closed = 1;
nodes = (
"-325 -448 LINE",
"-325 -388 LINE",
"-301 -386 OFFCURVE",
"-249 -391 OFFCURVE",
"-225 -403 CURVE",
"-225 -502 LINE",
"-129 -502 LINE",
"-129 -233 LINE",
"-18 -233 LINE",
"-18 -147 LINE",
"-421 -147 LINE",
"-421 -233 LINE",
"-225 -233 LINE",
"-225 -334 LINE",
"-272 -312 OFFCURVE",
"-364 -301 OFFCURVE",
"-421 -304 CURVE",
"-421 -448 LINE"
);
},
{
closed = 1;
nodes = (
"67 -505 LINE",
"67 -1 LINE",
"-421 -1 LINE",
"-421 -87 LINE",
"-29 -87 LINE",
"-29 -505 LINE"
);
}
);
};
components = (
{
name = _part_foot_down;
piece = {
Flatness = 1;
};
transform = "{1, 0, 0, 1, -59, -679}";
},
{
name = _part_foot_down;
piece = {
Flatness = 1;
};
transform = "{1, 0, 0, 1, -451, -679}";
},
{
name = _part_foot_down;
piece = {
Flatness = 1;
};
transform = "{1, 0, 0, 1, -255, -679}";
}
);
guideLines = (
{
position = "{135, -600}";
}
);
layerId = "215EAF11-E1AF-487B-B051-BE1806CF3A9D";
name = Width;
paths = (
{
closed = 1;
nodes = (
"-325 -505 LINE",
"-325 -388 LINE",
"-301 -386 OFFCURVE",
"-249 -391 OFFCURVE",
"-225 -403 CURVE",
"-225 -505 LINE",
"-129 -505 LINE",
"-129 -233 LINE",
"-18 -233 LINE",
"-18 -147 LINE",
"-421 -147 LINE",
"-421 -233 LINE",
"-225 -233 LINE",
"-225 -334 LINE",
"-272 -312 OFFCURVE",
"-364 -301 OFFCURVE",
"-421 -304 CURVE",
"-421 -505 LINE"
);
},
{
closed = 1;
nodes = (
"67 -505 LINE",
"67 -1 LINE",
"-421 -1 LINE",
"-421 -87 LINE",
"-29 -87 LINE",
"-29 -505 LINE"
);
}
);
userData = {
PartSelection = {
Width = 2;
};
};
width = 0;
},
{
anchors = (
{
name = wa_ra;
position = "{-37, -505}";
}
);
associatedMasterId = "76B3AF2C-89AC-4CB1-B1C9-F754B2D43151";
components = (
{
name = _part_foot_down;
piece = {
Flatness = 1;
};
transform = "{1, 0, 0, 1, -119, -679}";
},
{
name = _part_foot_down;
piece = {
Flatness = 1;
};
transform = "{1, 0, 0, 1, -451, -879}";
},
{
name = _part_foot_down;
piece = {
Flatness = 1;
};
transform = "{1, 0, 0, 1, -285, -679}";
}
);
guideLines = (
{
position = "{-121, -663}";
},
{
position = "{135, -600}";
}
);
layerId = "C9562C08-AFF6-4C89-934A-C4E2C4661BB4";
name = LeftLegHeight;
paths = (
{
closed = 1;
nodes = (
"-325 -642 LINE",
"-325 -388 LINE",
"-301 -386 OFFCURVE",
"-279 -391 OFFCURVE",
"-255 -403 CURVE",
"-255 -505 LINE",
"-159 -505 LINE",
"-159 -233 LINE",
"-78 -233 LINE",
"-78 -147 LINE",
"-421 -147 LINE",
"-421 -233 LINE",
"-255 -233 LINE",
"-255 -334 LINE",
"-302 -312 OFFCURVE",
"-364 -301 OFFCURVE",
"-421 -304 CURVE",
"-421 -642 LINE"
);
},
{
closed = 1;
nodes = (
"7 -505 LINE",
"7 -1 LINE",
"-421 -1 LINE",
"-421 -87 LINE",
"-89 -87 LINE",
"-89 -505 LINE"
);
}
);
userData = {
PartSelection = {
LeftLegHeight = 2;
};
};
width = 0;
},
{
anchors = (
{
name = wa_ra;
position = "{-37, -505}";
}
);
associatedMasterId = "76B3AF2C-89AC-4CB1-B1C9-F754B2D43151";
components = (
{
name = _part_foot_down;
piece = {
Flatness = 1;
};
transform = "{1, 0, 0, 1, -119, -679}";
},
{
name = _part_foot_down;
piece = {
Flatness = 1;
};
transform = "{1, 0, 0, 1, -451, -679}";
},
{
name = _part_foot_down;
piece = {
Flatness = 1;
};
transform = "{1, 0, 0, 1, -285, -879}";
}
);
guideLines = (
{
position = "{-121, -663}";
}
);
layerId = "25D677CD-6DE5-4BF1-BBC4-96CCF3B61F65";
name = MidLegHeight;
paths = (
{
closed = 1;
nodes = (
"-325 -505 LINE",
"-325 -388 LINE",
"-301 -386 OFFCURVE",
"-279 -391 OFFCURVE",
"-255 -403 CURVE",
"-255 -642 LINE",
"-159 -642 LINE",
"-159 -233 LINE",
"-78 -233 LINE",
"-78 -147 LINE",
"-421 -147 LINE",
"-421 -233 LINE",
"-255 -233 LINE",
"-255 -334 LINE",
"-302 -312 OFFCURVE",
"-364 -301 OFFCURVE",
"-421 -304 CURVE",
"-421 -505 LINE"
);
},
{
closed = 1;
nodes = (
"7 -505 LINE",
"7 -1 LINE",
"-421 -1 LINE",
"-421 -87 LINE",
"-89 -87 LINE",
"-89 -505 LINE"
);
}
);
userData = {
PartSelection = {
MidLegHeight = 2;
};
};
width = 0;
},
{
anchors = (
{
name = wa_ra;
position = "{-37, -505}";
}
);
associatedMasterId = "76B3AF2C-89AC-4CB1-B1C9-F754B2D43151";
components = (
{
name = _part_foot_down;
piece = {
Flatness = 1;
};
transform = "{1, 0, 0, 1, -119, -879}";
},
{
name = _part_foot_down;
piece = {
Flatness = 1;
};
transform = "{1, 0, 0, 1, -451, -679}";
},
{
name = _part_foot_down;
piece = {
Flatness = 1;
};
transform = "{1, 0, 0, 1, -285, -679}";
}
);
guideLines = (
{
position = "{-121, -663}";
}
);
layerId = "67BB7FD7-EF53-4E4F-B9F2-ECDC95FAA7F4";
name = RightLegHeight;
paths = (
{
closed = 1;
nodes = (
"-325 -505 LINE",
"-325 -388 LINE",
"-301 -386 OFFCURVE",
"-279 -391 OFFCURVE",
"-255 -403 CURVE",
"-255 -505 LINE",
"-159 -505 LINE",
"-159 -233 LINE",
"-78 -233 LINE",
"-78 -147 LINE",
"-421 -147 LINE",
"-421 -233 LINE",
"-255 -233 LINE",
"-255 -334 LINE",
"-302 -312 OFFCURVE",
"-364 -301 OFFCURVE",
"-421 -304 CURVE",
"-421 -505 LINE"
);
},
{
closed = 1;
nodes = (
"7 -642 LINE",
"7 -1 LINE",
"-421 -1 LINE",
"-421 -87 LINE",
"-89 -87 LINE",
"-89 -642 LINE"
);
}
);
userData = {
PartSelection = {
RightLegHeight = 2;
};
};
width = 0;
},
{
anchors = (
{
name = wa_ra;
position = "{-37, -505}";
}
);
associatedMasterId = "76B3AF2C-89AC-4CB1-B1C9-F754B2D43151";
components = (
{
name = _part_foot_down;
transform = "{1, 0, 0, 1, -119, -679}";
},
{
name = _part_foot_down;
transform = "{1, 0, 0, 1, -451, -679}";
},
{
name = _part_foot_down;
transform = "{1, 0, 0, 1, -285, -679}";
}
);
guideLines = (
{
position = "{-121, -663}";
}
);
layerId = "7C43A0B8-0E76-447F-885D-66CA3E574874";
name = FootShape;
paths = (
{
closed = 1;
nodes = (
"-325 -505 LINE",
"-325 -388 LINE",
"-301 -386 OFFCURVE",
"-279 -391 OFFCURVE",
"-255 -403 CURVE",
"-255 -505 LINE",
"-159 -505 LINE",
"-159 -233 LINE",
"-78 -233 LINE",
"-78 -147 LINE",
"-421 -147 LINE",
"-421 -233 LINE",
"-255 -233 LINE",
"-255 -334 LINE",
"-302 -312 OFFCURVE",
"-364 -301 OFFCURVE",
"-421 -304 CURVE",
"-421 -505 LINE"
);
},
{
closed = 1;
nodes = (
"7 -505 LINE",
"7 -1 LINE",
"-421 -1 LINE",
"-421 -87 LINE",
"-89 -87 LINE",
"-89 -505 LINE"
);
}
);
userData = {
PartSelection = {
FootShape = 2;
};
};
width = 0;
}
);
partsSettings = (
{
name = HeadlineSlant;
bottomName = Low;
bottomValue = 0;
topName = High;
topValue = 100;
},
{
name = Width;
bottomName = Low;
bottomValue = 0;
topName = High;
topValue = 200;
},
{
name = FootShape;
bottomName = Low;
bottomValue = 0;
topName = High;
topValue = 1;
},
{
name = LeftLegHeight;
bottomName = Low;
bottomValue = 0;
topName = High;
topValue = 200;
},
{
name = MidLegHeight;
bottomName = Low;
bottomValue = 0;
topName = High;
topValue = 200;
},
{
name = RightLegHeight;
bottomName = Low;
bottomValue = 0;
topName = High;
topValue = 200;
}
);
},
{
export = 0;
glyphname = _part_ba;
lastChange = "2017-12-20 17:32:07 +0000";
layers = (
{
anchors = (
{
name = bottom;
position = "{277, 78}";
},
{
name = connect;
position = "{515, 678}";
},
{
name = top;
position = "{289, 718}";
},
{
name = wa_ra;
position = "{470, 241}";
}
);
components = (
{
name = _part_foot_down;
transform = "{1, 0, 0, 1, 389, 0}";
}
);
guideLines = (
{
angle = 180;
position = "{211, 386}";
}
);
layerId = "76B3AF2C-89AC-4CB1-B1C9-F754B2D43151";
paths = (
{
closed = 1;
nodes = (
"359 164 LINE",
"359 386 LINE",
"60 386 LINE",
"60 164 LINE"
);
},
{
closed = 1;
nodes = (
"110 300 LINE",
"309 300 LINE",
"309 250 LINE",
"110 250 LINE"
);
},
{
closed = 1;
nodes = (
"359 446 LINE",
"359 532 LINE",
"60 532 LINE",
"60 446 LINE"
);
},
{
closed = 1;
nodes = (
"146 496 LINE",
"146 604 LINE",
"60 604 LINE",
"60 496 LINE"
);
},
{
closed = 1;
nodes = (
"515 213 LINE",
"515 678 LINE",
"60 678 LINE",
"60 592 LINE",
"419 592 LINE",
"419 213 LINE"
);
},
{
closed = 1;
nodes = (
"168 360 LINE",
"254 360 LINE",
"254 467 LINE",
"168 467 LINE"
);
}
);
userData = {
PartSelection = {
Flatness = 1;
Width = 1;
};
};
width = 575;
},
{
anchors = (
{
name = bottom;
position = "{277, 78}";
},
{
name = connect;
position = "{605, 678}";
},
{
name = top;
position = "{333, 718}";
},
{
name = wa_ra;
position = "{560, 241}";
}
);
associatedMasterId = "76B3AF2C-89AC-4CB1-B1C9-F754B2D43151";
components = (
{
name = _part_foot_down;
transform = "{1, 0, 0, 1, 479, 0}";
}
);
guideLines = (
{
angle = 180;
position = "{241, 386}";
}
);
layerId = "FCCCBD67-59C7-421B-AB32-FCAA96194D34";
name = Width;
paths = (
{
closed = 1;
nodes = (
"419 164 LINE",
"419 386 LINE",
"60 386 LINE",
"60 164 LINE"
);
},
{
closed = 1;
nodes = (
"110 300 LINE",
"369 300 LINE",
"369 250 LINE",
"110 250 LINE"
);
},
{
closed = 1;
nodes = (
"419 446 LINE",
"419 532 LINE",
"60 532 LINE",
"60 446 LINE"
);
},
{
closed = 1;
nodes = (
"146 496 LINE",
"146 604 LINE",
"60 604 LINE",
"60 496 LINE"
);
},
{
closed = 1;
nodes = (
"605 213 LINE",
"605 678 LINE",
"60 678 LINE",
"60 592 LINE",
"509 592 LINE",
"509 213 LINE"
);
},
{
closed = 1;
nodes = (
"197 360 LINE",
"283 360 LINE",
"283 467 LINE",
"197 467 LINE"
);
}
);
userData = {
PartSelection = {
Width = 2;
};
};
width = 665;
},
{
anchors = (
{
name = bottom;
position = "{277, 78}";
},
{
name = connect;
position = "{515, 678}";
},
{
name = top;
position = "{289, 718}";
},
{
name = wa_ra;
position = "{470, 241}";
}
);
associatedMasterId = "76B3AF2C-89AC-4CB1-B1C9-F754B2D43151";
components = (
{
name = _part_foot_down;
piece = {
Flatness = 1;
};
transform = "{1, 0, 0, 1, 389, 62}";
}
);
layerId = "C16FFC17-6377-49C0-9926-CB0B8864AC70";
name = Flatness;
paths = (
{
closed = 1;
nodes = (
"359 164 LINE",
"359 386 LINE",
"60 386 LINE",
"60 164 LINE"
);
},
{
closed = 1;
nodes = (
"110 300 LINE",
"309 300 LINE",
"309 250 LINE",
"110 250 LINE"
);
},
{
closed = 1;
nodes = (
"359 446 LINE",
"359 532 LINE",
"60 532 LINE",
"60 446 LINE"
);
},
{
closed = 1;
nodes = (
"146 496 LINE",
"146 604 LINE",
"60 604 LINE",
"60 496 LINE"
);
},
{
closed = 1;
nodes = (
"515 213 LINE",
"515 678 LINE",
"60 678 LINE",
"60 592 LINE",
"419 592 LINE",
"419 213 LINE"
);
},
{
closed = 1;
nodes = (
"168 360 LINE",
"254 360 LINE",
"254 467 LINE",
"168 467 LINE"
);
}
);
userData = {
PartSelection = {
Flatness = 2;
};
};
width = 575;
}
);
partsSettings = (
{
name = Width;
bottomName = Low;
bottomValue = 0;
topName = High;
topValue = 200;
},
{
name = Flatness;
bottomName = Low;
bottomValue = 0;
topName = High;
topValue = 100;
}
);
},
{
export = 0;
glyphname = _part_box;
lastChange = "2017-12-11 19:53:01 +0000";
layers = (
{
layerId = "76B3AF2C-89AC-4CB1-B1C9-F754B2D43151";
paths = (
{
closed = 1;
nodes = (
"340 213 LINE",
"340 455 LINE",
"30 455 LINE",
"30 213 LINE"
);
},
{
closed = 1;
nodes = (
"80 369 LINE",
"290 369 LINE",
"290 299 LINE",
"80 299 LINE"
);
}
);
userData = {
PartSelection = {
width = 1;
};
};
width = 400;
},
{
associatedMasterId = "76B3AF2C-89AC-4CB1-B1C9-F754B2D43151";
background = {
paths = (
{
closed = 1;
nodes = (
"610 213 LINE",
"610 469 LINE",
"30 469 LINE",
"30 213 LINE"
);
},
{
closed = 1;
nodes = (
"80 383 LINE",
"560 383 LINE",
"560 299 LINE",
"80 299 LINE"
);
}
);
};
layerId = "87B897AE-0840-4924-8714-9DFE8DB1DE73";
name = Wide;
paths = (
{
closed = 1;
nodes = (
"600 213 LINE",
"600 455 LINE",
"30 455 LINE",
"30 213 LINE"
);
},
{
closed = 1;
nodes = (
"80 369 LINE",
"550 369 LINE",
"550 299 LINE",
"80 299 LINE"
);
}
);
userData = {
PartSelection = {
width = 2;
};
};
width = 400;
}
);
partsSettings = (
{
name = width;
bottomName = Low;
bottomValue = 0;
topName = High;
topValue = 200;
}
);
},
{
export = 0;
glyphname = _part_ca;
lastChange = "2017-12-20 17:32:06 +0000";
layers = (
{
anchors = (
{
name = bottom;
position = "{327, 78}";
},
{
name = connect;
position = "{627, 678}";
},
{
name = top;
position = "{346, 718}";
},
{
name = wa_ra;
position = "{426, 160}";
}
);
components = (
{
name = _part_foot_down;
piece = {
Flatness = 1;
};
transform = "{1, 0, 0, 1, 501, -1}";
},
{
name = _part_foot_right;
transform = "{1, 0, 0, 1, 190, -158}";
},
{
name = _part_foot_down;
piece = {
Flatness = 1;
};
transform = "{1, 0, 0, 1, 46, -10}";
}
);
layerId = "76B3AF2C-89AC-4CB1-B1C9-F754B2D43151";
paths = (
{
closed = 1;
nodes = (
"315 502 LINE",
"315 607 LINE",
"219 607 LINE",
"219 502 LINE"
);
},
{
closed = 1;
nodes = (
"172 213 LINE",
"172 436 LINE",
"365 436 LINE",
"365 366 LINE",
"246 366 LINE",
"246 255 LINE",
"332 255 LINE",
"332 280 LINE",
"461 280 LINE",
"461 522 LINE",
"76 522 LINE",
"76 213 LINE"
);
},
{
closed = 1;
nodes = (
"76 678 LINE",
"76 592 LINE",
"531 592 LINE",
"531 182 LINE",
"627 182 LINE",
"627 678 LINE"
);
}
);
userData = {
PartSelection = {
FootNarrow = 1;
FootShape = 1;
HeadlineSlant = 1;
LeftLegHeight = 1;
RightLegHeight = 1;
Width = 1;
};
};
width = 687;
},
{
anchors = (
{
name = bottom;
position = "{327, 78}";
},
{
name = connect;
position = "{627, 678}";
},
{
name = top;
position = "{346, 718}";
},
{
name = wa_ra;
position = "{426, 160}";
}
);
associatedMasterId = "76B3AF2C-89AC-4CB1-B1C9-F754B2D43151";
background = {
paths = (
{
closed = 1;
nodes = (
"351 592 LINE",
"531 592 LINE",
"531 182 LINE",
"627 182 LINE",
"627 678 LINE",
"351 678 LINE"
);
},
{
closed = 1;
nodes = (
"315 502 LINE",
"315 607 LINE",
"219 607 LINE",
"219 502 LINE"
);
},
{
closed = 1;
nodes = (
"175 213 LINE",
"175 436 LINE",
"365 436 LINE",
"365 366 LINE",
"246 366 LINE",
"246 255 LINE",
"332 255 LINE",
"332 280 LINE",
"461 280 LINE",
"461 522 LINE",
"79 522 LINE",
"79 213 LINE"
);
},
{
closed = 1;
nodes = (
"460 592 LINE",
"460 678 LINE",
"94 678 LINE",
"76 592 LINE"
);
}
);
};
components = (
{
name = _part_foot_down;
piece = {
Flatness = 1;
};
transform = "{1, 0, 0, 1, 501, -1}";
},
{
name = _part_foot_right;
transform = "{1, 0, 0, 1, 190, -158}";
},
{
name = _part_foot_down;
piece = {
Flatness = 1;
};
transform = "{1, 0, 0, 1, 46, -10}";
}
);
layerId = "677F3333-D0C1-4624-A36A-DE6095DA8B4D";
name = HeadlineSlant;
paths = (
{
closed = 1;
nodes = (
"315 502 LINE",
"315 607 LINE",
"219 607 LINE",
"219 502 LINE"
);
},
{
closed = 1;
nodes = (
"172 213 LINE",
"172 436 LINE",
"365 436 LINE",
"365 366 LINE",
"246 366 LINE",
"246 255 LINE",
"332 255 LINE",
"332 280 LINE",
"461 280 LINE",
"461 522 LINE",
"76 522 LINE",
"76 213 LINE"
);
},
{
closed = 1;
nodes = (
"94 678 LINE",
"76 592 LINE",
"531 592 LINE",
"531 182 LINE",
"627 182 LINE",
"627 678 LINE"
);
}
);
userData = {
PartSelection = {
HeadlineSlant = 2;
};
};
width = 687;
},
{
anchors = (
{
name = bottom;
position = "{347, 78}";
},
{
name = connect;
position = "{687, 678}";
},
{
name = top;
position = "{366, 718}";
},
{
name = wa_ra;
position = "{446, 160}";
}
);
associatedMasterId = "76B3AF2C-89AC-4CB1-B1C9-F754B2D43151";
background = {
paths = (
{
closed = 1;
nodes = (
"411 592 LINE",
"591 592 LINE",
"591 182 LINE",
"687 182 LINE",
"687 678 LINE",
"411 678 LINE"
);
},
{
closed = 1;
nodes = (
"345 502 LINE",
"345 607 LINE",
"249 607 LINE",
"249 502 LINE"
);
},
{
closed = 1;
nodes = (
"175 213 LINE",
"175 436 LINE",
"425 436 LINE",
"425 366 LINE",
"255 366 LINE",
"255 255 LINE",
"341 255 LINE",
"341 280 LINE",
"521 280 LINE",
"521 522 LINE",
"79 522 LINE",
"79 213 LINE"
);
},
{
closed = 1;
nodes = (
"520 592 LINE",
"520 678 LINE",
"76 678 LINE",
"76 592 LINE"
);
}
);
};
components = (
{
name = _part_foot_down;
piece = {
Flatness = 1;
};
transform = "{1, 0, 0, 1, 561, -1}";
},
{
name = _part_foot_right;
transform = "{1, 0, 0, 1, 199, -158}";
},
{
name = _part_foot_down;
piece = {
Flatness = 1;
};
transform = "{1, 0, 0, 1, 46, -10}";
}
);
layerId = "4C9DDE62-9429-4626-850A-6EA152441D00";
name = Width;
paths = (
{
closed = 1;
nodes = (
"345 502 LINE",
"345 607 LINE",
"249 607 LINE",
"249 502 LINE"
);
},
{
closed = 1;
nodes = (
"172 213 LINE",
"172 436 LINE",
"425 436 LINE",
"425 366 LINE",
"255 366 LINE",
"255 255 LINE",
"341 255 LINE",
"341 280 LINE",
"521 280 LINE",
"521 522 LINE",
"76 522 LINE",
"76 213 LINE"
);
},
{
closed = 1;
nodes = (
"76 678 LINE",
"76 592 LINE",
"591 592 LINE",
"591 182 LINE",
"687 182 LINE",
"687 678 LINE"
);
}
);
userData = {
PartSelection = {
Width = 2;
};
};
width = 747;
},
{
anchors = (
{
name = bottom;
position = "{327, 78}";
},
{
name = connect;
position = "{627, 678}";
},
{
name = top;
position = "{346, 718}";
},
{
name = wa_ra;
position = "{426, 160}";
}
);
associatedMasterId = "76B3AF2C-89AC-4CB1-B1C9-F754B2D43151";
components = (
{
name = _part_foot_down;
transform = "{1, 0, 0, 1, 501, -1}";
},
{
name = _part_foot_right;
transform = "{1, 0, 0, 1, 190, -158}";
},
{
name = _part_foot_down;
transform = "{1, 0, 0, 1, 46, -10}";
}
);
layerId = "4695BBAE-0660-473C-949A-3F69C85A7D04";
name = FootShape;
paths = (
{
closed = 1;
nodes = (
"315 502 LINE",
"315 607 LINE",
"219 607 LINE",
"219 502 LINE"
);
},
{
closed = 1;
nodes = (
"172 213 LINE",
"172 436 LINE",
"365 436 LINE",
"365 366 LINE",
"246 366 LINE",
"246 255 LINE",
"332 255 LINE",
"332 280 LINE",
"461 280 LINE",
"461 522 LINE",
"76 522 LINE",
"76 213 LINE"
);
},
{
closed = 1;
nodes = (
"76 678 LINE",
"76 592 LINE",
"531 592 LINE",
"531 182 LINE",
"627 182 LINE",
"627 678 LINE"
);
}
);
userData = {
PartSelection = {
FootShape = 2;
};
};
width = 687;
},
{
anchors = (
{
name = bottom;
position = "{327, 78}";
},
{
name = connect;
position = "{627, 678}";
},
{
name = top;
position = "{346, 718}";
},
{
name = wa_ra;
position = "{426, 160}";
}
);
associatedMasterId = "76B3AF2C-89AC-4CB1-B1C9-F754B2D43151";
components = (
{
name = _part_foot_down;
piece = {
Flatness = 1;
};
transform = "{1, 0, 0, 1, 501, -1}";
},
{
name = _part_foot_right;
transform = "{1, 0, 0, 1, 190, -158}";
},
{
name = _part_foot_down;
piece = {
Flatness = 1;
};
transform = "{1, 0, 0, 1, 46, -210}";
}
);
layerId = "22719ACE-1765-4651-B8A7-8E52CBDBBC49";
name = LeftLegHeight;
paths = (
{
closed = 1;
nodes = (
"315 502 LINE",
"315 607 LINE",
"219 607 LINE",
"219 502 LINE"
);
},
{
closed = 1;
nodes = (
"172 13 LINE",
"172 436 LINE",
"365 436 LINE",
"365 366 LINE",
"246 366 LINE",
"246 255 LINE",
"332 255 LINE",
"332 280 LINE",
"461 280 LINE",
"461 522 LINE",
"76 522 LINE",
"76 13 LINE"
);
},
{
closed = 1;
nodes = (
"76 678 LINE",
"76 592 LINE",
"531 592 LINE",
"531 182 LINE",
"627 182 LINE",
"627 678 LINE"
);
}
);
userData = {
PartSelection = {
LeftLegHeight = 2;
};
};
width = 687;
},
{
anchors = (
{
name = bottom;
position = "{327, 78}";
},
{
name = connect;
position = "{627, 678}";
},
{
name = top;
position = "{346, 718}";
},
{
name = wa_ra;
position = "{426, 160}";
}
);
associatedMasterId = "76B3AF2C-89AC-4CB1-B1C9-F754B2D43151";
background = {
paths = (
{
closed = 1;
nodes = (
"351 592 LINE",
"531 592 LINE",
"531 -78 LINE",
"627 -78 LINE",
"627 678 LINE",
"351 678 LINE"
);
},
{
closed = 1;
nodes = (
"460 592 LINE",
"460 678 LINE",
"76 678 LINE",
"76 592 LINE"
);
}
);
};
components = (
{
name = _part_foot_down;
piece = {
Flatness = 1;
};
transform = "{1, 0, 0, 1, 501, -301}";
},
{
name = _part_foot_right;
transform = "{1, 0, 0, 1, 190, -158}";
},
{
name = _part_foot_down;
piece = {
Flatness = 1;
};
transform = "{1, 0, 0, 1, 46, -10}";
}
);
layerId = "A264ECD4-AE53-47FD-A6AE-3EB675FE1B6A";
name = RightLegHeight;
paths = (
{
closed = 1;
nodes = (
"315 502 LINE",
"315 607 LINE",
"219 607 LINE",
"219 502 LINE"
);
},
{
closed = 1;
nodes = (
"172 213 LINE",
"172 436 LINE",
"365 436 LINE",
"365 366 LINE",
"246 366 LINE",
"246 255 LINE",
"332 255 LINE",
"332 280 LINE",
"461 280 LINE",
"461 522 LINE",
"76 522 LINE",
"76 213 LINE"
);
},
{
closed = 1;
nodes = (
"76 678 LINE",
"76 592 LINE",
"531 592 LINE",
"531 -78 LINE",
"627 -78 LINE",
"627 678 LINE"
);
}
);
userData = {
PartSelection = {
RightLegHeight = 2;
};
};
width = 687;
},
{
anchors = (
{
name = bottom;
position = "{327, 78}";
},
{
name = connect;
position = "{627, 678}";
},
{
name = top;
position = "{346, 718}";
},
{
name = wa_ra;
position = "{426, 160}";
}
);
associatedMasterId = "76B3AF2C-89AC-4CB1-B1C9-F754B2D43151";
components = (
{
name = _part_foot_down;
piece = {
Flatness = 1;
};
transform = "{1, 0, 0, 1, 501, -1}";
},
{
name = _part_foot_right;
piece = {
Width = -20;
};
transform = "{1, 0, 0, 1, 190, -158}";
},
{
name = _part_foot_down;
piece = {
Flatness = 1;
};
transform = "{1, 0, 0, 1, 46, -10}";
}
);
layerId = "142E0015-C06C-405A-ADA2-841A33F14D49";
name = FootNarrow;
paths = (
{
closed = 1;
nodes = (
"315 502 LINE",
"315 607 LINE",
"219 607 LINE",
"219 502 LINE"
);
},
{
closed = 1;
nodes = (
"172 213 LINE",
"172 436 LINE",
"365 436 LINE",
"365 366 LINE",
"246 366 LINE",
"246 255 LINE",
"332 255 LINE",
"332 280 LINE",
"461 280 LINE",
"461 522 LINE",
"76 522 LINE",
"76 213 LINE"
);
},
{
closed = 1;
nodes = (
"76 678 LINE",
"76 592 LINE",
"531 592 LINE",
"531 182 LINE",
"627 182 LINE",
"627 678 LINE"
);
}
);
userData = {
PartSelection = {
FootNarrow = 2;
};
};
width = 687;
}
);
partsSettings = (
{
name = HeadlineSlant;
bottomName = Low;
bottomValue = 0;
topName = High;
topValue = 100;
},
{
name = Width;
bottomName = Low;
bottomValue = 0;
topName = High;
topValue = 200;
},
{
name = FootShape;
bottomName = Low;
bottomValue = 0;
topName = High;
topValue = 100;
},
{
name = FootNarrow;
bottomName = Low;
bottomValue = 0;
topName = High;
topValue = 100;
},
{
name = LeftLegHeight;
bottomName = Low;
bottomValue = 0;
topName = High;
topValue = 400;
},
{
name = RightLegHeight;
bottomName = Low;
bottomValue = 0;
topName = High;
topValue = 400;
}
);
},
{
export = 0;
glyphname = _part_cha;
lastChange = "2017-12-20 17:32:06 +0000";
layers = (
{
anchors = (
{
name = bottom;
position = "{292, 78}";
},
{
name = connect;
position = "{450, 678}";
},
{
name = top;
position = "{256, 718}";
},
{
name = wa_ra;
position = "{424, 160}";
}
);
components = (
{
name = _part_foot2;
transform = "{1, 0, 0, 1, 176, 57}";
},
{
name = _part_foot_down;
piece = {
Flatness = 1;
};
transform = "{1, 0, 0, 1, 48, -1}";
}
);
layerId = "76B3AF2C-89AC-4CB1-B1C9-F754B2D43151";
paths = (
{
closed = 1;
nodes = (
"309 504 LINE",
"309 618 LINE",
"213 618 LINE",
"213 504 LINE"
);
},
{
closed = 1;
nodes = (
"174 193 LINE",
"174 436 LINE",
"354 436 LINE",
"354 366 LINE",
"244 366 LINE",
"244 280 LINE",
"450 280 LINE",
"450 522 LINE",
"78 522 LINE",
"78 193 LINE"
);
},
{
closed = 1;
nodes = (
"450 592 LINE",
"450 678 LINE",
"78 678 LINE",
"78 592 LINE"
);
}
);
userData = {
PartSelection = {
FootShape = 1;
HeadlineSlant = 1;
HeadlineWidth = 1;
LeftLegHeight = 1;
RightFootPos = 1;
Width = 1;
};
};
width = 552;
},
{
anchors = (
{
name = bottom;
position = "{272, 78}";
},
{
name = connect;
position = "{490, 678}";
},
{
name = top;
position = "{256, 718}";
},
{
name = wa_ra;
position = "{424, 160}";
}
);
associatedMasterId = "76B3AF2C-89AC-4CB1-B1C9-F754B2D43151";
background = {
paths = (
{
closed = 1;
nodes = (
"309 504 LINE",
"309 618 LINE",
"213 618 LINE",
"213 504 LINE"
);
},
{
closed = 1;
nodes = (
"174 193 LINE",
"174 436 LINE",
"354 436 LINE",
"354 366 LINE",
"256 366 LINE",
"238 280 LINE",
"450 280 LINE",
"450 522 LINE",
"78 522 LINE",
"78 193 LINE"
);
},
{
closed = 1;
nodes = (
"470 592 LINE",
"488 678 LINE",
"58 678 LINE",
"40 592 LINE"
);
}
);
};
components = (
{
name = _part_foot2;
transform = "{1, 0, 0, 1, 176, 57}";
},
{
name = _part_foot_down;
piece = {
Flatness = 1;
};
transform = "{1, 0, 0, 1, 48, -1}";
}
);
layerId = "6C527E3F-E2CD-46DD-BBC2-4857D985F37C";
name = HeadlineWidth;
paths = (
{
closed = 1;
nodes = (
"309 504 LINE",
"309 618 LINE",
"213 618 LINE",
"213 504 LINE"
);
},
{
closed = 1;
nodes = (
"174 193 LINE",
"174 436 LINE",
"354 436 LINE",
"354 366 LINE",
"244 366 LINE",
"244 280 LINE",
"450 280 LINE",
"450 522 LINE",
"78 522 LINE",
"78 193 LINE"
);
},
{
closed = 1;
nodes = (
"490 592 LINE",
"490 678 LINE",
"38 678 LINE",
"38 592 LINE"
);
}
);
userData = {
PartSelection = {
HeadlineWidth = 2;
};
};
width = 552;
},
{
anchors = (
{
name = bottom;
position = "{283, 78}";
},
{
name = connect;
position = "{468, 678}";
},
{
name = top;
position = "{256, 718}";
},
{
name = wa_ra;
position = "{424, 160}";
}
);
associatedMasterId = "76B3AF2C-89AC-4CB1-B1C9-F754B2D43151";
background = {
paths = (
{
closed = 1;
nodes = (
"309 504 LINE",
"309 618 LINE",
"213 618 LINE",
"213 504 LINE"
);
},
{
closed = 1;
nodes = (
"174 193 LINE",
"174 436 LINE",
"354 436 LINE",
"354 366 LINE",
"256 366 LINE",
"238 280 LINE",
"450 280 LINE",
"450 522 LINE",
"78 522 LINE",
"78 193 LINE"
);
},
{
closed = 1;
nodes = (
"450 592 LINE",
"468 678 LINE",
"78 678 LINE",
"60 592 LINE"
);
}
);
};
components = (
{
name = _part_foot2;
transform = "{1, 0, 0, 1, 176, 57}";
},
{
name = _part_foot_down;
piece = {
Flatness = 1;
};
transform = "{1, 0, 0, 1, 48, -1}";
}
);
layerId = "C1C5AD10-9EB3-4EFA-A2AA-083727ACB58F";
name = HeadlineSlant;
paths = (
{
closed = 1;
nodes = (
"309 504 LINE",
"309 618 LINE",
"213 618 LINE",
"213 504 LINE"
);
},
{
closed = 1;
nodes = (
"174 193 LINE",
"174 436 LINE",
"354 436 LINE",
"354 366 LINE",
"244 366 LINE",
"244 280 LINE",
"450 280 LINE",
"450 522 LINE",
"78 522 LINE",
"78 193 LINE"
);
},
{
closed = 1;
nodes = (
"450 592 LINE",
"468 678 LINE",
"78 678 LINE",
"60 592 LINE"
);
}
);
userData = {
PartSelection = {
HeadlineSlant = 2;
};
};
width = 552;
},
{
anchors = (
{
name = bottom;
position = "{292, 78}";
},
{
name = connect;
position = "{450, 678}";
},
{
name = top;
position = "{256, 718}";
},
{
name = wa_ra;
position = "{424, 160}";
}
);
associatedMasterId = "76B3AF2C-89AC-4CB1-B1C9-F754B2D43151";
components = (
{
name = _part_foot2;
transform = "{1, 0, 0, 1, 176, 57}";
},
{
name = _part_foot_down;
transform = "{1, 0, 0, 1, 48, -1}";
}
);
layerId = "33DC93BD-DB50-4504-92B2-5AE0728CE80D";
name = FootShape;
paths = (
{
closed = 1;
nodes = (
"309 504 LINE",
"309 618 LINE",
"213 618 LINE",
"213 504 LINE"
);
},
{
closed = 1;
nodes = (
"174 193 LINE",
"174 436 LINE",
"354 436 LINE",
"354 366 LINE",
"244 366 LINE",
"244 280 LINE",
"450 280 LINE",
"450 522 LINE",
"78 522 LINE",
"78 193 LINE"
);
},
{
closed = 1;
nodes = (
"450 592 LINE",
"450 678 LINE",
"78 678 LINE",
"78 592 LINE"
);
}
);
userData = {
PartSelection = {
FootShape = 2;
};
};
width = 552;
},
{
anchors = (
{
name = bottom;
position = "{292, 78}";
},
{
name = connect;
position = "{450, 678}";
},
{
name = top;
position = "{256, 718}";
},
{
name = wa_ra;
position = "{424, 160}";
}
);
associatedMasterId = "76B3AF2C-89AC-4CB1-B1C9-F754B2D43151";
components = (
{
name = _part_foot2;
transform = "{1, 0, 0, 1, 176, 57}";
},
{
name = _part_foot_down;
piece = {
Flatness = 1;
};
transform = "{1, 0, 0, 1, 48, -301}";
}
);
layerId = "3585A5E1-A601-45FA-AAB1-9035897E0713";
name = LeftLegHeight;
paths = (
{
closed = 1;
nodes = (
"309 504 LINE",
"309 618 LINE",
"213 618 LINE",
"213 504 LINE"
);
},
{
closed = 1;
nodes = (
"174 -107 LINE",
"174 436 LINE",
"354 436 LINE",
"354 366 LINE",
"244 366 LINE",
"244 280 LINE",
"450 280 LINE",
"450 522 LINE",
"78 522 LINE",
"78 -107 LINE"
);
},
{
closed = 1;
nodes = (
"450 592 LINE",
"450 678 LINE",
"78 678 LINE",
"78 592 LINE"
);
}
);
userData = {
PartSelection = {
LeftLegHeight = 2;
};
};
width = 552;
},
{
anchors = (
{
name = bottom;
position = "{294, 78}";
},
{
name = connect;
position = "{510, 678}";
},
{
name = top;
position = "{296, 718}";
},
{
name = wa_ra;
position = "{424, 160}";
}
);
associatedMasterId = "76B3AF2C-89AC-4CB1-B1C9-F754B2D43151";
components = (
{
name = _part_foot2;
transform = "{1, 0, 0, 1, 176, 57}";
},
{
name = _part_foot_down;
piece = {
Flatness = 1;
};
transform = "{1, 0, 0, 1, 48, -1}";
}
);
layerId = "E2337080-1EEF-4059-9649-A4C917AD5276";
name = Wide;
paths = (
{
closed = 1;
nodes = (
"339 504 LINE",
"339 618 LINE",
"243 618 LINE",
"243 504 LINE"
);
},
{
closed = 1;
nodes = (
"174 193 LINE",
"174 436 LINE",
"414 436 LINE",
"414 366 LINE",
"244 366 LINE",
"244 280 LINE",
"510 280 LINE",
"510 522 LINE",
"78 522 LINE",
"78 193 LINE"
);
},
{
closed = 1;
nodes = (
"510 592 LINE",
"510 678 LINE",
"78 678 LINE",
"78 592 LINE"
);
}
);
userData = {
PartSelection = {
Width = 2;
};
};
width = 552;
},
{
anchors = (
{
name = bottom;
position = "{342, 78}";
},
{
name = connect;
position = "{450, 678}";
},
{
name = top;
position = "{256, 718}";
},
{
name = wa_ra;
position = "{531, 160}";
}
);
associatedMasterId = "76B3AF2C-89AC-4CB1-B1C9-F754B2D43151";
components = (
{
name = _part_foot2;
transform = "{1, 0, 0, 1, 276, 57}";
},
{
name = _part_foot_down;
piece = {
Flatness = 1;
};
transform = "{1, 0, 0, 1, 48, -1}";
}
);
layerId = "DF12667D-E4D9-4DCA-ABEA-67EF80E87783";
name = RightLegPos;
paths = (
{
closed = 1;
nodes = (
"309 504 LINE",
"309 618 LINE",
"213 618 LINE",
"213 504 LINE"
);
},
{
closed = 1;
nodes = (
"174 193 LINE",
"174 436 LINE",
"354 436 LINE",
"354 366 LINE",
"244 366 LINE",
"244 280 LINE",
"450 280 LINE",
"450 522 LINE",
"78 522 LINE",
"78 193 LINE"
);
},
{
closed = 1;
nodes = (
"450 592 LINE",
"450 678 LINE",
"78 678 LINE",
"78 592 LINE"
);
}
);
userData = {
PartSelection = {
RightFootPos = 2;
};
};
width = 552;
}
);
partsSettings = (
{
name = HeadlineWidth;
bottomName = Low;
bottomValue = 0;
topName = High;
topValue = 100;
},
{
name = HeadlineSlant;
bottomName = Low;
bottomValue = 0;
topName = High;
topValue = 100;
},
{
name = FootShape;
bottomName = Low;
bottomValue = 0;
topName = High;
topValue = 1;
},
{
name = LeftLegHeight;
bottomName = Low;
bottomValue = 0;
topName = High;
topValue = 300;
},
{
name = Width;
bottomName = Low;
bottomValue = 0;
topName = High;
topValue = 400;
},
{
name = RightFootPos;
bottomName = Low;
bottomValue = 0;
topName = High;
topValue = 300;
}
);
},
{
export = 0;
glyphname = _part_da;
lastChange = "2017-12-20 17:32:07 +0000";
layers = (
{
anchors = (
{
name = bottom;
position = "{277, 78}";
},
{
name = connect;
position = "{491, 678}";
},
{
name = top;
position = "{274, 718}";
},
{
name = wa_ra;
position = "{446, 160}";
}
);
components = (
{
name = _part_foot_right;
transform = "{1, 0, 0, 1, 4, -152}";
},
{
name = _part_foot_down;
piece = {
Flatness = 1;
};
transform = "{1, 0, 0, 1, 365, 1}";
}
);
layerId = "76B3AF2C-89AC-4CB1-B1C9-F754B2D43151";
paths = (
{
closed = 1;
nodes = (
"146 252 LINE",
"146 285 LINE",
"325 285 LINE",
"325 522 LINE",
"156 522 LINE",
"156 678 LINE",
"60 678 LINE",
"60 440 LINE",
"229 440 LINE",
"229 370 LINE",
"60 370 LINE",
"60 252 LINE"
);
},
{
closed = 1;
nodes = (
"491 207 LINE",
"491 678 LINE",
"82 678 LINE",
"82 592 LINE",
"395 592 LINE",
"395 207 LINE"
);
}
);
userData = {
PartSelection = {
FootShape = 1;
Height = 1;
LeftFootWidth = 1;
LeftLegHeight = 1;
RightLegHeight = 1;
Width = 1;
};
};
width = 551;
},
{
anchors = (
{
name = bottom;
position = "{277, 118}";
},
{
name = connect;
position = "{491, 678}";
},
{
name = top;
position = "{274, 718}";
},
{
name = wa_ra;
position = "{446, 200}";
}
);
associatedMasterId = "76B3AF2C-89AC-4CB1-B1C9-F754B2D43151";
components = (
{
name = _part_foot_right;
piece = {
Connection = 0;
};
transform = "{1, 0, 0, 1, 4, -113}";
},
{
name = _part_foot_down;
piece = {
Flatness = 1;
};
transform = "{1, 0, 0, 1, 365, 62}";
}
);
layerId = "B3A68A7C-8880-453F-86BF-B7F11AE4C598";
name = Height;
paths = (
{
closed = 1;
nodes = (
"146 282 LINE",
"146 305 LINE",
"325 305 LINE",
"325 532 LINE",
"156 532 LINE",
"156 678 LINE",
"60 678 LINE",
"60 450 LINE",
"229 450 LINE",
"229 390 LINE",
"60 390 LINE",
"60 282 LINE"
);
},
{
closed = 1;
nodes = (
"491 207 LINE",
"491 678 LINE",
"82 678 LINE",
"82 592 LINE",
"395 592 LINE",
"395 207 LINE"
);
}
);
userData = {
PartSelection = {
Height = 2;
};
};
width = 551;
},
{
anchors = (
{
name = bottom;
position = "{277, 78}";
},
{
name = connect;
position = "{531, 678}";
},
{
name = top;
position = "{314, 718}";
},
{
name = wa_ra;
position = "{486, 160}";
}
);
associatedMasterId = "76B3AF2C-89AC-4CB1-B1C9-F754B2D43151";
components = (
{
name = _part_foot_right;
transform = "{1, 0, 0, 1, 4, -152}";
},
{
name = _part_foot_down;
piece = {
Flatness = 1;
};
transform = "{1, 0, 0, 1, 405, 1}";
}
);
layerId = "256BE742-C375-4B6F-AD5A-E3259A70A2E5";
name = Width;
paths = (
{
closed = 1;
nodes = (
"146 252 LINE",
"146 285 LINE",
"345 285 LINE",
"345 522 LINE",
"156 522 LINE",
"156 678 LINE",
"60 678 LINE",
"60 440 LINE",
"249 440 LINE",
"249 370 LINE",
"60 370 LINE",
"60 252 LINE"
);
},
{
closed = 1;
nodes = (
"531 207 LINE",
"531 678 LINE",
"82 678 LINE",
"82 592 LINE",
"435 592 LINE",
"435 207 LINE"
);
}
);
userData = {
PartSelection = {
Width = 2;
};
};
width = 551;
},
{
anchors = (
{
name = bottom;
position = "{277, 78}";
},
{
name = connect;
position = "{491, 678}";
},
{
name = top;
position = "{274, 718}";
},
{
name = wa_ra;
position = "{446, 160}";
}
);
associatedMasterId = "76B3AF2C-89AC-4CB1-B1C9-F754B2D43151";
components = (
{
name = _part_foot_right;
transform = "{1, 0, 0, 1, 4, -232}";
},
{
name = _part_foot_down;
piece = {
Flatness = 1;
};
transform = "{1, 0, 0, 1, 365, 1}";
}
);
layerId = "2E9F5746-6A91-4E6A-81D0-04932CA7A54D";
name = LeftLegHeight;
paths = (
{
closed = 1;
nodes = (
"146 232 LINE",
"146 285 LINE",
"325 285 LINE",
"325 522 LINE",
"156 522 LINE",
"156 678 LINE",
"60 678 LINE",
"60 440 LINE",
"229 440 LINE",
"229 370 LINE",
"60 370 LINE",
"60 232 LINE"
);
},
{
closed = 1;
nodes = (
"491 207 LINE",
"491 678 LINE",
"82 678 LINE",
"82 592 LINE",
"395 592 LINE",
"395 207 LINE"
);
}
);
userData = {
PartSelection = {
LeftLegHeight = 2;
};
};
width = 551;
},
{
anchors = (
{
name = bottom;
position = "{277, 78}";
},
{
name = connect;
position = "{491, 678}";
},
{
name = top;
position = "{274, 718}";
},
{
name = wa_ra;
position = "{446, 60}";
}
);
associatedMasterId = "76B3AF2C-89AC-4CB1-B1C9-F754B2D43151";
components = (
{
name = _part_foot_right;
transform = "{1, 0, 0, 1, 4, -152}";
},
{
name = _part_foot_down;
piece = {
Flatness = 1;
};
transform = "{1, 0, 0, 1, 365, -199}";
}
);
layerId = "B53555BC-8BBE-4D12-B8D3-0259B20E6312";
name = RightLegHeight;
paths = (
{
closed = 1;
nodes = (
"146 252 LINE",
"146 285 LINE",
"325 285 LINE",
"325 522 LINE",
"156 522 LINE",
"156 678 LINE",
"60 678 LINE",
"60 440 LINE",
"229 440 LINE",
"229 370 LINE",
"60 370 LINE",
"60 252 LINE"
);
},
{
closed = 1;
nodes = (
"491 7 LINE",
"491 678 LINE",
"82 678 LINE",
"82 592 LINE",
"395 592 LINE",
"395 7 LINE"
);
}
);
userData = {
PartSelection = {
RightLegHeight = 2;
};
};
width = 551;
},
{
anchors = (
{
name = bottom;
position = "{277, 78}";
},
{
name = connect;
position = "{491, 678}";
},
{
name = top;
position = "{274, 718}";
},
{
name = wa_ra;
position = "{446, 160}";
}
);
associatedMasterId = "76B3AF2C-89AC-4CB1-B1C9-F754B2D43151";
components = (
{
name = _part_foot_right;
transform = "{1, 0, 0, 1, 4, -152}";
},
{
name = _part_foot_down;
transform = "{1, 0, 0, 1, 365, 1}";
}
);
layerId = "8951B39F-5702-4B3D-98ED-53F5FE47E120";
name = FootShape;
paths = (
{
closed = 1;
nodes = (
"146 252 LINE",
"146 285 LINE",
"325 285 LINE",
"325 522 LINE",
"156 522 LINE",
"156 678 LINE",
"60 678 LINE",
"60 440 LINE",
"229 440 LINE",
"229 370 LINE",
"60 370 LINE",
"60 252 LINE"
);
},
{
closed = 1;
nodes = (
"491 207 LINE",
"491 678 LINE",
"82 678 LINE",
"82 592 LINE",
"395 592 LINE",
"395 207 LINE"
);
}
);
userData = {
PartSelection = {
FootShape = 2;
};
};
width = 551;
},
{
anchors = (
{
name = bottom;
position = "{277, 78}";
},
{
name = connect;
position = "{491, 678}";
},
{
name = top;
position = "{274, 718}";
},
{
name = wa_ra;
position = "{446, 160}";
}
);
associatedMasterId = "76B3AF2C-89AC-4CB1-B1C9-F754B2D43151";
components = (
{
name = _part_foot_right;
piece = {
Width = 100;
};
transform = "{1, 0, 0, 1, 4, -152}";
},
{
name = _part_foot_down;
piece = {
Flatness = 1;
};
transform = "{1, 0, 0, 1, 365, 1}";
}
);
layerId = "F98E007D-3F25-4037-96AB-7EFE4337446D";
name = LeftFootWidth;
paths = (
{
closed = 1;
nodes = (
"146 252 LINE",
"146 285 LINE",
"325 285 LINE",
"325 522 LINE",
"156 522 LINE",
"156 678 LINE",
"60 678 LINE",
"60 440 LINE",
"229 440 LINE",
"229 370 LINE",
"60 370 LINE",
"60 252 LINE"
);
},
{
closed = 1;
nodes = (
"491 207 LINE",
"491 678 LINE",
"82 678 LINE",
"82 592 LINE",
"395 592 LINE",
"395 207 LINE"
);
}
);
userData = {
PartSelection = {
LeftFootWidth = 2;
};
};
width = 551;
}
);
partsSettings = (
{
name = Height;
bottomName = Low;
bottomValue = 0;
topName = High;
topValue = 100;
},
{
name = Width;
bottomName = Low;
bottomValue = 0;
topName = High;
topValue = 200;
},
{
name = LeftLegHeight;
bottomName = Low;
bottomValue = 0;
topName = High;
topValue = 200;
},
{
name = RightLegHeight;
bottomName = Low;
bottomValue = 0;
topName = High;
topValue = 200;
},
{
name = FootShape;
bottomName = Low;
bottomValue = 0;
topName = High;
topValue = 1;
},
{
name = LeftFootWidth;
bottomName = Low;
bottomValue = 0;
topName = High;
topValue = 200;
}
);
},
{
export = 0;
glyphname = _part_dza;
lastChange = "2017-12-20 17:32:07 +0000";
layers = (
{
anchors = (
{
name = bottom;
position = "{277, 78}";
},
{
name = connect;
position = "{483, 678}";
},
{
name = top;
position = "{280, 718}";
},
{
name = wa_ra;
position = "{438, 160}";
}
);
background = {
paths = (
{
closed = 1;
nodes = (
"370 517 LINE",
"370 596 LINE",
"274 596 LINE",
"274 517 LINE"
);
},
{
closed = 1;
nodes = (
"299 144 OFFCURVE",
"368 130 OFFCURVE",
"473 78 CURVE",
"473 376 LINE",
"304 376 LINE",
"304 436 LINE",
"456 436 LINE",
"474 522 LINE",
"208 522 LINE",
"208 290 LINE",
"377 290 LINE",
"377 206 LINE",
"323 224 OFFCURVE",
"267 231 OFFCURVE",
"208 231 CURVE",
"208 145 LINE"
);
},
{
closed = 1;
nodes = (
"148 194 LINE",
"148 592 LINE",
"476 592 LINE",
"494 678 LINE",
"52 678 LINE",
"52 194 LINE"
);
}
);
};
components = (
{
name = _part_foot_down;
piece = {
Flatness = 1;
};
transform = "{1, 0, 0, 1, 22, 0}";
}
);
layerId = "76B3AF2C-89AC-4CB1-B1C9-F754B2D43151";
paths = (
{
closed = 1;
nodes = (
"380 517 LINE",
"380 596 LINE",
"284 596 LINE",
"284 517 LINE"
);
},
{
closed = 1;
nodes = (
"148 194 LINE",
"148 592 LINE",
"483 592 LINE",
"483 678 LINE",
"52 678 LINE",
"52 194 LINE"
);
},
{
closed = 1;
nodes = (
"309 144 OFFCURVE",
"378 130 OFFCURVE",
"483 88 CURVE",
"483 372 LINE",
"304 372 LINE",
"304 442 LINE",
"466 442 LINE",
"484 522 LINE",
"218 522 LINE",
"218 292 LINE",
"397 292 LINE",
"397 200 LINE",
"333 218 OFFCURVE",
"277 225 OFFCURVE",
"218 225 CURVE",
"218 145 LINE"
);
}
);
userData = {
PartSelection = {
FootShape = 1;
HeadlineSlant = 1;
LeftLegHeight = 1;
Width = 1;
};
};
width = 544;
},
{
anchors = (
{
name = bottom;
position = "{277, 78}";
},
{
name = connect;
position = "{504, 678}";
},
{
name = top;
position = "{280, 718}";
},
{
name = wa_ra;
position = "{438, 160}";
}
);
associatedMasterId = "76B3AF2C-89AC-4CB1-B1C9-F754B2D43151";
components = (
{
name = _part_foot_down;
piece = {
Flatness = 1;
};
transform = "{1, 0, 0, 1, 22, 0}";
}
);
layerId = "1B209CE2-C991-4C83-AA78-57705A472E4C";
name = HeadlineSlant;
paths = (
{
closed = 1;
nodes = (
"380 517 LINE",
"380 596 LINE",
"284 596 LINE",
"284 517 LINE"
);
},
{
closed = 1;
nodes = (
"148 194 LINE",
"148 592 LINE",
"486 592 LINE",
"504 678 LINE",
"52 678 LINE",
"52 194 LINE"
);
},
{
closed = 1;
nodes = (
"309 144 OFFCURVE",
"378 130 OFFCURVE",
"483 88 CURVE",
"483 372 LINE",
"304 372 LINE",
"304 442 LINE",
"466 442 LINE",
"484 522 LINE",
"218 522 LINE",
"218 292 LINE",
"397 292 LINE",
"397 200 LINE",
"333 218 OFFCURVE",
"277 225 OFFCURVE",
"218 225 CURVE",
"218 145 LINE"
);
}
);
userData = {
PartSelection = {
HeadlineSlant = 2;
};
};
width = 544;
},
{
anchors = (
{
name = bottom;
position = "{277, 78}";
},
{
name = connect;
position = "{556, 678}";
},
{
name = top;
position = "{304, 718}";
},
{
name = wa_ra;
position = "{488, 160}";
}
);
associatedMasterId = "76B3AF2C-89AC-4CB1-B1C9-F754B2D43151";
background = {
paths = (
{
closed = 1;
nodes = (
"339 144 OFFCURVE",
"428 130 OFFCURVE",
"533 78 CURVE",
"533 376 LINE",
"344 376 LINE",
"344 436 LINE",
"516 436 LINE",
"534 522 LINE",
"248 522 LINE",
"248 290 LINE",
"437 290 LINE",
"437 206 LINE",
"383 224 OFFCURVE",
"307 231 OFFCURVE",
"248 231 CURVE",
"248 145 LINE"
);
}
);
};
components = (
{
name = _part_foot_down;
piece = {
Flatness = 1;
};
transform = "{1, 0, 0, 1, 22, 0}";
}
);
layerId = "E7AE7B64-5674-4F5A-BA70-D5E0EA66DBEE";
name = Wide;
paths = (
{
closed = 1;
nodes = (
"440 517 LINE",
"440 596 LINE",
"344 596 LINE",
"344 517 LINE"
);
},
{
closed = 1;
nodes = (
"148 194 LINE",
"148 592 LINE",
"556 592 LINE",
"556 678 LINE",
"52 678 LINE",
"52 194 LINE"
);
},
{
closed = 1;
nodes = (
"359 144 OFFCURVE",
"428 130 OFFCURVE",
"533 88 CURVE",
"533 372 LINE",
"334 372 LINE",
"334 442 LINE",
"516 442 LINE",
"534 522 LINE",
"248 522 LINE",
"248 292 LINE",
"447 292 LINE",
"447 200 LINE",
"383 218 OFFCURVE",
"327 225 OFFCURVE",
"248 225 CURVE",
"248 145 LINE"
);
}
);
userData = {
PartSelection = {
Width = 2;
};
};
width = 544;
},
{
anchors = (
{
name = bottom;
position = "{277, 78}";
},
{
name = connect;
position = "{483, 678}";
},
{
name = top;
position = "{280, 718}";
},
{
name = wa_ra;
position = "{438, 160}";
}
);
associatedMasterId = "76B3AF2C-89AC-4CB1-B1C9-F754B2D43151";
background = {
paths = (
{
closed = 1;
nodes = (
"370 517 LINE",
"370 596 LINE",
"274 596 LINE",
"274 517 LINE"
);
},
{
closed = 1;
nodes = (
"299 144 OFFCURVE",
"368 130 OFFCURVE",
"473 78 CURVE",
"473 376 LINE",
"304 376 LINE",
"304 436 LINE",
"456 436 LINE",
"474 522 LINE",
"208 522 LINE",
"208 290 LINE",
"377 290 LINE",
"377 206 LINE",
"323 224 OFFCURVE",
"267 231 OFFCURVE",
"208 231 CURVE",
"208 145 LINE"
);
},
{
closed = 1;
nodes = (
"148 194 LINE",
"148 592 LINE",
"476 592 LINE",
"494 678 LINE",
"52 678 LINE",
"52 194 LINE"
);
}
);
};
components = (
{
name = _part_foot_down;
transform = "{1, 0, 0, 1, 22, 0}";
}
);
layerId = "07DD78D5-6B73-4DAF-8682-7703A1040274";
name = FootShape;
paths = (
{
closed = 1;
nodes = (
"380 517 LINE",
"380 596 LINE",
"284 596 LINE",
"284 517 LINE"
);
},
{
closed = 1;
nodes = (
"148 194 LINE",
"148 592 LINE",
"483 592 LINE",
"483 678 LINE",
"52 678 LINE",
"52 194 LINE"
);
},
{
closed = 1;
nodes = (
"309 144 OFFCURVE",
"378 130 OFFCURVE",
"483 88 CURVE",
"483 372 LINE",
"304 372 LINE",
"304 442 LINE",
"466 442 LINE",
"484 522 LINE",
"218 522 LINE",
"218 292 LINE",
"397 292 LINE",
"397 200 LINE",
"333 218 OFFCURVE",
"277 225 OFFCURVE",
"218 225 CURVE",
"218 145 LINE"
);
}
);
userData = {
PartSelection = {
FootShape = 2;
};
};
width = 544;
},
{
anchors = (
{
name = bottom;
position = "{277, 78}";
},
{
name = connect;
position = "{483, 678}";
},
{
name = top;
position = "{280, 718}";
},
{
name = wa_ra;
position = "{438, 160}";
}
);
associatedMasterId = "76B3AF2C-89AC-4CB1-B1C9-F754B2D43151";
background = {
paths = (
{
closed = 1;
nodes = (
"370 517 LINE",
"370 596 LINE",
"274 596 LINE",
"274 517 LINE"
);
},
{
closed = 1;
nodes = (
"299 144 OFFCURVE",
"368 130 OFFCURVE",
"473 78 CURVE",
"473 376 LINE",
"304 376 LINE",
"304 436 LINE",
"456 436 LINE",
"474 522 LINE",
"208 522 LINE",
"208 290 LINE",
"377 290 LINE",
"377 206 LINE",
"323 224 OFFCURVE",
"267 231 OFFCURVE",
"208 231 CURVE",
"208 145 LINE"
);
},
{
closed = 1;
nodes = (
"148 194 LINE",
"148 592 LINE",
"476 592 LINE",
"494 678 LINE",
"52 678 LINE",
"52 194 LINE"
);
}
);
};
components = (
{
name = _part_foot_down;
piece = {
Flatness = 1;
};
transform = "{1, 0, 0, 1, 22, -300}";
}
);
layerId = "FB911F15-B064-44B4-8799-FC9E2DF6D593";
name = LeftLegHeight;
paths = (
{
closed = 1;
nodes = (
"380 517 LINE",
"380 596 LINE",
"284 596 LINE",
"284 517 LINE"
);
},
{
closed = 1;
nodes = (
"148 -106 LINE",
"148 592 LINE",
"483 592 LINE",
"483 678 LINE",
"52 678 LINE",
"52 -106 LINE"
);
},
{
closed = 1;
nodes = (
"309 144 OFFCURVE",
"378 130 OFFCURVE",
"483 88 CURVE",
"483 372 LINE",
"304 372 LINE",
"304 442 LINE",
"466 442 LINE",
"484 522 LINE",
"218 522 LINE",
"218 292 LINE",
"397 292 LINE",
"397 200 LINE",
"333 218 OFFCURVE",
"277 225 OFFCURVE",
"218 225 CURVE",
"218 145 LINE"
);
}
);
userData = {
PartSelection = {
LeftLegHeight = 2;
};
};
width = 544;
}
);
partsSettings = (
{
name = HeadlineSlant;
bottomName = Low;
bottomValue = 0;
topName = High;
topValue = 100;
},
{
name = FootShape;
bottomName = Low;
bottomValue = 0;
topName = High;
topValue = 1;
},
{
name = LeftLegHeight;
bottomName = Low;
bottomValue = 0;
topName = High;
topValue = 200;
},
{
name = Width;
bottomName = Low;
bottomValue = 0;
topName = High;
topValue = 400;
}
);
},
{
export = 0;
glyphname = _part_evwl;
lastChange = "2017-12-08 20:03:56 +0000";
layers = (
{
anchors = (
{
name = _connect;
position = "{490, 658}";
},
{
name = top;
position = "{306, 844}";
}
);
layerId = "76B3AF2C-89AC-4CB1-B1C9-F754B2D43151";
paths = (
{
closed = 1;
nodes = (
"490 804 LINE",
"123 804 LINE",
"123 718 LINE",
"394 718 LINE",
"394 646 LINE",
"490 646 LINE"
);
}
);
userData = {
PartSelection = {
Slant = 1;
Width = 1;
};
};
width = 0;
},
{
anchors = (
{
name = _connect;
position = "{490, 658}";
},
{
name = top;
position = "{126, 844}";
}
);
associatedMasterId = "76B3AF2C-89AC-4CB1-B1C9-F754B2D43151";
layerId = "59D3B046-0386-4F7C-B9C3-6D1875965FB1";
name = Wide;
paths = (
{
closed = 1;
nodes = (
"490 804 LINE",
"-237 804 LINE",
"-237 718 LINE",
"394 718 LINE",
"394 646 LINE",
"490 646 LINE"
);
}
);
userData = {
PartSelection = {
Width = 2;
};
};
width = 0;
},
{
anchors = (
{
name = _connect;
position = "{490, 658}";
},
{
name = top;
position = "{306, 844}";
}
);
associatedMasterId = "76B3AF2C-89AC-4CB1-B1C9-F754B2D43151";
layerId = "6836FEEB-73FA-4A9E-B0C9-90543ADAAE66";
name = Slant;
paths = (
{
closed = 1;
nodes = (
"490 804 LINE",
"141 804 LINE",
"123 718 LINE",
"394 718 LINE",
"394 646 LINE",
"490 646 LINE"
);
}
);
userData = {
PartSelection = {
Slant = 2;
};
};
width = 0;
}
);
partsSettings = (
{
name = Width;
bottomName = Low;
bottomValue = 0;
topName = High;
topValue = 400;
},
{
name = Slant;
bottomName = Low;
bottomValue = 0;
topName = High;
topValue = 100;
}
);
},
{
export = 0;
glyphname = _part_foot;
lastChange = "2017-08-31 22:58:25 +0000";
layers = (
{
background = {
paths = (
{
closed = 1;
nodes = (
"322 10 OFFCURVE",
"325 13 OFFCURVE",
"327 21 CURVE",
"272 86 OFFCURVE",
"229 108 OFFCURVE",
"179 108 CURVE SMOOTH",
"149 108 OFFCURVE",
"117 100 OFFCURVE",
"62 75 CURVE",
"52 47 OFFCURVE",
"62 26 OFFCURVE",
"80 6 CURVE",
"115 27 OFFCURVE",
"148 46 OFFCURVE",
"192 46 CURVE SMOOTH",
"229 46 OFFCURVE",
"261 34 OFFCURVE",
"314 6 CURVE"
);
},
{
closed = 1;
nodes = (
"166 162 LINE",
"90 162 LINE",
"62 75 LINE",
"135 66 LINE"
);
}
);
};
guideLines = (
{
angle = 72.512;
position = "{142, 81}";
}
);
layerId = "76B3AF2C-89AC-4CB1-B1C9-F754B2D43151";
paths = (
{
closed = 1;
nodes = (
"100 6 LINE",
"115 27 OFFCURVE",
"146 46 OFFCURVE",
"195 46 CURVE SMOOTH",
"227 46 OFFCURVE",
"258 38 OFFCURVE",
"301 -14 CURVE",
"327 1 LINE",
"282 85 OFFCURVE",
"229 108 OFFCURVE",
"184 108 CURVE SMOOTH",
"159 108 OFFCURVE",
"133 101 OFFCURVE",
"109 85 CURVE",
"134 62 LINE",
"166 162 LINE",
"110 162 LINE",
"68 31 LINE"
);
}
);
width = 372;
}
);
},
{
export = 0;
glyphname = _part_foot2;
lastChange = "2017-08-31 22:58:02 +0000";
layers = (
{
background = {
paths = (
{
closed = 1;
nodes = (
"252 75 OFFCURVE",
"205 97 OFFCURVE",
"150 97 CURVE SMOOTH",
"98 97 OFFCURVE",
"48 78 OFFCURVE",
"13 57 CURVE",
"50 126 LINE",
"96 155 OFFCURVE",
"133 159 OFFCURVE",
"155 159 CURVE SMOOTH",
"220 159 OFFCURVE",
"273 127 OFFCURVE",
"318 42 CURVE",
"316 34 OFFCURVE",
"313 31 OFFCURVE",
"305 27 CURVE"
);
},
{
closed = 1;
nodes = (
"50 126 LINE",
"97 216 LINE",
"162 216 LINE",
"122 141 LINE"
);
},
{
closed = 1;
nodes = (
"67 -167 OFFCURVE",
"88 -153 OFFCURVE",
"140 -153 CURVE SMOOTH",
"195 -153 OFFCURVE",
"237 -166 OFFCURVE",
"285 -204 CURVE",
"318 -187 LINE",
"271 -117 OFFCURVE",
"209 -81 OFFCURVE",
"148 -81 CURVE SMOOTH",
"128 -81 OFFCURVE",
"98 -85 OFFCURVE",
"73 -104 CURVE",
"104 -123 LINE",
"163 -13 LINE",
"104 -13 LINE",
"31 -150 LINE",
"43 -186 LINE"
);
}
);
};
guideLines = (
{
angle = 241.9275;
position = "{85, 192}";
}
);
layerId = "76B3AF2C-89AC-4CB1-B1C9-F754B2D43151";
paths = (
{
closed = 1;
nodes = (
"67 63 OFFCURVE",
"106 80 OFFCURVE",
"155 80 CURVE SMOOTH",
"202 80 OFFCURVE",
"247 64 OFFCURVE",
"285 26 CURVE",
"331 34 LINE",
"290 113 OFFCURVE",
"210 159 OFFCURVE",
"148 159 CURVE SMOOTH",
"129 159 OFFCURVE",
"98 155 OFFCURVE",
"73 136 CURVE",
"104 117 LINE",
"163 227 LINE",
"104 227 LINE",
"31 90 LINE",
"43 44 LINE"
);
}
);
width = 346;
}
);
},
{
export = 0;
glyphname = _part_foot3;
lastChange = "2017-08-31 22:58:01 +0000";
layers = (
{
background = {
paths = (
{
closed = 1;
nodes = (
"528 140 LINE",
"473 225 OFFCURVE",
"421 257 OFFCURVE",
"354 257 CURVE SMOOTH",
"304 257 OFFCURVE",
"262 249 OFFCURVE",
"207 224 CURVE",
"197 196 OFFCURVE",
"207 175 OFFCURVE",
"225 155 CURVE",
"260 176 OFFCURVE",
"316 195 OFFCURVE",
"362 195 CURVE SMOOTH",
"423 195 OFFCURVE",
"451 175 OFFCURVE",
"504 127 CURVE"
);
},
{
closed = 1;
nodes = (
"379 314 LINE",
"303 314 LINE",
"303 239 LINE",
"379 239 LINE"
);
}
);
};
layerId = "76B3AF2C-89AC-4CB1-B1C9-F754B2D43151";
paths = (
{
closed = 1;
nodes = (
"223 163 OFFCURVE",
"290 185 OFFCURVE",
"345 185 CURVE SMOOTH",
"397 185 OFFCURVE",
"445 165 OFFCURVE",
"487 121 CURVE",
"533 129 LINE",
"488 211 OFFCURVE",
"423 257 OFFCURVE",
"332 257 CURVE SMOOTH",
"301 257 OFFCURVE",
"252 251 OFFCURVE",
"196 224 CURVE",
"188 142 LINE"
);
},
{
closed = 1;
nodes = (
"379 239 LINE",
"379 314 LINE",
"303 314 LINE",
"303 239 LINE"
);
}
);
userData = {
PartSelection = {
Narrow = 1;
};
};
width = 572;
},
{
associatedMasterId = "76B3AF2C-89AC-4CB1-B1C9-F754B2D43151";
background = {
paths = (
{
closed = 1;
nodes = (
"223 163 OFFCURVE",
"290 185 OFFCURVE",
"345 185 CURVE SMOOTH",
"397 185 OFFCURVE",
"445 165 OFFCURVE",
"487 121 CURVE",
"533 129 LINE",
"488 211 OFFCURVE",
"423 257 OFFCURVE",
"332 257 CURVE SMOOTH",
"301 257 OFFCURVE",
"252 251 OFFCURVE",
"196 224 CURVE",
"188 142 LINE"
);
},
{
closed = 1;
nodes = (
"379 239 LINE",
"379 314 LINE",
"303 314 LINE",
"303 239 LINE"
);
}
);
};
layerId = "ECDF22F1-FC62-46E2-B901-82EC7791BFE7";
name = Narrow;
paths = (
{
closed = 1;
nodes = (
"241 164 OFFCURVE",
"283 185 OFFCURVE",
"331 185 CURVE SMOOTH",
"377 185 OFFCURVE",
"425 165 OFFCURVE",
"467 121 CURVE",
"513 129 LINE",
"468 211 OFFCURVE",
"403 257 OFFCURVE",
"332 257 CURVE SMOOTH",
"301 257 OFFCURVE",
"259 248 OFFCURVE",
"216 224 CURVE",
"208 142 LINE"
);
},
{
closed = 1;
nodes = (
"379 239 LINE",
"379 314 LINE",
"303 314 LINE",
"303 239 LINE"
);
}
);
userData = {
PartSelection = {
Narrow = 2;
};
};
width = 572;
}
);
partsSettings = (
{
name = Narrow;
bottomName = Low;
bottomValue = 0;
topName = High;
topValue = 200;
}
);
},
{
export = 0;
glyphname = _part_foot_down;
lastChange = "2017-10-02 21:32:11 +0000";
layers = (
{
background = {
paths = (
{
closed = 1;
nodes = (
"53 100 OFFCURVE",
"90 83 OFFCURVE",
"126 79 CURVE",
"126 286 LINE",
"30 286 LINE",
"30 138 LINE"
);
},
{
closed = 1;
nodes = (
"-86 130 OFFCURVE",
"-49 113 OFFCURVE",
"-13 79 CURVE",
"-13 286 LINE",
"-109 286 LINE",
"-109 138 LINE"
);
}
);
};
guideLines = (
{
angle = 148.4258;
position = "{78, 109}";
}
);
layerId = "76B3AF2C-89AC-4CB1-B1C9-F754B2D43151";
paths = (
{
closed = 1;
nodes = (
"62 118 OFFCURVE",
"94 99 OFFCURVE",
"126 79 CURVE",
"126 286 LINE",
"30 286 LINE",
"30 138 LINE"
);
}
);
userData = {
PartSelection = {
Concave = 1;
Convex = 1;
Flatness = 1;
Short = 1;
};
};
width = 156;
},
{
associatedMasterId = "76B3AF2C-89AC-4CB1-B1C9-F754B2D43151";
layerId = "12AB085C-2CF5-431D-929E-ADE6FB03ADA3";
name = Flatness;
paths = (
{
closed = 1;
nodes = (
"62 79 OFFCURVE",
"94 79 OFFCURVE",
"126 79 CURVE",
"126 286 LINE",
"30 286 LINE",
"30 79 LINE"
);
}
);
userData = {
PartSelection = {
Flatness = 2;
};
};
width = 156;
},
{
associatedMasterId = "76B3AF2C-89AC-4CB1-B1C9-F754B2D43151";
background = {
paths = (
{
closed = 1;
nodes = (
"58 103 OFFCURVE",
"90 83 OFFCURVE",
"126 79 CURVE",
"126 226 LINE",
"30 226 LINE",
"30 141 LINE"
);
}
);
};
layerId = "B2EE3AF0-3D3D-453A-AB7C-4D4B32894E84";
name = Short;
paths = (
{
closed = 1;
nodes = (
"62 118 OFFCURVE",
"94 99 OFFCURVE",
"126 79 CURVE",
"126 226 LINE",
"30 226 LINE",
"30 138 LINE"
);
}
);
userData = {
PartSelection = {
Short = 2;
};
};
width = 156;
},
{
associatedMasterId = "76B3AF2C-89AC-4CB1-B1C9-F754B2D43151";
background = {
paths = (
{
closed = 1;
nodes = (
"53 100 OFFCURVE",
"90 83 OFFCURVE",
"126 79 CURVE",
"126 286 LINE",
"30 286 LINE",
"30 138 LINE"
);
}
);
};
layerId = "F7E84481-E3A3-4840-AC33-A5717CDA35ED";
name = Convex;
paths = (
{
closed = 1;
nodes = (
"53 100 OFFCURVE",
"90 83 OFFCURVE",
"126 79 CURVE",
"126 286 LINE",
"30 286 LINE",
"30 138 LINE"
);
}
);
userData = {
PartSelection = {
Convex = 2;
};
};
width = 156;
},
{
associatedMasterId = "76B3AF2C-89AC-4CB1-B1C9-F754B2D43151";
background = {
paths = (
{
closed = 1;
nodes = (
"53 100 OFFCURVE",
"90 83 OFFCURVE",
"126 79 CURVE",
"126 286 LINE",
"30 286 LINE",
"30 138 LINE"
);
},
{
closed = 1;
nodes = (
"-86 130 OFFCURVE",
"-49 113 OFFCURVE",
"-13 79 CURVE",
"-13 286 LINE",
"-109 286 LINE",
"-109 138 LINE"
);
}
);
};
layerId = "6EB947E0-4421-4A6C-B672-D09702B2E66A";
name = Concave;
paths = (
{
closed = 1;
nodes = (
"64 128 OFFCURVE",
"96 109 OFFCURVE",
"126 79 CURVE",
"126 286 LINE",
"30 286 LINE",
"30 138 LINE"
);
}
);
userData = {
PartSelection = {
Concave = 2;
};
};
width = 156;
}
);
partsSettings = (
{
name = Flatness;
bottomName = Low;
bottomValue = 0;
topName = High;
topValue = 1;
},
{
name = Short;
bottomName = Low;
bottomValue = 0;
topName = High;
topValue = 100;
},
{
name = Convex;
bottomName = Low;
bottomValue = 0;
topName = High;
topValue = 100;
},
{
name = Concave;
bottomName = Low;
bottomValue = 0;
topName = High;
topValue = 100;
}
);
},
{
export = 0;
glyphname = _part_foot_right;
lastChange = "2017-09-25 18:19:26 +0000";
layers = (
{
background = {
paths = (
{
closed = 1;
nodes = (
"152 302 OFFCURVE",
"224 311 OFFCURVE",
"303 236 CURVE",
"349 244 LINE",
"297 324 OFFCURVE",
"232 378 OFFCURVE",
"142 388 CURVE",
"142 512 LINE",
"56 512 LINE",
"56 302 LINE"
);
}
);
};
layerId = "76B3AF2C-89AC-4CB1-B1C9-F754B2D43151";
paths = (
{
closed = 1;
nodes = (
"132 302 OFFCURVE",
"203 301 OFFCURVE",
"273 236 CURVE",
"319 244 LINE",
"276 324 OFFCURVE",
"212 378 OFFCURVE",
"142 388 CURVE",
"142 512 LINE",
"56 512 LINE",
"56 302 LINE"
);
}
);
userData = {
PartSelection = {
Connection = 2;
Flatness = 1;
Width = 1;
};
};
width = 399;
},
{
associatedMasterId = "76B3AF2C-89AC-4CB1-B1C9-F754B2D43151";
layerId = "B7D29906-C326-4E84-865C-44A9B0F7BA6E";
name = Wide;
paths = (
{
closed = 1;
nodes = (
"192 302 OFFCURVE",
"274 291 OFFCURVE",
"343 236 CURVE",
"389 244 LINE",
"337 324 OFFCURVE",
"252 378 OFFCURVE",
"142 388 CURVE",
"142 512 LINE",
"56 512 LINE",
"56 302 LINE"
);
}
);
userData = {
PartSelection = {
Width = 2;
};
};
width = 399;
},
{
associatedMasterId = "76B3AF2C-89AC-4CB1-B1C9-F754B2D43151";
background = {
paths = (
{
closed = 1;
nodes = (
"152 302 OFFCURVE",
"224 311 OFFCURVE",
"303 236 CURVE",
"349 244 LINE",
"297 324 OFFCURVE",
"232 378 OFFCURVE",
"142 388 CURVE",
"142 442 LINE",
"56 442 LINE",
"56 302 LINE"
);
}
);
};
layerId = "7A51BEF4-22FE-47B7-9ABB-2025D5FCF361";
name = Connector;
paths = (
{
closed = 1;
nodes = (
"132 302 OFFCURVE",
"203 301 OFFCURVE",
"273 236 CURVE",
"319 244 LINE",
"276 324 OFFCURVE",
"212 378 OFFCURVE",
"142 388 CURVE",
"142 442 LINE",
"56 442 LINE",
"56 302 LINE"
);
}
);
userData = {
PartSelection = {
Connection = 1;
};
};
width = 399;
},
{
associatedMasterId = "76B3AF2C-89AC-4CB1-B1C9-F754B2D43151";
layerId = "E7EC18E7-41C1-47A7-B047-6DAF5BC4872A";
name = Flatness;
paths = (
{
closed = 1;
nodes = (
"138 310 OFFCURVE",
"248 313 OFFCURVE",
"303 266 CURVE",
"349 274 LINE",
"297 334 OFFCURVE",
"232 378 OFFCURVE",
"142 388 CURVE",
"142 512 LINE",
"56 512 LINE",
"56 302 LINE"
);
}
);
userData = {
PartSelection = {
Flatness = 2;
};
};
width = 399;
}
);
partsSettings = (
{
name = Width;
bottomName = Low;
bottomValue = 0;
topName = High;
topValue = 100;
},
{
name = Connection;
bottomName = Low;
bottomValue = 0;
topName = High;
topValue = 100;
},
{
name = Flatness;
bottomName = Low;
bottomValue = 0;
topName = High;
topValue = 100;
}
);
},
{
export = 0;
glyphname = _part_foot_wide;
lastChange = "2017-12-12 05:06:24 +0000";
layers = (
{
layerId = "76B3AF2C-89AC-4CB1-B1C9-F754B2D43151";
paths = (
{
closed = 1;
nodes = (
"129 306 OFFCURVE",
"239 301 OFFCURVE",
"313 190 CURVE",
"359 198 LINE",
"309 313 OFFCURVE",
"227 368 OFFCURVE",
"143 388 CURVE",
"143 511 LINE",
"47 511 LINE",
"47 306 LINE"
);
}
);
userData = {
PartSelection = {
Height = 2;
Width = 2;
};
};
width = 399;
},
{
associatedMasterId = "76B3AF2C-89AC-4CB1-B1C9-F754B2D43151";
background = {
paths = (
{
closed = 1;
nodes = (
"129 306 OFFCURVE",
"207 312 OFFCURVE",
"281 211 CURVE",
"327 219 LINE",
"264 334 OFFCURVE",
"207 378 OFFCURVE",
"143 388 CURVE",
"143 511 LINE",
"47 511 LINE",
"47 306 LINE"
);
}
);
};
layerId = "B7D29906-C326-4E84-865C-44A9B0F7BA6E";
name = Narrow;
paths = (
{
closed = 1;
nodes = (
"129 306 OFFCURVE",
"207 312 OFFCURVE",
"281 210 CURVE",
"327 218 LINE",
"264 334 OFFCURVE",
"207 378 OFFCURVE",
"143 388 CURVE",
"143 511 LINE",
"47 511 LINE",
"47 306 LINE"
);
}
);
userData = {
PartSelection = {
Width = 1;
};
};
width = 399;
},
{
associatedMasterId = "76B3AF2C-89AC-4CB1-B1C9-F754B2D43151";
background = {
paths = (
{
closed = 1;
nodes = (
"129 306 OFFCURVE",
"239 311 OFFCURVE",
"313 190 CURVE",
"359 198 LINE",
"296 333 OFFCURVE",
"227 378 OFFCURVE",
"143 388 CURVE",
"143 437 LINE",
"47 437 LINE",
"47 306 LINE"
);
}
);
};
layerId = "7A51BEF4-22FE-47B7-9ABB-2025D5FCF361";
name = Height;
paths = (
{
closed = 1;
nodes = (
"129 306 OFFCURVE",
"239 301 OFFCURVE",
"313 190 CURVE",
"359 198 LINE",
"309 313 OFFCURVE",
"227 368 OFFCURVE",
"143 388 CURVE",
"143 436 LINE",
"47 436 LINE",
"47 306 LINE"
);
}
);
userData = {
PartSelection = {
Height = 1;
};
};
width = 399;
}
);
partsSettings = (
{
name = Width;
bottomName = Low;
bottomValue = 0;
topName = High;
topValue = 100;
},
{
name = Height;
bottomName = Low;
bottomValue = 0;
topName = High;
topValue = 100;
}
);
},
{
export = 0;
glyphname = _part_ga;
lastChange = "2017-12-20 17:32:07 +0000";
layers = (
{
anchors = (
{
name = bottom;
position = "{265, 78}";
},
{
name = connect;
position = "{490, 678}";
},
{
name = top;
position = "{286, 718}";
},
{
name = wa_ra;
position = "{445, 160}";
}
);
components = (
{
name = _part_foot2;
transform = "{1, 0, 0, 1, 19, 58}";
},
{
name = _part_foot_down;
piece = {
Flatness = 1;
};
transform = "{1, 0, 0, 1, 364, -1}";
}
);
layerId = "76B3AF2C-89AC-4CB1-B1C9-F754B2D43151";
paths = (
{
closed = 1;
nodes = (
"490 206 LINE",
"490 678 LINE",
"72 678 LINE",
"72 592 LINE",
"238 592 LINE",
"238 522 LINE",
"72 522 LINE",
"72 280 LINE",
"305 280 LINE",
"323 366 LINE",
"168 366 LINE",
"168 436 LINE",
"324 436 LINE",
"324 592 LINE",
"394 592 LINE",
"394 206 LINE"
);
}
);
userData = {
PartSelection = {
FootShape = 1;
HeadlineSlant = 1;
Height = 1;
LeftFootPos = 1;
RightLegHeight = 1;
Width = 1;
};
};
width = 540;
},
{
anchors = (
{
name = bottom;
position = "{265, 78}";
},
{
name = connect;
position = "{490, 678}";
},
{
name = top;
position = "{286, 718}";
},
{
name = wa_ra;
position = "{445, 160}";
}
);
associatedMasterId = "76B3AF2C-89AC-4CB1-B1C9-F754B2D43151";
background = {
paths = (
{
closed = 1;
nodes = (
"480 206 LINE",
"480 678 LINE",
"78 678 LINE",
"60 592 LINE",
"218 592 LINE",
"218 522 LINE",
"72 522 LINE",
"72 280 LINE",
"295 280 LINE",
"313 366 LINE",
"168 366 LINE",
"168 436 LINE",
"314 436 LINE",
"314 592 LINE",
"384 592 LINE",
"384 206 LINE"
);
}
);
};
components = (
{
name = _part_foot2;
transform = "{1, 0, 0, 1, 19, 58}";
},
{
name = _part_foot_down;
piece = {
Flatness = 1;
};
transform = "{1, 0, 0, 1, 364, -1}";
}
);
layerId = "BCDC033C-8E85-46CF-81AB-8C94C39F7806";
name = HeadlineSlant;
paths = (
{
closed = 1;
nodes = (
"490 206 LINE",
"490 678 LINE",
"78 678 LINE",
"60 592 LINE",
"238 592 LINE",
"238 522 LINE",
"72 522 LINE",
"72 280 LINE",
"305 280 LINE",
"323 366 LINE",
"168 366 LINE",
"168 436 LINE",
"324 436 LINE",
"324 592 LINE",
"394 592 LINE",
"394 206 LINE"
);
}
);
userData = {
PartSelection = {
HeadlineSlant = 2;
};
};
width = 540;
},
{
anchors = (
{
name = bottom;
position = "{265, 78}";
},
{
name = connect;
position = "{490, 678}";
},
{
name = top;
position = "{286, 718}";
},
{
name = wa_ra;
position = "{445, 160}";
}
);
associatedMasterId = "76B3AF2C-89AC-4CB1-B1C9-F754B2D43151";
components = (
{
name = _part_foot2;
transform = "{1, 0, 0, 1, 19, 58}";
},
{
name = _part_foot_down;
transform = "{1, 0, 0, 1, 364, -1}";
}
);
layerId = "22D870EB-8A5E-4C4D-9CDD-E151841578D2";
name = FootShape;
paths = (
{
closed = 1;
nodes = (
"490 206 LINE",
"490 678 LINE",
"72 678 LINE",
"72 592 LINE",
"238 592 LINE",
"238 522 LINE",
"72 522 LINE",
"72 280 LINE",
"305 280 LINE",
"323 366 LINE",
"168 366 LINE",
"168 436 LINE",
"324 436 LINE",
"324 592 LINE",
"394 592 LINE",
"394 206 LINE"
);
}
);
userData = {
PartSelection = {
FootShape = 2;
};
};
width = 540;
},
{
anchors = (
{
name = bottom;
position = "{265, 78}";
},
{
name = connect;
position = "{560, 678}";
},
{
name = top;
position = "{336, 718}";
},
{
name = wa_ra;
position = "{515, 160}";
}
);
associatedMasterId = "76B3AF2C-89AC-4CB1-B1C9-F754B2D43151";
components = (
{
name = _part_foot2;
transform = "{1, 0, 0, 1, 19, 58}";
},
{
name = _part_foot_down;
piece = {
Flatness = 1;
};
transform = "{1, 0, 0, 1, 434, -1}";
}
);
layerId = "740C5337-021D-4046-84DF-95D2B2A75863";
name = Width;
paths = (
{
closed = 1;
nodes = (
"560 206 LINE",
"560 678 LINE",
"72 678 LINE",
"72 592 LINE",
"288 592 LINE",
"288 522 LINE",
"72 522 LINE",
"72 280 LINE",
"365 280 LINE",
"383 366 LINE",
"168 366 LINE",
"168 436 LINE",
"374 436 LINE",
"374 592 LINE",
"464 592 LINE",
"464 206 LINE"
);
}
);
userData = {
PartSelection = {
Width = 2;
};
};
width = 600;
},
{
anchors = (
{
name = bottom;
position = "{265, 78}";
},
{
name = connect;
position = "{490, 678}";
},
{
name = top;
position = "{286, 718}";
},
{
name = wa_ra;
position = "{445, -40}";
}
);
associatedMasterId = "76B3AF2C-89AC-4CB1-B1C9-F754B2D43151";
background = {
paths = (
{
closed = 1;
nodes = (
"480 6 LINE",
"480 678 LINE",
"72 678 LINE",
"72 592 LINE",
"218 592 LINE",
"218 522 LINE",
"72 522 LINE",
"72 280 LINE",
"295 280 LINE",
"313 366 LINE",
"168 366 LINE",
"168 436 LINE",
"314 436 LINE",
"314 592 LINE",
"384 592 LINE",
"384 6 LINE"
);
}
);
};
components = (
{
name = _part_foot2;
transform = "{1, 0, 0, 1, 19, 58}";
},
{
name = _part_foot_down;
piece = {
Flatness = 1;
};
transform = "{1, 0, 0, 1, 364, -201}";
}
);
layerId = "F2D8B429-EE0B-4CB4-8362-2B7EB148A6C8";
name = RightLegHeight;
paths = (
{
closed = 1;
nodes = (
"490 6 LINE",
"490 678 LINE",
"72 678 LINE",
"72 592 LINE",
"238 592 LINE",
"238 522 LINE",
"72 522 LINE",
"72 280 LINE",
"305 280 LINE",
"323 366 LINE",
"168 366 LINE",
"168 436 LINE",
"324 436 LINE",
"324 592 LINE",
"394 592 LINE",
"394 6 LINE"
);
}
);
userData = {
PartSelection = {
RightLegHeight = 2;
};
};
width = 540;
},
{
anchors = (
{
name = bottom;
position = "{265, 78}";
},
{
name = connect;
position = "{490, 678}";
},
{
name = top;
position = "{286, 718}";
},
{
name = wa_ra;
position = "{445, 160}";
}
);
associatedMasterId = "76B3AF2C-89AC-4CB1-B1C9-F754B2D43151";
components = (
{
name = _part_foot2;
transform = "{1, 0, 0, 1, 119, 58}";
},
{
name = _part_foot_down;
piece = {
Flatness = 1;
};
transform = "{1, 0, 0, 1, 364, -1}";
}
);
layerId = "E25C5997-2FDE-4487-B4A5-FC822B3155E9";
name = LeftFootPos;
paths = (
{
closed = 1;
nodes = (
"490 206 LINE",
"490 678 LINE",
"72 678 LINE",
"72 592 LINE",
"238 592 LINE",
"238 522 LINE",
"72 522 LINE",
"72 280 LINE",
"305 280 LINE",
"323 366 LINE",
"168 366 LINE",
"168 436 LINE",
"324 436 LINE",
"324 592 LINE",
"394 592 LINE",
"394 206 LINE"
);
}
);
userData = {
PartSelection = {
LeftFootPos = 2;
};
};
width = 540;
}
);
partsSettings = (
{
name = HeadlineSlant;
bottomName = Low;
bottomValue = 0;
topName = High;
topValue = 100;
},
{
name = Height;
bottomName = Low;
bottomValue = 0;
topName = High;
topValue = 200;
},
{
name = Width;
bottomName = Low;
bottomValue = 0;
topName = High;
topValue = 400;
},
{
name = FootShape;
bottomName = Low;
bottomValue = 0;
topName = High;
topValue = 1;
},
{
name = LeftFootPos;
bottomName = Low;
bottomValue = 0;
topName = High;
topValue = 400;
},
{
name = RightLegHeight;
bottomName = Low;
bottomValue = 0;
topName = High;
topValue = 300;
}
);
},
{
export = 0;
glyphname = _part_ha;
lastChange = "2017-12-20 17:32:06 +0000";
layers = (
{
anchors = (
{
name = bottom;
position = "{277, 78}";
},
{
name = connect;
position = "{481, 678}";
},
{
name = top;
position = "{270, 718}";
},
{
name = wa_ra;
position = "{436, 304}";
}
);
components = (
{
name = _part_foot_down;
piece = {
Flatness = 1;
};
transform = "{1, 0, 0, 1, 355, 62}";
}
);
layerId = "76B3AF2C-89AC-4CB1-B1C9-F754B2D43151";
paths = (
{
closed = 1;
nodes = (
"481 230 LINE",
"481 522 LINE",
"156 522 LINE",
"156 592 LINE",
"481 592 LINE",
"481 678 LINE",
"60 678 LINE",
"60 436 LINE",
"229 436 LINE",
"229 366 LINE",
"60 366 LINE",
"60 280 LINE",
"315 280 LINE",
"315 436 LINE",
"385 436 LINE",
"385 230 LINE"
);
}
);
userData = {
PartSelection = {
FootShape = 1;
HeadlineSlant = 1;
RightLegHeight = 1;
Width = 1;
};
};
width = 559;
},
{
anchors = (
{
name = bottom;
position = "{277, 78}";
},
{
name = connect;
position = "{499, 678}";
},
{
name = top;
position = "{279, 718}";
},
{
name = wa_ra;
position = "{436, 304}";
}
);
associatedMasterId = "76B3AF2C-89AC-4CB1-B1C9-F754B2D43151";
background = {
paths = (
{
closed = 1;
nodes = (
"481 190 LINE",
"481 522 LINE",
"156 522 LINE",
"156 592 LINE",
"481 592 LINE",
"499 678 LINE",
"60 678 LINE",
"60 436 LINE",
"229 436 LINE",
"229 366 LINE",
"60 366 LINE",
"60 280 LINE",
"315 280 LINE",
"315 436 LINE",
"385 436 LINE",
"385 190 LINE"
);
}
);
};
components = (
{
name = _part_foot_down;
piece = {
Flatness = 1;
};
transform = "{1, 0, 0, 1, 355, 62}";
}
);
layerId = "B2C3C916-EB62-4427-92B5-703D3EC230FD";
name = HeadlineSlant;
paths = (
{
closed = 1;
nodes = (
"481 230 LINE",
"481 522 LINE",
"156 522 LINE",
"156 592 LINE",
"481 592 LINE",
"499 678 LINE",
"60 678 LINE",
"60 436 LINE",
"229 436 LINE",
"229 366 LINE",
"60 366 LINE",
"60 280 LINE",
"315 280 LINE",
"315 436 LINE",
"385 436 LINE",
"385 230 LINE"
);
}
);
userData = {
PartSelection = {
HeadlineSlant = 2;
};
};
width = 541;
},
{
anchors = (
{
name = bottom;
position = "{277, 78}";
},
{
name = connect;
position = "{521, 678}";
},
{
name = top;
position = "{290, 718}";
},
{
name = wa_ra;
position = "{476, 304}";
}
);
associatedMasterId = "76B3AF2C-89AC-4CB1-B1C9-F754B2D43151";
background = {
components = (
{
name = _part_foot_down;
transform = "{1, 0, 0, 1, 395, 0}";
}
);
paths = (
{
closed = 1;
nodes = (
"521 190 LINE",
"521 522 LINE",
"156 522 LINE",
"156 592 LINE",
"521 592 LINE",
"521 678 LINE",
"60 678 LINE",
"60 436 LINE",
"249 436 LINE",
"249 366 LINE",
"60 366 LINE",
"60 280 LINE",
"335 280 LINE",
"335 436 LINE",
"425 436 LINE",
"425 190 LINE"
);
}
);
};
components = (
{
name = _part_foot_down;
piece = {
Flatness = 1;
};
transform = "{1, 0, 0, 1, 395, 62}";
}
);
layerId = "5C8B8207-8245-4C53-90AA-E9FC0CD27D97";
name = Width;
paths = (
{
closed = 1;
nodes = (
"521 230 LINE",
"521 522 LINE",
"156 522 LINE",
"156 592 LINE",
"521 592 LINE",
"521 678 LINE",
"60 678 LINE",
"60 436 LINE",
"269 436 LINE",
"269 366 LINE",
"60 366 LINE",
"60 280 LINE",
"355 280 LINE",
"355 436 LINE",
"425 436 LINE",
"425 230 LINE"
);
}
);
userData = {
PartSelection = {
Width = 2;
};
};
width = 559;
},
{
anchors = (
{
name = bottom;
position = "{277, 78}";
},
{
name = connect;
position = "{481, 678}";
},
{
name = top;
position = "{270, 718}";
},
{
name = wa_ra;
position = "{436, 204}";
}
);
associatedMasterId = "76B3AF2C-89AC-4CB1-B1C9-F754B2D43151";
components = (
{
name = _part_foot_down;
piece = {
Flatness = 1;
};
transform = "{1, 0, 0, 1, 355, -38}";
}
);
layerId = "5F8C62CD-FF04-4BF4-9ACD-396897F3801D";
name = RightLegHeight;
paths = (
{
closed = 1;
nodes = (
"481 130 LINE",
"481 522 LINE",
"156 522 LINE",
"156 592 LINE",
"481 592 LINE",
"481 678 LINE",
"60 678 LINE",
"60 436 LINE",
"229 436 LINE",
"229 366 LINE",
"60 366 LINE",
"60 280 LINE",
"315 280 LINE",
"315 436 LINE",
"385 436 LINE",
"385 130 LINE"
);
}
);
userData = {
PartSelection = {
RightLegHeight = 2;
};
};
width = 559;
},
{
anchors = (
{
name = bottom;
position = "{277, 78}";
},
{
name = connect;
position = "{481, 678}";
},
{
name = top;
position = "{270, 718}";
},
{
name = wa_ra;
position = "{436, 304}";
}
);
associatedMasterId = "76B3AF2C-89AC-4CB1-B1C9-F754B2D43151";
components = (
{
name = _part_foot_down;
transform = "{1, 0, 0, 1, 355, 62}";
}
);
layerId = "3063E807-143D-4257-833E-E31BDC0E75B0";
name = FootShape;
paths = (
{
closed = 1;
nodes = (
"481 230 LINE",
"481 522 LINE",
"156 522 LINE",
"156 592 LINE",
"481 592 LINE",
"481 678 LINE",
"60 678 LINE",
"60 436 LINE",
"229 436 LINE",
"229 366 LINE",
"60 366 LINE",
"60 280 LINE",
"315 280 LINE",
"315 436 LINE",
"385 436 LINE",
"385 230 LINE"
);
}
);
userData = {
PartSelection = {
FootShape = 2;
};
};
width = 559;
}
);
partsSettings = (
{
name = HeadlineSlant;
bottomName = Low;
bottomValue = 0;
topName = High;
topValue = 100;
},
{
name = Width;
bottomName = Low;
bottomValue = 0;
topName = High;
topValue = 400;
},
{
name = RightLegHeight;
bottomName = Low;
bottomValue = 0;
topName = High;
topValue = 200;
},
{
name = FootShape;
bottomName = Low;
bottomValue = 0;
topName = High;
topValue = 1;
}
);
},
{
export = 0;
glyphname = _part_ja;
lastChange = "2017-12-20 17:32:07 +0000";
layers = (
{
anchors = (
{
name = bottom;
position = "{272, 78}";
},
{
name = connect;
position = "{456, 678}";
},
{
name = top;
position = "{269, 718}";
},
{
name = wa_ra;
position = "{437, 160}";
}
);
components = (
{
name = _part_foot2;
transform = "{1, 0, 0, 1, 183, 60}";
},
{
name = _part_foot_down;
piece = {
Flatness = 1;
};
transform = "{1, 0, 0, 1, 45, -1}";
}
);
layerId = "76B3AF2C-89AC-4CB1-B1C9-F754B2D43151";
paths = (
{
closed = 1;
nodes = (
"360 436 LINE",
"360 330 LINE",
"456 330 LINE",
"456 522 LINE",
"210 522 LINE",
"210 618 LINE",
"114 618 LINE",
"114 436 LINE"
);
},
{
closed = 1;
nodes = (
"171 176 LINE",
"171 280 LINE",
"456 280 LINE",
"456 366 LINE",
"75 366 LINE",
"75 176 LINE"
);
},
{
closed = 1;
nodes = (
"456 592 LINE",
"456 678 LINE",
"65 678 LINE",
"65 592 LINE"
);
}
);
userData = {
PartSelection = {
FootPosition = 1;
HeadlineSlant = 1;
Height = 2;
LeftFootShape = 1;
LeftLegHeight = 1;
Width = 1;
};
};
width = 554;
},
{
anchors = (
{
name = bottom;
position = "{272, 78}";
},
{
name = connect;
position = "{484, 678}";
},
{
name = top;
position = "{269, 718}";
},
{
name = wa_ra;
position = "{437, 160}";
}
);
associatedMasterId = "76B3AF2C-89AC-4CB1-B1C9-F754B2D43151";
components = (
{
name = _part_foot2;
transform = "{1, 0, 0, 1, 183, 60}";
},
{
name = _part_foot_down;
piece = {
Flatness = 1;
};
transform = "{1, 0, 0, 1, 45, -1}";
}
);
layerId = "58C58EE5-3F69-4204-82E9-D603217B35C8";
name = HeadlineSlant;
paths = (
{
closed = 1;
nodes = (
"360 436 LINE",
"360 330 LINE",
"456 330 LINE",
"456 522 LINE",
"210 522 LINE",
"210 618 LINE",
"114 618 LINE",
"114 436 LINE"
);
},
{
closed = 1;
nodes = (
"171 176 LINE",
"171 280 LINE",
"456 280 LINE",
"456 366 LINE",
"75 366 LINE",
"75 176 LINE"
);
},
{
closed = 1;
nodes = (
"466 592 LINE",
"484 678 LINE",
"68 678 LINE",
"50 592 LINE"
);
}
);
userData = {
PartSelection = {
HeadlineSlant = 2;
};
};
width = 554;
},
{
anchors = (
{
name = bottom;
position = "{272, 141}";
},
{
name = connect;
position = "{456, 678}";
},
{
name = top;
position = "{269, 718}";
},
{
name = wa_ra;
position = "{437, 160}";
}
);
associatedMasterId = "76B3AF2C-89AC-4CB1-B1C9-F754B2D43151";
components = (
{
name = _part_foot2;
transform = "{1, 0, 0, 1, 183, 108}";
},
{
name = _part_foot_down;
piece = {
Flatness = 1;
};
transform = "{1, 0, 0, 1, 45, 62}";
}
);
layerId = "896E775B-38D0-4AD0-8813-9C89F2A049BD";
name = Height;
paths = (
{
closed = 1;
nodes = (
"360 446 LINE",
"360 340 LINE",
"456 340 LINE",
"456 532 LINE",
"210 532 LINE",
"210 628 LINE",
"114 628 LINE",
"114 446 LINE"
);
},
{
closed = 1;
nodes = (
"171 196 LINE",
"171 300 LINE",
"456 300 LINE",
"456 386 LINE",
"75 386 LINE",
"75 196 LINE"
);
},
{
closed = 1;
nodes = (
"456 592 LINE",
"456 678 LINE",
"65 678 LINE",
"65 592 LINE"
);
}
);
userData = {
PartSelection = {
Height = 1;
};
};
width = 554;
},
{
anchors = (
{
name = bottom;
position = "{312, 78}";
},
{
name = connect;
position = "{546, 678}";
},
{
name = top;
position = "{309, 718}";
},
{
name = wa_ra;
position = "{437, 160}";
}
);
associatedMasterId = "76B3AF2C-89AC-4CB1-B1C9-F754B2D43151";
components = (
{
name = _part_foot2;
transform = "{1, 0, 0, 1, 183, 60}";
},
{
name = _part_foot_down;
piece = {
Flatness = 1;
};
transform = "{1, 0, 0, 1, 45, -2}";
}
);
layerId = "99214DBE-DD1C-4753-93E6-1095AD5368CF";
name = Width;
paths = (
{
closed = 1;
nodes = (
"450 436 LINE",
"450 330 LINE",
"546 330 LINE",
"546 522 LINE",
"210 522 LINE",
"210 618 LINE",
"114 618 LINE",
"114 436 LINE"
);
},
{
closed = 1;
nodes = (
"171 176 LINE",
"171 280 LINE",
"546 280 LINE",
"546 366 LINE",
"75 366 LINE",
"75 176 LINE"
);
},
{
closed = 1;
nodes = (
"546 592 LINE",
"546 678 LINE",
"65 678 LINE",
"65 592 LINE"
);
}
);
userData = {
PartSelection = {
Width = 2;
};
};
width = 594;
},
{
anchors = (
{
name = bottom;
position = "{272, 78}";
},
{
name = connect;
position = "{456, 678}";
},
{
name = top;
position = "{269, 718}";
},
{
name = wa_ra;
position = "{437, 160}";
}
);
associatedMasterId = "76B3AF2C-89AC-4CB1-B1C9-F754B2D43151";
components = (
{
name = _part_foot2;
transform = "{1, 0, 0, 1, 183, 60}";
},
{
name = _part_foot_down;
piece = {
Flatness = 1;
};
transform = "{1, 0, 0, 1, 45, -310}";
}
);
layerId = "C65E6D00-C776-4954-A495-502A39E2A88C";
name = LeftLegHeight;
paths = (
{
closed = 1;
nodes = (
"360 436 LINE",
"360 330 LINE",
"456 330 LINE",
"456 522 LINE",
"210 522 LINE",
"210 618 LINE",
"114 618 LINE",
"114 436 LINE"
);
},
{
closed = 1;
nodes = (
"171 -124 LINE",
"171 280 LINE",
"456 280 LINE",
"456 366 LINE",
"75 366 LINE",
"75 -124 LINE"
);
},
{
closed = 1;
nodes = (
"456 592 LINE",
"456 678 LINE",
"65 678 LINE",
"65 592 LINE"
);
}
);
userData = {
PartSelection = {
LeftLegHeight = 2;
};
};
width = 554;
},
{
anchors = (
{
name = bottom;
position = "{272, 78}";
},
{
name = connect;
position = "{456, 678}";
},
{
name = top;
position = "{269, 718}";
},
{
name = wa_ra;
position = "{437, 160}";
}
);
associatedMasterId = "76B3AF2C-89AC-4CB1-B1C9-F754B2D43151";
components = (
{
name = _part_foot2;
transform = "{1, 0, 0, 1, 283, 60}";
},
{
name = _part_foot_down;
piece = {
Flatness = 1;
};
transform = "{1, 0, 0, 1, 45, -1}";
}
);
layerId = "E7BA21A5-5B4E-409E-A0AC-37FD5CBF5E7D";
name = FootPos;
paths = (
{
closed = 1;
nodes = (
"360 436 LINE",
"360 330 LINE",
"456 330 LINE",
"456 522 LINE",
"210 522 LINE",
"210 618 LINE",
"114 618 LINE",
"114 436 LINE"
);
},
{
closed = 1;
nodes = (
"171 176 LINE",
"171 280 LINE",
"456 280 LINE",
"456 366 LINE",
"75 366 LINE",
"75 176 LINE"
);
},
{
closed = 1;
nodes = (
"456 592 LINE",
"456 678 LINE",
"65 678 LINE",
"65 592 LINE"
);
}
);
userData = {
PartSelection = {
FootPosition = 2;
};
};
width = 554;
},
{
anchors = (
{
name = bottom;
position = "{272, 78}";
},
{
name = connect;
position = "{456, 678}";
},
{
name = top;
position = "{269, 718}";
},
{
name = wa_ra;
position = "{437, 160}";
}
);
associatedMasterId = "76B3AF2C-89AC-4CB1-B1C9-F754B2D43151";
components = (
{
name = _part_foot2;
transform = "{1, 0, 0, 1, 183, 60}";
},
{
name = _part_foot_down;
transform = "{1, 0, 0, 1, 45, -1}";
}
);
layerId = "4B98516B-1F6D-4195-B8F6-269AB1C45D0A";
name = FootShape;
paths = (
{
closed = 1;
nodes = (
"360 436 LINE",
"360 330 LINE",
"456 330 LINE",
"456 522 LINE",
"210 522 LINE",
"210 618 LINE",
"114 618 LINE",
"114 436 LINE"
);
},
{
closed = 1;
nodes = (
"171 176 LINE",
"171 280 LINE",
"456 280 LINE",
"456 366 LINE",
"75 366 LINE",
"75 176 LINE"
);
},
{
closed = 1;
nodes = (
"456 592 LINE",
"456 678 LINE",
"65 678 LINE",
"65 592 LINE"
);
}
);
userData = {
PartSelection = {
LeftFootShape = 2;
};
};
width = 554;
}
);
partsSettings = (
{
name = HeadlineSlant;
bottomName = Low;
bottomValue = 0;
topName = High;
topValue = 100;
},
{
name = Height;
bottomName = Low;
bottomValue = 0;
topName = High;
topValue = 100;
},
{
name = Width;
bottomName = Low;
bottomValue = 0;
topName = High;
topValue = 200;
},
{
name = LeftLegHeight;
bottomName = Low;
bottomValue = 0;
topName = High;
topValue = 200;
},
{
name = FootPosition;
bottomName = Low;
bottomValue = 0;
topName = High;
topValue = 200;
},
{
name = LeftFootShape;
bottomName = Low;
bottomValue = 0;
topName = High;
topValue = 100;
}
);
},
{
export = 0;
glyphname = _part_ka;
lastChange = "2017-12-20 17:32:07 +0000";
layers = (
{
anchors = (
{
name = bottom;
position = "{273, 78}";
},
{
name = connect;
position = "{490, 678}";
},
{
name = top;
position = "{272, 718}";
},
{
name = wa_ra;
position = "{444, 178}";
}
);
background = {
components = (
{
name = _part_foot_down;
piece = {
Flatness = 1;
Short = 100;
};
transform = "{1, 0, 0, 1, 32, 219}";
},
{
name = _part_foot_down;
piece = {
Flatness = 1;
Short = 100;
};
transform = "{1, 0, 0, 1, 198, 152}";
},
{
name = _part_foot_down;
piece = {
Flatness = 1;
Short = 100;
};
transform = "{1, 0, 0, 1, 364, 110}";
}
);
paths = (
{
closed = 1;
nodes = (
"490 295 LINE",
"490 678 LINE",
"62 678 LINE",
"62 592 LINE",
"228 592 LINE",
"228 471 LINE",
"181 493 OFFCURVE",
"119 504 OFFCURVE",
"62 501 CURVE",
"62 378 LINE",
"158 378 LINE",
"158 417 LINE",
"182 419 OFFCURVE",
"204 414 OFFCURVE",
"228 402 CURVE",
"228 349 LINE",
"324 349 LINE",
"324 592 LINE",
"394 592 LINE",
"394 295 LINE"
);
}
);
};
components = (
{
name = _part_foot_down;
piece = {
Flatness = 1;
};
transform = "{1, 0, 0, 1, 32, 62}";
},
{
name = _part_foot_down;
piece = {
Flatness = 1;
};
transform = "{1, 0, 0, 1, 198, 62}";
},
{
name = _part_foot_down;
piece = {
Flatness = 1;
};
transform = "{1, 0, 0, 1, 364, 62}";
}
);
layerId = "76B3AF2C-89AC-4CB1-B1C9-F754B2D43151";
paths = (
{
closed = 1;
nodes = (
"490 236 LINE",
"490 678 LINE",
"62 678 LINE",
"62 592 LINE",
"228 592 LINE",
"228 471 LINE",
"181 493 OFFCURVE",
"119 504 OFFCURVE",
"62 501 CURVE",
"62 236 LINE",
"158 236 LINE",
"158 417 LINE",
"182 419 OFFCURVE",
"204 414 OFFCURVE",
"228 402 CURVE",
"228 236 LINE",
"324 236 LINE",
"324 592 LINE",
"394 592 LINE",
"394 236 LINE"
);
}
);
userData = {
PartSelection = {
FootShape = 1;
HeadlineSlant = 1;
LeftLegHeight = 1;
MiddleLegHeight = 1;
RightLegHeight = 1;
Width = 1;
};
};
width = 550;
},
{
anchors = (
{
name = bottom;
position = "{273, 78}";
},
{
name = connect;
position = "{490, 678}";
},
{
name = top;
position = "{272, 718}";
},
{
name = wa_ra;
position = "{444, 178}";
}
);
associatedMasterId = "76B3AF2C-89AC-4CB1-B1C9-F754B2D43151";
background = {
components = (
{
name = _part_foot_down;
piece = {
Short = 40;
};
transform = "{1, 0, 0, 1, 32, 219}";
},
{
name = _part_foot_down;
piece = {
Short = 40;
};
transform = "{1, 0, 0, 1, 198, 152}";
},
{
name = _part_foot_down;
piece = {
Short = 40;
};
transform = "{1, 0, 0, 1, 364, 110}";
}
);
paths = (
{
closed = 1;
nodes = (
"490 295 LINE",
"490 678 LINE",
"62 678 LINE",
"62 592 LINE",
"228 592 LINE",
"228 471 LINE",
"181 493 OFFCURVE",
"119 504 OFFCURVE",
"62 501 CURVE",
"62 378 LINE",
"158 378 LINE",
"158 417 LINE",
"182 419 OFFCURVE",
"204 414 OFFCURVE",
"228 402 CURVE",
"228 349 LINE",
"324 349 LINE",
"324 592 LINE",
"394 592 LINE",
"394 295 LINE"
);
}
);
};
components = (
{
name = _part_foot_down;
transform = "{1, 0, 0, 1, 32, 62}";
},
{
name = _part_foot_down;
transform = "{1, 0, 0, 1, 198, 62}";
},
{
name = _part_foot_down;
transform = "{1, 0, 0, 1, 364, 62}";
}
);
layerId = "ED431E08-AC8B-437A-B6FF-0CB6DE95D18E";
name = FootShape;
paths = (
{
closed = 1;
nodes = (
"490 236 LINE",
"490 678 LINE",
"62 678 LINE",
"62 592 LINE",
"228 592 LINE",
"228 471 LINE",
"181 493 OFFCURVE",
"119 504 OFFCURVE",
"62 501 CURVE",
"62 236 LINE",
"158 236 LINE",
"158 417 LINE",
"182 419 OFFCURVE",
"204 414 OFFCURVE",
"228 402 CURVE",
"228 236 LINE",
"324 236 LINE",
"324 592 LINE",
"394 592 LINE",
"394 236 LINE"
);
}
);
userData = {
PartSelection = {
FootShape = 2;
};
};
width = 550;
},
{
anchors = (
{
name = bottom;
position = "{273, 78}";
},
{
name = connect;
position = "{490, 678}";
},
{
name = top;
position = "{272, 718}";
},
{
name = wa_ra;
position = "{444, 178}";
}
);
associatedMasterId = "76B3AF2C-89AC-4CB1-B1C9-F754B2D43151";
components = (
{
name = _part_foot_down;
piece = {
Flatness = 1;
};
transform = "{1, 0, 0, 1, 32, -138}";
},
{
name = _part_foot_down;
piece = {
Flatness = 1;
};
transform = "{1, 0, 0, 1, 198, 62}";
},
{
name = _part_foot_down;
piece = {
Flatness = 1;
};
transform = "{1, 0, 0, 1, 364, 62}";
}
);
layerId = "6F8ED4EC-C071-45E2-8024-939631AD03CF";
name = LeftLegHeight;
paths = (
{
closed = 1;
nodes = (
"490 236 LINE",
"490 678 LINE",
"62 678 LINE",
"62 592 LINE",
"228 592 LINE",
"228 471 LINE",
"181 493 OFFCURVE",
"119 504 OFFCURVE",
"62 501 CURVE",
"62 36 LINE",
"158 36 LINE",
"158 417 LINE",
"182 419 OFFCURVE",
"204 414 OFFCURVE",
"228 402 CURVE",
"228 236 LINE",
"324 236 LINE",
"324 592 LINE",
"394 592 LINE",
"394 236 LINE"
);
}
);
userData = {
PartSelection = {
LeftLegHeight = 2;
};
};
width = 550;
},
{
anchors = (
{
name = bottom;
position = "{273, 78}";
},
{
name = connect;
position = "{490, 678}";
},
{
name = top;
position = "{272, 718}";
},
{
name = wa_ra;
position = "{444, 178}";
}
);
associatedMasterId = "76B3AF2C-89AC-4CB1-B1C9-F754B2D43151";
components = (
{
name = _part_foot_down;
piece = {
Flatness = 1;
};
transform = "{1, 0, 0, 1, 32, 62}";
},
{
name = _part_foot_down;
piece = {
Flatness = 1;
};
transform = "{1, 0, 0, 1, 198, -138}";
},
{
name = _part_foot_down;
piece = {
Flatness = 1;
};
transform = "{1, 0, 0, 1, 364, 62}";
}
);
layerId = "35C40020-13AE-492A-B15A-53EC94619594";
name = MiddleLegHeight;
paths = (
{
closed = 1;
nodes = (
"490 236 LINE",
"490 678 LINE",
"62 678 LINE",
"62 592 LINE",
"228 592 LINE",
"228 471 LINE",
"181 493 OFFCURVE",
"119 504 OFFCURVE",
"62 501 CURVE",
"62 236 LINE",
"158 236 LINE",
"158 417 LINE",
"182 419 OFFCURVE",
"204 414 OFFCURVE",
"228 402 CURVE",
"228 36 LINE",
"324 36 LINE",
"324 592 LINE",
"394 592 LINE",
"394 236 LINE"
);
}
);
userData = {
PartSelection = {
MiddleLegHeight = 2;
};
};
width = 550;
},
{
anchors = (
{
name = bottom;
position = "{273, 78}";
},
{
name = connect;
position = "{490, 678}";
},
{
name = top;
position = "{272, 718}";
},
{
name = wa_ra;
position = "{444, 178}";
}
);
associatedMasterId = "76B3AF2C-89AC-4CB1-B1C9-F754B2D43151";
components = (
{
name = _part_foot_down;
piece = {
Flatness = 1;
};
transform = "{1, 0, 0, 1, 32, 62}";
},
{
name = _part_foot_down;
piece = {
Flatness = 1;
};
transform = "{1, 0, 0, 1, 198, 62}";
},
{
name = _part_foot_down;
piece = {
Flatness = 1;
};
transform = "{1, 0, 0, 1, 364, -138}";
}
);
layerId = "DE9C83A8-F35C-4099-BE91-033DFD9CACE0";
name = RightLegHeight;
paths = (
{
closed = 1;
nodes = (
"490 36 LINE",
"490 678 LINE",
"62 678 LINE",
"62 592 LINE",
"228 592 LINE",
"228 471 LINE",
"181 493 OFFCURVE",
"119 504 OFFCURVE",
"62 501 CURVE",
"62 236 LINE",
"158 236 LINE",
"158 417 LINE",
"182 419 OFFCURVE",
"204 414 OFFCURVE",
"228 402 CURVE",
"228 236 LINE",
"324 236 LINE",
"324 592 LINE",
"394 592 LINE",
"394 36 LINE"
);
}
);
userData = {
PartSelection = {
RightLegHeight = 2;
};
};
width = 550;
},
{
anchors = (
{
name = bottom;
position = "{273, 78}";
},
{
name = connect;
position = "{490, 678}";
},
{
name = top;
position = "{272, 718}";
},
{
name = wa_ra;
position = "{444, 178}";
}
);
associatedMasterId = "76B3AF2C-89AC-4CB1-B1C9-F754B2D43151";
background = {
components = (
{
name = _part_foot_down;
piece = {
Flatness = 1;
Short = 100;
};
transform = "{1, 0, 0, 1, 32, 219}";
},
{
name = _part_foot_down;
piece = {
Flatness = 1;
Short = 100;
};
transform = "{1, 0, 0, 1, 198, 152}";
},
{
name = _part_foot_down;
piece = {
Flatness = 1;
Short = 100;
};
transform = "{1, 0, 0, 1, 364, 110}";
}
);
paths = (
{
closed = 1;
nodes = (
"490 295 LINE",
"490 678 LINE",
"62 678 LINE",
"44 592 LINE",
"228 592 LINE",
"228 471 LINE",
"181 493 OFFCURVE",
"119 504 OFFCURVE",
"62 501 CURVE",
"62 378 LINE",
"158 378 LINE",
"158 417 LINE",
"182 419 OFFCURVE",
"204 414 OFFCURVE",
"228 402 CURVE",
"228 349 LINE",
"324 349 LINE",
"324 592 LINE",
"394 592 LINE",
"394 295 LINE"
);
}
);
};
components = (
{
name = _part_foot_down;
piece = {
Flatness = 1;
};
transform = "{1, 0, 0, 1, 32, 62}";
},
{
name = _part_foot_down;
piece = {
Flatness = 1;
};
transform = "{1, 0, 0, 1, 198, 62}";
},
{
name = _part_foot_down;
piece = {
Flatness = 1;
};
transform = "{1, 0, 0, 1, 364, 62}";
}
);
layerId = "73A9FA2D-D436-468B-983B-493E954AB665";
name = HeadlineSlant;
paths = (
{
closed = 1;
nodes = (
"490 236 LINE",
"490 678 LINE",
"62 678 LINE",
"44 592 LINE",
"228 592 LINE",
"228 471 LINE",
"181 493 OFFCURVE",
"119 504 OFFCURVE",
"62 501 CURVE",
"62 236 LINE",
"158 236 LINE",
"158 417 LINE",
"182 419 OFFCURVE",
"204 414 OFFCURVE",
"228 402 CURVE",
"228 236 LINE",
"324 236 LINE",
"324 592 LINE",
"394 592 LINE",
"394 236 LINE"
);
}
);
userData = {
PartSelection = {
HeadlineSlant = 2;
};
};
width = 550;
},
{
anchors = (
{
name = bottom;
position = "{273, 78}";
},
{
name = connect;
position = "{570, 678}";
},
{
name = top;
position = "{317, 718}";
},
{
name = wa_ra;
position = "{524, 178}";
}
);
associatedMasterId = "76B3AF2C-89AC-4CB1-B1C9-F754B2D43151";
background = {
components = (
{
name = _part_foot_down;
piece = {
Flatness = 1;
Short = 100;
};
transform = "{1, 0, 0, 1, 32, 219}";
},
{
name = _part_foot_down;
piece = {
Flatness = 1;
Short = 100;
};
transform = "{1, 0, 0, 1, 238, 152}";
},
{
name = _part_foot_down;
piece = {
Flatness = 1;
Short = 100;
};
transform = "{1, 0, 0, 1, 444, 110}";
}
);
paths = (
{
closed = 1;
nodes = (
"570 295 LINE",
"570 678 LINE",
"62 678 LINE",
"62 592 LINE",
"268 592 LINE",
"268 471 LINE",
"221 493 OFFCURVE",
"119 504 OFFCURVE",
"62 501 CURVE",
"62 378 LINE",
"158 378 LINE",
"158 417 LINE",
"182 419 OFFCURVE",
"244 414 OFFCURVE",
"268 402 CURVE",
"268 349 LINE",
"364 349 LINE",
"364 592 LINE",
"474 592 LINE",
"474 295 LINE"
);
}
);
};
components = (
{
name = _part_foot_down;
piece = {
Flatness = 1;
};
transform = "{1, 0, 0, 1, 32, 62}";
},
{
name = _part_foot_down;
piece = {
Flatness = 1;
};
transform = "{1, 0, 0, 1, 238, 62}";
},
{
name = _part_foot_down;
piece = {
Flatness = 1;
};
transform = "{1, 0, 0, 1, 444, 62}";
}
);
layerId = "64B78AF7-BFC8-4274-B9B7-536A9D85B67C";
name = Wide;
paths = (
{
closed = 1;
nodes = (
"570 236 LINE",
"570 678 LINE",
"62 678 LINE",
"62 592 LINE",
"268 592 LINE",
"268 471 LINE",
"221 493 OFFCURVE",
"119 504 OFFCURVE",
"62 501 CURVE",
"62 236 LINE",
"158 236 LINE",
"158 417 LINE",
"182 419 OFFCURVE",
"244 414 OFFCURVE",
"268 402 CURVE",
"268 236 LINE",
"364 236 LINE",
"364 592 LINE",
"474 592 LINE",
"474 236 LINE"
);
}
);
userData = {
PartSelection = {
Width = 2;
};
};
width = 550;
}
);
partsSettings = (
{
name = LeftLegHeight;
bottomName = Low;
bottomValue = 0;
topName = High;
topValue = 400;
},
{
name = FootShape;
bottomName = Low;
bottomValue = 0;
topName = High;
topValue = 100;
},
{
name = HeadlineSlant;
bottomName = Low;
bottomValue = 0;
topName = High;
topValue = 100;
},
{
name = Width;
bottomName = Low;
bottomValue = 0;
topName = High;
topValue = 200;
},
{
name = MiddleLegHeight;
bottomName = Low;
bottomValue = 0;
topName = High;
topValue = 400;
},
{
name = RightLegHeight;
bottomName = Low;
bottomValue = 0;
topName = High;
topValue = 400;
}
);
},
{
export = 0;
glyphname = _part_kha;
lastChange = "2017-12-20 17:32:06 +0000";
layers = (
{
anchors = (
{
name = bottom;
position = "{283, 78}";
},
{
name = connect;
position = "{489, 678}";
},
{
name = top;
position = "{274, 718}";
},
{
name = wa_ra;
position = "{442, 160}";
}
);
components = (
{
name = _part_foot_down;
piece = {
Flatness = 1;
};
transform = "{1, 0, 0, 1, 38, 0}";
},
{
name = _part_foot_wide;
transform = "{1, 0, 0, 1, 187, -77}";
}
);
layerId = "76B3AF2C-89AC-4CB1-B1C9-F754B2D43151";
paths = (
{
closed = 1;
nodes = (
"489 678 LINE",
"68 678 LINE",
"68 592 LINE",
"234 592 LINE",
"234 522 LINE",
"68 522 LINE",
"68 231 LINE",
"164 231 LINE",
"164 436 LINE",
"234 436 LINE",
"234 364 LINE",
"330 364 LINE",
"330 436 LINE",
"489 436 LINE",
"489 522 LINE",
"330 522 LINE",
"330 592 LINE",
"489 592 LINE"
);
}
);
userData = {
PartSelection = {
FootShape = 1;
HeadlineSlant = 1;
Height = 1;
LeftLegHeight = 1;
RightLegHeight = 1;
RightLegNarrow = 1;
};
};
width = 566;
},
{
anchors = (
{
name = bottom;
position = "{283, 78}";
},
{
name = connect;
position = "{509, 678}";
},
{
name = top;
position = "{274, 718}";
},
{
name = wa_ra;
position = "{442, 160}";
}
);
associatedMasterId = "76B3AF2C-89AC-4CB1-B1C9-F754B2D43151";
components = (
{
name = _part_foot_down;
piece = {
Flatness = 1;
};
transform = "{1, 0, 0, 1, 38, 0}";
},
{
name = _part_foot_wide;
transform = "{1, 0, 0, 1, 187, -77}";
}
);
layerId = "AF0DC56D-A45C-4287-8E78-35531ADF947F";
name = HeadlineSlant;
paths = (
{
closed = 1;
nodes = (
"489 592 LINE",
"509 678 LINE",
"80 678 LINE",
"60 592 LINE",
"234 592 LINE",
"234 522 LINE",
"68 522 LINE",
"68 231 LINE",
"164 231 LINE",
"164 436 LINE",
"234 436 LINE",
"234 364 LINE",
"330 364 LINE",
"330 436 LINE",
"476 436 LINE",
"496 522 LINE",
"330 522 LINE",
"330 592 LINE"
);
}
);
userData = {
PartSelection = {
HeadlineSlant = 2;
};
};
width = 566;
},
{
anchors = (
{
name = bottom;
position = "{283, 141}";
},
{
name = connect;
position = "{489, 678}";
},
{
name = top;
position = "{274, 718}";
},
{
name = wa_ra;
position = "{442, 223}";
}
);
associatedMasterId = "76B3AF2C-89AC-4CB1-B1C9-F754B2D43151";
components = (
{
name = _part_foot_down;
piece = {
Flatness = 1;
};
transform = "{1, 0, 0, 1, 38, 60}";
},
{
name = _part_foot_wide;
piece = {
Height = 0;
};
transform = "{1, 0, 0, 1, 187, -17}";
}
);
layerId = "6701003E-320E-4897-B77E-BC2CAF8A151C";
name = Height;
paths = (
{
closed = 1;
nodes = (
"489 678 LINE",
"68 678 LINE",
"68 592 LINE",
"234 592 LINE",
"234 522 LINE",
"68 522 LINE",
"68 301 LINE",
"164 301 LINE",
"164 436 LINE",
"234 436 LINE",
"234 384 LINE",
"330 384 LINE",
"330 436 LINE",
"489 436 LINE",
"489 522 LINE",
"330 522 LINE",
"330 592 LINE",
"489 592 LINE"
);
}
);
userData = {
PartSelection = {
Height = 2;
};
};
width = 566;
},
{
anchors = (
{
name = bottom;
position = "{283, 78}";
},
{
name = connect;
position = "{489, 678}";
},
{
name = top;
position = "{274, 718}";
},
{
name = wa_ra;
position = "{442, 160}";
}
);
associatedMasterId = "76B3AF2C-89AC-4CB1-B1C9-F754B2D43151";
components = (
{
name = _part_foot_down;
piece = {
Flatness = 1;
};
transform = "{1, 0, 0, 1, 38, -500}";
},
{
name = _part_foot_wide;
transform = "{1, 0, 0, 1, 187, -77}";
}
);
layerId = "2D0073DC-82DC-4788-8076-75547C8A2EA9";
name = LeftLegHeight;
paths = (
{
closed = 1;
nodes = (
"489 678 LINE",
"68 678 LINE",
"68 592 LINE",
"234 592 LINE",
"234 522 LINE",
"68 522 LINE",
"68 -269 LINE",
"164 -269 LINE",
"164 436 LINE",
"234 436 LINE",
"234 364 LINE",
"330 364 LINE",
"330 436 LINE",
"489 436 LINE",
"489 522 LINE",
"330 522 LINE",
"330 592 LINE",
"489 592 LINE"
);
}
);
userData = {
PartSelection = {
LeftLegHeight = 2;
};
};
width = 566;
},
{
anchors = (
{
name = bottom;
position = "{283, 78}";
},
{
name = connect;
position = "{489, 678}";
},
{
name = top;
position = "{274, 718}";
},
{
name = wa_ra;
position = "{442, 160}";
}
);
associatedMasterId = "76B3AF2C-89AC-4CB1-B1C9-F754B2D43151";
components = (
{
name = _part_foot_down;
transform = "{1, 0, 0, 1, 38, 0}";
},
{
name = _part_foot_wide;
transform = "{1, 0, 0, 1, 187, -77}";
}
);
layerId = "D7D003E3-29E0-4FEB-803E-B283DA689B05";
name = FootShape;
paths = (
{
closed = 1;
nodes = (
"489 678 LINE",
"68 678 LINE",
"68 592 LINE",
"234 592 LINE",
"234 522 LINE",
"68 522 LINE",
"68 231 LINE",
"164 231 LINE",
"164 436 LINE",
"234 436 LINE",
"234 364 LINE",
"330 364 LINE",
"330 436 LINE",
"489 436 LINE",
"489 522 LINE",
"330 522 LINE",
"330 592 LINE",
"489 592 LINE"
);
}
);
userData = {
PartSelection = {
FootShape = 2;
};
};
width = 566;
},
{
anchors = (
{
name = bottom;
position = "{283, -324}";
},
{
name = connect;
position = "{489, 678}";
},
{
name = top;
position = "{274, 718}";
},
{
name = wa_ra;
position = "{442, -240}";
}
);
associatedMasterId = "76B3AF2C-89AC-4CB1-B1C9-F754B2D43151";
components = (
{
name = _part_foot_down;
piece = {
Flatness = 1;
};
transform = "{1, 0, 0, 1, 38, 0}";
},
{
name = _part_foot_wide;
transform = "{1, 0, 0, 1, 187, -477}";
}
);
layerId = "723CAABF-3FC7-4E99-A371-D8883B56E092";
name = RightLegHeight;
paths = (
{
closed = 1;
nodes = (
"489 678 LINE",
"68 678 LINE",
"68 592 LINE",
"234 592 LINE",
"234 522 LINE",
"68 522 LINE",
"68 231 LINE",
"164 231 LINE",
"164 436 LINE",
"234 436 LINE",
"234 -36 LINE",
"330 -36 LINE",
"330 436 LINE",
"489 436 LINE",
"489 522 LINE",
"330 522 LINE",
"330 592 LINE",
"489 592 LINE"
);
}
);
userData = {
PartSelection = {
RightLegHeight = 2;
};
};
width = 566;
},
{
anchors = (
{
name = bottom;
position = "{283, 78}";
},
{
name = connect;
position = "{489, 678}";
},
{
name = top;
position = "{274, 718}";
},
{
name = wa_ra;
position = "{442, 160}";
}
);
associatedMasterId = "76B3AF2C-89AC-4CB1-B1C9-F754B2D43151";
components = (
{
name = _part_foot_down;
piece = {
Flatness = 1;
};
transform = "{1, 0, 0, 1, 38, 0}";
},
{
name = _part_foot_wide;
piece = {
Width = 0;
};
transform = "{1, 0, 0, 1, 187, -77}";
}
);
layerId = "C4596E30-AA66-483D-9F0A-B4101AE66AC1";
name = RightFootNarrow;
paths = (
{
closed = 1;
nodes = (
"489 678 LINE",
"68 678 LINE",
"68 592 LINE",
"234 592 LINE",
"234 522 LINE",
"68 522 LINE",
"68 231 LINE",
"164 231 LINE",
"164 436 LINE",
"234 436 LINE",
"234 364 LINE",
"330 364 LINE",
"330 436 LINE",
"489 436 LINE",
"489 522 LINE",
"330 522 LINE",
"330 592 LINE",
"489 592 LINE"
);
}
);
userData = {
PartSelection = {
RightLegNarrow = 2;
};
};
width = 566;
}
);
partsSettings = (
{
name = HeadlineSlant;
bottomName = Low;
bottomValue = 0;
topName = High;
topValue = 100;
},
{
name = Height;
bottomName = Low;
bottomValue = 0;
topName = High;
topValue = 200;
},
{
name = LeftLegHeight;
bottomName = Low;
bottomValue = 0;
topName = High;
topValue = 200;
},
{
name = FootShape;
bottomName = Low;
bottomValue = 0;
topName = High;
topValue = 1;
},
{
name = RightLegHeight;
bottomName = Low;
bottomValue = 0;
topName = High;
topValue = 400;
},
{
name = RightLegNarrow;
bottomName = Low;
bottomValue = 0;
topName = High;
topValue = 100;
}
);
},
{
export = 0;
glyphname = _part_la;
lastChange = "2017-12-20 17:32:07 +0000";
layers = (
{
anchors = (
{
name = bottom;
position = "{297, 141}";
},
{
name = connect;
position = "{536, 678}";
},
{
name = top;
position = "{298, 718}";
},
{
name = wa_ra;
position = "{491, 304}";
}
);
components = (
{
name = _part_foot_down;
piece = {
Flatness = 1;
};
transform = "{1, 0, 0, 1, 410, 62}";
}
);
layerId = "76B3AF2C-89AC-4CB1-B1C9-F754B2D43151";
paths = (
{
closed = 1;
nodes = (
"370 280 LINE",
"370 522 LINE",
"156 522 LINE",
"156 678 LINE",
"60 678 LINE",
"60 436 LINE",
"274 436 LINE",
"274 366 LINE",
"60 366 LINE",
"60 280 LINE"
);
},
{
closed = 1;
nodes = (
"536 238 LINE",
"536 678 LINE",
"226 678 LINE",
"226 490 LINE",
"322 490 LINE",
"322 592 LINE",
"440 592 LINE",
"440 238 LINE"
);
}
);
userData = {
PartSelection = {
FootShape = 1;
Height = 2;
Narrow = 1;
RightLegHeight = 1;
TopSlant = 1;
Wide = 1;
};
};
width = 591;
},
{
anchors = (
{
name = bottom;
position = "{297, 141}";
},
{
name = connect;
position = "{536, 678}";
},
{
name = top;
position = "{298, 718}";
},
{
name = wa_ra;
position = "{491, 304}";
}
);
associatedMasterId = "76B3AF2C-89AC-4CB1-B1C9-F754B2D43151";
background = {
paths = (
{
closed = 1;
nodes = (
"370 280 LINE",
"370 522 LINE",
"156 522 LINE",
"156 668 LINE",
"131 694 OFFCURVE",
"98 708 OFFCURVE",
"60 708 CURVE",
"60 436 LINE",
"274 436 LINE",
"274 366 LINE",
"60 366 LINE",
"60 280 LINE"
);
},
{
closed = 1;
nodes = (
"536 198 LINE",
"536 678 LINE",
"226 678 LINE",
"226 490 LINE",
"322 490 LINE",
"322 592 LINE",
"440 592 LINE",
"440 198 LINE"
);
}
);
};
components = (
{
name = _part_foot_down;
piece = {
Flatness = 1;
};
transform = "{1, 0, 0, 1, 410, 62}";
}
);
layerId = "968D0B6D-2900-4A29-A898-832AFF3D7FB6";
name = TopSlant;
paths = (
{
closed = 1;
nodes = (
"370 280 LINE",
"370 522 LINE",
"156 522 LINE",
"156 668 LINE",
"60 708 LINE",
"60 436 LINE",
"274 436 LINE",
"274 366 LINE",
"60 366 LINE",
"60 280 LINE"
);
},
{
closed = 1;
nodes = (
"536 238 LINE",
"536 678 LINE",
"226 678 LINE",
"226 490 LINE",
"322 490 LINE",
"322 592 LINE",
"440 592 LINE",
"440 238 LINE"
);
}
);
userData = {
PartSelection = {
TopSlant = 2;
};
};
width = 591;
},
{
anchors = (
{
name = bottom;
position = "{297, 141}";
},
{
name = connect;
position = "{536, 678}";
},
{
name = top;
position = "{298, 718}";
},
{
name = wa_ra;
position = "{491, 304}";
}
);
associatedMasterId = "76B3AF2C-89AC-4CB1-B1C9-F754B2D43151";
background = {
components = (
{
name = _part_foot_down;
transform = "{1, 0, 0, 1, 410, 201}";
}
);
paths = (
{
closed = 1;
nodes = (
"370 280 LINE",
"370 522 LINE",
"156 522 LINE",
"156 678 LINE",
"130 678 OFFCURVE",
"95 678 OFFCURVE",
"60 678 CURVE",
"60 436 LINE",
"274 436 LINE",
"274 366 LINE",
"60 366 LINE",
"60 280 LINE"
);
},
{
closed = 1;
nodes = (
"536 280 LINE",
"536 678 LINE",
"226 678 LINE",
"226 490 LINE",
"322 490 LINE",
"322 592 LINE",
"440 592 LINE",
"440 280 LINE"
);
}
);
};
components = (
{
name = _part_foot_down;
piece = {
Flatness = 1;
};
transform = "{1, 0, 0, 1, 410, 201}";
}
);
layerId = "74FA676F-06B6-4905-805A-B9CF666A01FD";
name = Height;
paths = (
{
closed = 1;
nodes = (
"370 280 LINE",
"370 522 LINE",
"156 522 LINE",
"156 678 LINE",
"60 678 LINE",
"60 436 LINE",
"274 436 LINE",
"274 366 LINE",
"60 366 LINE",
"60 280 LINE"
);
},
{
closed = 1;
nodes = (
"536 377 LINE",
"536 678 LINE",
"226 678 LINE",
"226 490 LINE",
"322 490 LINE",
"322 592 LINE",
"440 592 LINE",
"440 377 LINE"
);
}
);
userData = {
PartSelection = {
Height = 1;
};
};
width = 591;
},
{
anchors = (
{
name = bottom;
position = "{297, 141}";
},
{
name = connect;
position = "{536, 678}";
},
{
name = top;
position = "{298, 718}";
},
{
name = wa_ra;
position = "{491, 304}";
}
);
associatedMasterId = "76B3AF2C-89AC-4CB1-B1C9-F754B2D43151";
components = (
{
name = _part_foot_down;
transform = "{1, 0, 0, 1, 410, 62}";
}
);
layerId = "C67628EF-4089-4FA0-A328-5809D8C660BC";
name = FootShape;
paths = (
{
closed = 1;
nodes = (
"370 280 LINE",
"370 522 LINE",
"156 522 LINE",
"156 678 LINE",
"60 678 LINE",
"60 436 LINE",
"274 436 LINE",
"274 366 LINE",
"60 366 LINE",
"60 280 LINE"
);
},
{
closed = 1;
nodes = (
"536 238 LINE",
"536 678 LINE",
"226 678 LINE",
"226 490 LINE",
"322 490 LINE",
"322 592 LINE",
"440 592 LINE",
"440 238 LINE"
);
}
);
userData = {
PartSelection = {
FootShape = 2;
};
};
width = 591;
},
{
anchors = (
{
name = bottom;
position = "{297, 141}";
},
{
name = connect;
position = "{516, 678}";
},
{
name = top;
position = "{298, 718}";
},
{
name = wa_ra;
position = "{471, 304}";
}
);
associatedMasterId = "76B3AF2C-89AC-4CB1-B1C9-F754B2D43151";
background = {
paths = (
{
closed = 1;
nodes = (
"360 280 LINE",
"360 522 LINE",
"166 522 LINE",
"166 678 LINE",
"140 678 OFFCURVE",
"105 678 OFFCURVE",
"70 678 CURVE",
"70 436 LINE",
"264 436 LINE",
"264 366 LINE",
"70 366 LINE",
"70 280 LINE"
);
},
{
closed = 1;
nodes = (
"506 198 LINE",
"506 678 LINE",
"216 678 LINE",
"216 490 LINE",
"312 490 LINE",
"312 592 LINE",
"410 592 LINE",
"410 198 LINE"
);
}
);
};
components = (
{
name = _part_foot_down;
piece = {
Flatness = 1;
};
transform = "{1, 0, 0, 1, 390, 62}";
}
);
layerId = "93F49BFC-CCEB-4D9D-943E-CCF989D95A04";
name = Narrow;
paths = (
{
closed = 1;
nodes = (
"370 280 LINE",
"370 522 LINE",
"156 522 LINE",
"156 678 LINE",
"60 678 LINE",
"60 436 LINE",
"274 436 LINE",
"274 366 LINE",
"60 366 LINE",
"60 280 LINE"
);
},
{
closed = 1;
nodes = (
"516 238 LINE",
"516 678 LINE",
"216 678 LINE",
"216 490 LINE",
"312 490 LINE",
"312 592 LINE",
"420 592 LINE",
"420 238 LINE"
);
}
);
userData = {
PartSelection = {
Narrow = 2;
};
};
width = 591;
},
{
anchors = (
{
name = bottom;
position = "{297, 141}";
},
{
name = connect;
position = "{596, 678}";
},
{
name = top;
position = "{328, 718}";
},
{
name = wa_ra;
position = "{551, 304}";
}
);
associatedMasterId = "76B3AF2C-89AC-4CB1-B1C9-F754B2D43151";
background = {
paths = (
{
closed = 1;
nodes = (
"430 280 LINE",
"430 522 LINE",
"156 522 LINE",
"156 678 LINE",
"130 678 OFFCURVE",
"95 678 OFFCURVE",
"60 678 CURVE",
"60 436 LINE",
"334 436 LINE",
"334 366 LINE",
"60 366 LINE",
"60 280 LINE"
);
},
{
closed = 1;
nodes = (
"596 198 LINE",
"596 678 LINE",
"226 678 LINE",
"226 490 LINE",
"322 490 LINE",
"322 592 LINE",
"500 592 LINE",
"500 198 LINE"
);
}
);
};
components = (
{
name = _part_foot_down;
piece = {
Flatness = 1;
};
transform = "{1, 0, 0, 1, 470, 62}";
}
);
layerId = "A53EA424-E713-4805-BD7B-0D061A90F206";
name = Wide;
paths = (
{
closed = 1;
nodes = (
"430 280 LINE",
"430 522 LINE",
"156 522 LINE",
"156 678 LINE",
"60 678 LINE",
"60 436 LINE",
"334 436 LINE",
"334 366 LINE",
"60 366 LINE",
"60 280 LINE"
);
},
{
closed = 1;
nodes = (
"596 238 LINE",
"596 678 LINE",
"226 678 LINE",
"226 490 LINE",
"322 490 LINE",
"322 592 LINE",
"500 592 LINE",
"500 238 LINE"
);
}
);
userData = {
PartSelection = {
Wide = 2;
};
};
width = 591;
},
{
anchors = (
{
name = bottom;
position = "{297, 141}";
},
{
name = connect;
position = "{536, 678}";
},
{
name = top;
position = "{298, 718}";
},
{
name = wa_ra;
position = "{491, 104}";
}
);
associatedMasterId = "76B3AF2C-89AC-4CB1-B1C9-F754B2D43151";
components = (
{
name = _part_foot_down;
piece = {
Flatness = 1;
};
transform = "{1, 0, 0, 1, 410, -138}";
}
);
layerId = "9F61794E-4085-4915-B135-CC175CFFBBD5";
name = RightLegHeight;
paths = (
{
closed = 1;
nodes = (
"370 280 LINE",
"370 522 LINE",
"156 522 LINE",
"156 678 LINE",
"60 678 LINE",
"60 436 LINE",
"274 436 LINE",
"274 366 LINE",
"60 366 LINE",
"60 280 LINE"
);
},
{
closed = 1;
nodes = (
"536 68 LINE",
"536 678 LINE",
"226 678 LINE",
"226 490 LINE",
"322 490 LINE",
"322 592 LINE",
"440 592 LINE",
"440 68 LINE"
);
}
);
userData = {
PartSelection = {
RightLegHeight = 2;
};
};
width = 591;
}
);
partsSettings = (
{
name = TopSlant;
bottomName = Low;
bottomValue = 0;
topName = High;
topValue = 100;
},
{
name = Height;
bottomName = Low;
bottomValue = 0;
topName = High;
topValue = 200;
},
{
name = FootShape;
bottomName = Low;
bottomValue = 0;
topName = High;
topValue = 1;
},
{
name = Wide;
bottomName = Low;
bottomValue = 0;
topName = High;
topValue = 200;
},
{
name = Narrow;
bottomName = Low;
bottomValue = 0;
topName = High;
topValue = 200;
},
{
name = RightLegHeight;
bottomName = Low;
bottomValue = 0;
topName = High;
topValue = 300;
}
);
},
{
export = 0;
glyphname = _part_longi;
lastChange = "2017-12-20 17:32:07 +0000";
layers = (
{
anchors = (
{
name = HeadStretch;
position = "{88, 669}";
}
);
background = {
paths = (
{
closed = 1;
nodes = (
"-118 219 LINE",
"-118 717 LINE SMOOTH",
"-118 768 OFFCURVE",
"-105 797 OFFCURVE",
"-67 797 CURVE SMOOTH",
"-5 797 OFFCURVE",
"76 723 OFFCURVE",
"112 669 CURVE",
"144 669 LINE",
"103 751 OFFCURVE",
"6 869 OFFCURVE",
"-93 869 CURVE SMOOTH",
"-166 869 OFFCURVE",
"-214 808 OFFCURVE",
"-214 714 CURVE SMOOTH",
"-214 219 LINE"
);
}
);
};
components = (
{
name = _part_foot_down;
transform = "{1, 0, 0, 1, -244, 0}";
}
);
layerId = "76B3AF2C-89AC-4CB1-B1C9-F754B2D43151";
paths = (
{
closed = 1;
nodes = (
"-118 219 LINE",
"-118 717 LINE SMOOTH",
"-118 768 OFFCURVE",
"-105 797 OFFCURVE",
"-67 797 CURVE SMOOTH",
"-5 797 OFFCURVE",
"46 723 OFFCURVE",
"72 669 CURVE",
"104 669 LINE",
"73 751 OFFCURVE",
"6 869 OFFCURVE",
"-93 869 CURVE SMOOTH",
"-166 869 OFFCURVE",
"-214 808 OFFCURVE",
"-214 714 CURVE SMOOTH",
"-214 219 LINE"
);
}
);
userData = {
PartSelection = {
HeadStretch = 1;
Height = 1;
};
};
width = 0;
},
{
anchors = (
{
name = HeadStretch;
position = "{88, 669}";
}
);
associatedMasterId = "76B3AF2C-89AC-4CB1-B1C9-F754B2D43151";
background = {
paths = (
{
closed = 1;
nodes = (
"-118 -478 LINE",
"-118 717 LINE SMOOTH",
"-118 768 OFFCURVE",
"-108 797 OFFCURVE",
"-73 797 CURVE SMOOTH",
"-8 797 OFFCURVE",
"76 723 OFFCURVE",
"112 669 CURVE",
"144 669 LINE",
"103 751 OFFCURVE",
"-4 869 OFFCURVE",
"-87 869 CURVE SMOOTH",
"-176 869 OFFCURVE",
"-214 808 OFFCURVE",
"-214 714 CURVE SMOOTH",
"-214 -439 LINE"
);
}
);
};
components = (
{
name = _part_foot_down;
transform = "{1, 0, 0, 1, -244, -557}";
}
);
layerId = "E4F57B49-2811-4149-9C5E-CFAD87BD0FCE";
name = High;
paths = (
{
closed = 1;
nodes = (
"-118 -312 LINE",
"-118 717 LINE SMOOTH",
"-118 768 OFFCURVE",
"-105 797 OFFCURVE",
"-67 797 CURVE SMOOTH",
"-5 797 OFFCURVE",
"46 723 OFFCURVE",
"72 669 CURVE",
"104 669 LINE",
"73 751 OFFCURVE",
"6 869 OFFCURVE",
"-93 869 CURVE SMOOTH",
"-166 869 OFFCURVE",
"-214 808 OFFCURVE",
"-214 714 CURVE SMOOTH",
"-214 -312 LINE"
);
}
);
userData = {
PartSelection = {
Height = 2;
};
};
width = 0;
},
{
anchors = (
{
name = HeadStretch;
position = "{188, 669}";
}
);
associatedMasterId = "76B3AF2C-89AC-4CB1-B1C9-F754B2D43151";
components = (
{
name = _part_foot_down;
transform = "{1, 0, 0, 1, -244, 0}";
}
);
layerId = "DA0CEB4F-D563-41A1-AFB0-16706F313E46";
name = HeadStretch;
paths = (
{
closed = 1;
nodes = (
"-118 219 LINE",
"-118 717 LINE SMOOTH",
"-118 768 OFFCURVE",
"-105 797 OFFCURVE",
"-42 797 CURVE SMOOTH",
"55 797 OFFCURVE",
"136 723 OFFCURVE",
"172 669 CURVE",
"204 669 LINE",
"163 751 OFFCURVE",
"66 869 OFFCURVE",
"-73 869 CURVE SMOOTH",
"-166 869 OFFCURVE",
"-214 808 OFFCURVE",
"-214 714 CURVE SMOOTH",
"-214 219 LINE"
);
}
);
userData = {
PartSelection = {
HeadStretch = 2;
};
};
width = 0;
}
);
partsSettings = (
{
name = Height;
bottomName = Low;
bottomValue = 0;
topName = High;
topValue = 300;
},
{
name = HeadStretch;
bottomName = Low;
bottomValue = 0;
topName = High;
topValue = 300;
}
);
},
{
export = 0;
glyphname = _part_ma;
lastChange = "2017-12-20 17:32:07 +0000";
layers = (
{
anchors = (
{
name = bottom;
position = "{267, 78}";
},
{
name = connect;
position = "{513, 678}";
},
{
name = top;
position = "{290, 718}";
},
{
name = wa_ra;
position = "{468, 241}";
}
);
components = (
{
name = _part_foot_down;
piece = {
Flatness = 1;
};
transform = "{1, 0, 0, 1, 387, 63}";
}
);
layerId = "76B3AF2C-89AC-4CB1-B1C9-F754B2D43151";
paths = (
{
closed = 1;
nodes = (
"347 142 LINE",
"347 372 LINE",
"154 372 LINE",
"154 442 LINE",
"347 442 LINE",
"347 522 LINE",
"68 522 LINE",
"68 292 LINE",
"261 292 LINE",
"261 222 LINE",
"68 222 LINE",
"68 142 LINE"
);
},
{
closed = 1;
nodes = (
"274 508 LINE",
"274 645 LINE",
"178 645 LINE",
"178 508 LINE"
);
},
{
closed = 1;
nodes = (
"513 213 LINE",
"513 678 LINE",
"68 678 LINE",
"68 592 LINE",
"417 592 LINE",
"417 213 LINE"
);
}
);
userData = {
PartSelection = {
FootShape = 1;
HeadlineSlant = 1;
RightLegHeight = 1;
Width = 1;
};
};
width = 563;
},
{
anchors = (
{
name = bottom;
position = "{267, 78}";
},
{
name = connect;
position = "{513, 678}";
},
{
name = top;
position = "{290, 718}";
},
{
name = wa_ra;
position = "{468, 241}";
}
);
associatedMasterId = "76B3AF2C-89AC-4CB1-B1C9-F754B2D43151";
background = {
components = (
{
name = _part_foot_down;
transform = "{1, 0, 0, 1, 387, 0}";
}
);
paths = (
{
closed = 1;
nodes = (
"347 142 LINE",
"347 372 LINE",
"153 372 LINE",
"153 442 LINE",
"337 442 LINE",
"357 522 LINE",
"68 522 LINE",
"68 292 LINE",
"260 292 LINE",
"260 222 LINE",
"68 222 LINE",
"68 142 LINE"
);
},
{
closed = 1;
nodes = (
"274 508 LINE",
"274 645 LINE",
"178 645 LINE",
"178 508 LINE"
);
},
{
closed = 1;
nodes = (
"513 213 LINE",
"513 678 LINE",
"68 678 LINE",
"50 592 LINE",
"417 592 LINE",
"417 213 LINE"
);
}
);
};
components = (
{
name = _part_foot_down;
piece = {
Flatness = 1;
};
transform = "{1, 0, 0, 1, 387, 63}";
}
);
layerId = "5D8C6422-A049-4D03-9EA5-2441B288EDC1";
name = HeadlineSlant;
paths = (
{
closed = 1;
nodes = (
"347 142 LINE",
"347 372 LINE",
"154 372 LINE",
"154 442 LINE",
"347 442 LINE",
"347 522 LINE",
"68 522 LINE",
"68 292 LINE",
"261 292 LINE",
"261 222 LINE",
"68 222 LINE",
"68 142 LINE"
);
},
{
closed = 1;
nodes = (
"274 508 LINE",
"274 645 LINE",
"178 645 LINE",
"178 508 LINE"
);
},
{
closed = 1;
nodes = (
"513 213 LINE",
"513 678 LINE",
"68 678 LINE",
"50 592 LINE",
"417 592 LINE",
"417 213 LINE"
);
}
);
userData = {
PartSelection = {
HeadlineSlant = 2;
};
};
width = 563;
},
{
anchors = (
{
name = bottom;
position = "{267, 78}";
},
{
name = connect;
position = "{573, 678}";
},
{
name = top;
position = "{320, 718}";
},
{
name = wa_ra;
position = "{528, 241}";
}
);
associatedMasterId = "76B3AF2C-89AC-4CB1-B1C9-F754B2D43151";
background = {
paths = (
{
closed = 1;
nodes = (
"367 142 LINE",
"367 372 LINE",
"153 372 LINE",
"153 442 LINE",
"357 442 LINE",
"377 522 LINE",
"68 522 LINE",
"68 292 LINE",
"280 292 LINE",
"280 222 LINE",
"68 222 LINE",
"68 142 LINE"
);
},
{
closed = 1;
nodes = (
"294 518 LINE",
"294 645 LINE",
"198 645 LINE",
"198 518 LINE"
);
},
{
closed = 1;
nodes = (
"553 213 LINE",
"553 678 LINE",
"68 678 LINE",
"68 592 LINE",
"457 592 LINE",
"457 213 LINE"
);
}
);
};
components = (
{
name = _part_foot_down;
piece = {
Flatness = 1;
};
transform = "{1, 0, 0, 1, 447, 63}";
}
);
layerId = "F4216A8D-3FCA-452C-AA20-06F99285B1C2";
name = Width;
paths = (
{
closed = 1;
nodes = (
"397 142 LINE",
"397 372 LINE",
"154 372 LINE",
"154 442 LINE",
"397 442 LINE",
"397 522 LINE",
"68 522 LINE",
"68 292 LINE",
"311 292 LINE",
"311 222 LINE",
"68 222 LINE",
"68 142 LINE"
);
},
{
closed = 1;
nodes = (
"304 508 LINE",
"304 645 LINE",
"208 645 LINE",
"208 508 LINE"
);
},
{
closed = 1;
nodes = (
"573 213 LINE",
"573 678 LINE",
"68 678 LINE",
"68 592 LINE",
"477 592 LINE",
"477 213 LINE"
);
}
);
userData = {
PartSelection = {
Width = 2;
};
};
width = 633;
},
{
anchors = (
{
name = bottom;
position = "{267, 78}";
},
{
name = connect;
position = "{513, 678}";
},
{
name = top;
position = "{290, 718}";
},
{
name = wa_ra;
position = "{468, 241}";
}
);
associatedMasterId = "76B3AF2C-89AC-4CB1-B1C9-F754B2D43151";
components = (
{
name = _part_foot_down;
transform = "{1, 0, 0, 1, 387, 63}";
}
);
layerId = "C55D470E-2E56-4604-86DF-2B34537C89CC";
name = FootShape;
paths = (
{
closed = 1;
nodes = (
"347 142 LINE",
"347 372 LINE",
"154 372 LINE",
"154 442 LINE",
"347 442 LINE",
"347 522 LINE",
"68 522 LINE",
"68 292 LINE",
"261 292 LINE",
"261 222 LINE",
"68 222 LINE",
"68 142 LINE"
);
},
{
closed = 1;
nodes = (
"274 508 LINE",
"274 645 LINE",
"178 645 LINE",
"178 508 LINE"
);
},
{
closed = 1;
nodes = (
"513 213 LINE",
"513 678 LINE",
"68 678 LINE",
"68 592 LINE",
"417 592 LINE",
"417 213 LINE"
);
}
);
userData = {
PartSelection = {
FootShape = 2;
};
};
width = 563;
},
{
anchors = (
{
name = bottom;
position = "{267, 78}";
},
{
name = connect;
position = "{513, 678}";
},
{
name = top;
position = "{290, 718}";
},
{
name = wa_ra;
position = "{468, 41}";
}
);
associatedMasterId = "76B3AF2C-89AC-4CB1-B1C9-F754B2D43151";
components = (
{
name = _part_foot_down;
piece = {
Flatness = 1;
};
transform = "{1, 0, 0, 1, 387, -237}";
}
);
layerId = "CD341466-BCC9-497C-A361-AEEB0C2166AC";
name = RightLegHeight;
paths = (
{
closed = 1;
nodes = (
"347 142 LINE",
"347 372 LINE",
"154 372 LINE",
"154 442 LINE",
"347 442 LINE",
"347 522 LINE",
"68 522 LINE",
"68 292 LINE",
"261 292 LINE",
"261 222 LINE",
"68 222 LINE",
"68 142 LINE"
);
},
{
closed = 1;
nodes = (
"274 508 LINE",
"274 645 LINE",
"178 645 LINE",
"178 508 LINE"
);
},
{
closed = 1;
nodes = (
"513 -87 LINE",
"513 678 LINE",
"68 678 LINE",
"68 592 LINE",
"417 592 LINE",
"417 -87 LINE"
);
}
);
userData = {
PartSelection = {
RightLegHeight = 2;
};
};
width = 563;
}
);
partsSettings = (
{
name = HeadlineSlant;
bottomName = Low;
bottomValue = 0;
topName = High;
topValue = 100;
},
{
name = Width;
bottomName = Low;
bottomValue = 0;
topName = High;
topValue = 400;
},
{
name = FootShape;
bottomName = Low;
bottomValue = 0;
topName = High;
topValue = 1;
},
{
name = RightLegHeight;
bottomName = Low;
bottomValue = 0;
topName = High;
topValue = 300;
}
);
},
{
export = 0;
glyphname = _part_na;
lastChange = "2017-12-20 17:32:07 +0000";
layers = (
{
anchors = (
{
name = bottom;
position = "{291, 78}";
},
{
name = connect;
position = "{483, 678}";
},
{
name = top;
position = "{273, 718}";
},
{
name = wa_ra;
position = "{438, 160}";
}
);
components = (
{
name = _part_foot_down;
piece = {
Flatness = 1;
};
transform = "{1, 0, 0, 1, 357, 45}";
}
);
layerId = "76B3AF2C-89AC-4CB1-B1C9-F754B2D43151";
paths = (
{
closed = 1;
nodes = (
"317 124 LINE",
"317 602 LINE",
"221 602 LINE",
"221 366 LINE",
"65 366 LINE",
"65 280 LINE",
"221 280 LINE",
"221 210 LINE",
"65 210 LINE",
"65 124 LINE"
);
},
{
closed = 1;
nodes = (
"483 224 LINE",
"483 522 LINE",
"65 522 LINE",
"65 436 LINE",
"387 436 LINE",
"387 224 LINE"
);
},
{
closed = 1;
nodes = (
"483 592 LINE",
"483 678 LINE",
"65 678 LINE",
"65 592 LINE"
);
}
);
userData = {
PartSelection = {
FootShape = 1;
HeadlineSlant = 1;
RightLegHeight = 1;
Width = 1;
};
};
width = 561;
},
{
anchors = (
{
name = bottom;
position = "{291, 78}";
},
{
name = connect;
position = "{501, 678}";
},
{
name = top;
position = "{273, 718}";
},
{
name = wa_ra;
position = "{438, 160}";
}
);
associatedMasterId = "76B3AF2C-89AC-4CB1-B1C9-F754B2D43151";
background = {
paths = (
{
closed = 1;
nodes = (
"317 124 LINE",
"317 602 LINE",
"221 602 LINE",
"221 366 LINE",
"65 366 LINE",
"65 280 LINE",
"221 280 LINE",
"221 210 LINE",
"65 210 LINE",
"65 124 LINE"
);
},
{
closed = 1;
nodes = (
"483 194 LINE",
"483 522 LINE",
"65 522 LINE",
"65 436 LINE",
"387 436 LINE",
"387 194 LINE"
);
},
{
closed = 1;
nodes = (
"483 592 LINE",
"501 678 LINE",
"72 678 LINE",
"54 592 LINE"
);
}
);
};
components = (
{
name = _part_foot_down;
piece = {
Flatness = 1;
};
transform = "{1, 0, 0, 1, 357, 45}";
}
);
layerId = "0F0EAF9E-4843-4FB3-89AB-425A4C45ECCB";
name = HeadlineSlant;
paths = (
{
closed = 1;
nodes = (
"317 124 LINE",
"317 602 LINE",
"221 602 LINE",
"221 366 LINE",
"65 366 LINE",
"65 280 LINE",
"221 280 LINE",
"221 210 LINE",
"65 210 LINE",
"65 124 LINE"
);
},
{
closed = 1;
nodes = (
"483 224 LINE",
"483 522 LINE",
"65 522 LINE",
"65 436 LINE",
"387 436 LINE",
"387 224 LINE"
);
},
{
closed = 1;
nodes = (
"483 592 LINE",
"501 678 LINE",
"75 678 LINE",
"57 592 LINE"
);
}
);
userData = {
PartSelection = {
HeadlineSlant = 2;
};
};
width = 561;
},
{
anchors = (
{
name = bottom;
position = "{291, 78}";
},
{
name = connect;
position = "{483, 678}";
},
{
name = top;
position = "{273, 718}";
},
{
name = wa_ra;
position = "{438, 160}";
}
);
associatedMasterId = "76B3AF2C-89AC-4CB1-B1C9-F754B2D43151";
components = (
{
name = _part_foot_down;
transform = "{1, 0, 0, 1, 357, 45}";
}
);
layerId = "3BD531F5-5E1D-4663-9EB7-6A1E00496537";
name = FootShape;
paths = (
{
closed = 1;
nodes = (
"317 124 LINE",
"317 602 LINE",
"221 602 LINE",
"221 366 LINE",
"65 366 LINE",
"65 280 LINE",
"221 280 LINE",
"221 210 LINE",
"65 210 LINE",
"65 124 LINE"
);
},
{
closed = 1;
nodes = (
"483 224 LINE",
"483 522 LINE",
"65 522 LINE",
"65 436 LINE",
"387 436 LINE",
"387 224 LINE"
);
},
{
closed = 1;
nodes = (
"483 592 LINE",
"483 678 LINE",
"65 678 LINE",
"65 592 LINE"
);
}
);
userData = {
PartSelection = {
FootShape = 2;
};
};
width = 561;
},
{
anchors = (
{
name = bottom;
position = "{299, 78}";
},
{
name = connect;
position = "{533, 678}";
},
{
name = top;
position = "{299, 718}";
},
{
name = wa_ra;
position = "{488, 160}";
}
);
associatedMasterId = "76B3AF2C-89AC-4CB1-B1C9-F754B2D43151";
background = {
paths = (
{
closed = 1;
nodes = (
"352 124 LINE",
"352 602 LINE",
"256 602 LINE",
"256 366 LINE",
"65 366 LINE",
"65 280 LINE",
"256 280 LINE",
"256 210 LINE",
"65 210 LINE",
"65 124 LINE"
);
},
{
closed = 1;
nodes = (
"543 194 LINE",
"543 522 LINE",
"65 522 LINE",
"65 436 LINE",
"447 436 LINE",
"447 194 LINE"
);
},
{
closed = 1;
nodes = (
"543 592 LINE",
"543 678 LINE",
"65 678 LINE",
"65 592 LINE"
);
}
);
};
components = (
{
name = _part_foot_down;
piece = {
Flatness = 1;
};
transform = "{1, 0, 0, 1, 407, 45}";
}
);
layerId = "C8AF5E4A-93A4-4F41-A81E-B4771A5222FC";
name = Wide;
paths = (
{
closed = 1;
nodes = (
"357 124 LINE",
"357 602 LINE",
"261 602 LINE",
"261 366 LINE",
"65 366 LINE",
"65 280 LINE",
"261 280 LINE",
"261 210 LINE",
"65 210 LINE",
"65 124 LINE"
);
},
{
closed = 1;
nodes = (
"533 194 LINE",
"533 522 LINE",
"65 522 LINE",
"65 436 LINE",
"437 436 LINE",
"437 194 LINE"
);
},
{
closed = 1;
nodes = (
"533 592 LINE",
"533 678 LINE",
"65 678 LINE",
"65 592 LINE"
);
}
);
userData = {
PartSelection = {
Width = 2;
};
};
width = 561;
},
{
anchors = (
{
name = bottom;
position = "{291, 78}";
},
{
name = connect;
position = "{483, 678}";
},
{
name = top;
position = "{273, 718}";
},
{
name = wa_ra;
position = "{438, 60}";
}
);
associatedMasterId = "76B3AF2C-89AC-4CB1-B1C9-F754B2D43151";
components = (
{
name = _part_foot_down;
piece = {
Flatness = 1;
};
transform = "{1, 0, 0, 1, 357, -255}";
}
);
layerId = "583BC99E-D139-453A-B9EE-D2F736BBFEBC";
name = RightLegHeight;
paths = (
{
closed = 1;
nodes = (
"317 124 LINE",
"317 602 LINE",
"221 602 LINE",
"221 366 LINE",
"65 366 LINE",
"65 280 LINE",
"221 280 LINE",
"221 210 LINE",
"65 210 LINE",
"65 124 LINE"
);
},
{
closed = 1;
nodes = (
"483 -76 LINE",
"483 522 LINE",
"65 522 LINE",
"65 436 LINE",
"387 436 LINE",
"387 -76 LINE"
);
},
{
closed = 1;
nodes = (
"483 592 LINE",
"483 678 LINE",
"65 678 LINE",
"65 592 LINE"
);
}
);
userData = {
PartSelection = {
RightLegHeight = 2;
};
};
width = 561;
}
);
partsSettings = (
{
name = HeadlineSlant;
bottomName = Low;
bottomValue = 0;
topName = High;
topValue = 100;
},
{
name = Width;
bottomName = Low;
bottomValue = 0;
topName = High;
topValue = 400;
},
{
name = FootShape;
bottomName = Low;
bottomValue = 0;
topName = High;
topValue = 1;
},
{
name = RightLegHeight;
bottomName = Low;
bottomValue = 0;
topName = High;
topValue = 300;
}
);
},
{
export = 0;
glyphname = _part_nga;
lastChange = "2017-12-08 21:09:28 +0000";
layers = (
{
anchors = (
{
name = bottom;
position = "{265, 78}";
},
{
name = connect;
position = "{450, 678}";
},
{
name = top;
position = "{258, 718}";
},
{
name = wa_ra;
position = "{426, 160}";
}
);
background = {
paths = (
{
closed = 1;
nodes = (
"450 592 LINE",
"468 678 LINE",
"92 678 LINE",
"74 592 LINE"
);
},
{
closed = 1;
nodes = (
"432 436 LINE",
"450 522 LINE",
"90 522 LINE",
"80 436 LINE"
);
},
{
closed = 1;
nodes = (
"314 513 LINE",
"314 621 LINE",
"218 621 LINE",
"218 513 LINE"
);
},
{
closed = 1;
nodes = (
"286 238 OFFCURVE",
"388 208 OFFCURVE",
"481 102 CURVE",
"527 110 LINE",
"440 262 OFFCURVE",
"314 324 OFFCURVE",
"164 334 CURVE",
"202 446 LINE",
"130 446 LINE",
"60 248 LINE"
);
}
);
};
layerId = "76B3AF2C-89AC-4CB1-B1C9-F754B2D43151";
paths = (
{
closed = 1;
nodes = (
"450 592 LINE",
"450 678 LINE",
"80 678 LINE",
"80 592 LINE"
);
},
{
closed = 1;
nodes = (
"351 188 OFFCURVE",
"421 146 OFFCURVE",
"482 92 CURVE",
"528 100 LINE",
"414 243 OFFCURVE",
"308 271 OFFCURVE",
"177 274 CURVE",
"177 436 LINE",
"432 436 LINE",
"450 522 LINE",
"80 522 LINE",
"80 188 LINE"
);
},
{
closed = 1;
nodes = (
"314 503 LINE",
"314 621 LINE",
"218 621 LINE",
"218 503 LINE"
);
}
);
userData = {
PartSelection = {
FootLength = 2;
HeadlineSlant = 1;
Height = 2;
Width = 1;
};
};
width = 547;
},
{
anchors = (
{
name = bottom;
position = "{265, 78}";
},
{
name = connect;
position = "{450, 678}";
},
{
name = top;
position = "{258, 718}";
},
{
name = wa_ra;
position = "{426, 160}";
}
);
associatedMasterId = "76B3AF2C-89AC-4CB1-B1C9-F754B2D43151";
background = {
paths = (
{
closed = 1;
nodes = (
"450 592 LINE",
"468 678 LINE",
"92 678 LINE",
"74 592 LINE"
);
},
{
closed = 1;
nodes = (
"432 436 LINE",
"450 522 LINE",
"90 522 LINE",
"80 436 LINE"
);
},
{
closed = 1;
nodes = (
"314 513 LINE",
"314 621 LINE",
"218 621 LINE",
"218 513 LINE"
);
},
{
closed = 1;
nodes = (
"286 238 OFFCURVE",
"388 208 OFFCURVE",
"481 102 CURVE",
"527 110 LINE",
"440 262 OFFCURVE",
"314 324 OFFCURVE",
"164 334 CURVE",
"202 446 LINE",
"130 446 LINE",
"60 248 LINE"
);
}
);
};
layerId = "9570C930-F18F-4BCC-A1BC-F4ADF11FC97B";
name = Foot;
paths = (
{
closed = 1;
nodes = (
"450 592 LINE",
"450 678 LINE",
"80 678 LINE",
"80 592 LINE"
);
},
{
closed = 1;
nodes = (
"321 188 OFFCURVE",
"391 146 OFFCURVE",
"452 92 CURVE",
"498 100 LINE",
"384 243 OFFCURVE",
"278 271 OFFCURVE",
"177 274 CURVE",
"177 436 LINE",
"432 436 LINE",
"450 522 LINE",
"80 522 LINE",
"80 188 LINE"
);
},
{
closed = 1;
nodes = (
"314 503 LINE",
"314 621 LINE",
"218 621 LINE",
"218 503 LINE"
);
}
);
userData = {
PartSelection = {
FootLength = 1;
};
};
width = 547;
},
{
anchors = (
{
name = bottom;
position = "{265, 178}";
},
{
name = connect;
position = "{450, 678}";
},
{
name = top;
position = "{258, 718}";
},
{
name = wa_ra;
position = "{426, 260}";
}
);
associatedMasterId = "76B3AF2C-89AC-4CB1-B1C9-F754B2D43151";
background = {
paths = (
{
closed = 1;
nodes = (
"450 592 LINE",
"468 678 LINE",
"92 678 LINE",
"74 592 LINE"
);
},
{
closed = 1;
nodes = (
"432 436 LINE",
"450 522 LINE",
"90 522 LINE",
"80 436 LINE"
);
},
{
closed = 1;
nodes = (
"314 513 LINE",
"314 621 LINE",
"218 621 LINE",
"218 513 LINE"
);
},
{
closed = 1;
nodes = (
"286 238 OFFCURVE",
"388 208 OFFCURVE",
"481 102 CURVE",
"527 110 LINE",
"440 262 OFFCURVE",
"314 324 OFFCURVE",
"164 334 CURVE",
"202 446 LINE",
"130 446 LINE",
"60 248 LINE"
);
}
);
};
layerId = "75DBA573-770B-4F85-B2E6-C8605BA9039E";
name = Height;
paths = (
{
closed = 1;
nodes = (
"450 592 LINE",
"450 678 LINE",
"80 678 LINE",
"80 592 LINE"
);
},
{
closed = 1;
nodes = (
"351 290 OFFCURVE",
"421 248 OFFCURVE",
"482 194 CURVE",
"528 202 LINE",
"414 345 OFFCURVE",
"308 373 OFFCURVE",
"177 376 CURVE",
"177 436 LINE",
"432 436 LINE",
"450 522 LINE",
"80 522 LINE",
"80 290 LINE"
);
},
{
closed = 1;
nodes = (
"314 503 LINE",
"314 621 LINE",
"218 621 LINE",
"218 503 LINE"
);
}
);
userData = {
PartSelection = {
Height = 1;
};
};
width = 547;
},
{
anchors = (
{
name = bottom;
position = "{265, 78}";
},
{
name = connect;
position = "{468, 678}";
},
{
name = top;
position = "{258, 718}";
},
{
name = wa_ra;
position = "{426, 160}";
}
);
associatedMasterId = "76B3AF2C-89AC-4CB1-B1C9-F754B2D43151";
background = {
paths = (
{
closed = 1;
nodes = (
"450 592 LINE",
"468 678 LINE",
"92 678 LINE",
"74 592 LINE"
);
}
);
};
layerId = "BDCA6E26-7819-42B0-BBAA-E1C8A699311D";
name = HeadlineSlant;
paths = (
{
closed = 1;
nodes = (
"450 592 LINE",
"468 678 LINE",
"92 678 LINE",
"74 592 LINE"
);
},
{
closed = 1;
nodes = (
"351 188 OFFCURVE",
"421 146 OFFCURVE",
"482 92 CURVE",
"528 100 LINE",
"414 243 OFFCURVE",
"308 271 OFFCURVE",
"177 274 CURVE",
"177 436 LINE",
"432 436 LINE",
"450 522 LINE",
"80 522 LINE",
"80 188 LINE"
);
},
{
closed = 1;
nodes = (
"314 503 LINE",
"314 621 LINE",
"218 621 LINE",
"218 503 LINE"
);
}
);
userData = {
PartSelection = {
HeadlineSlant = 2;
};
};
width = 547;
},
{
anchors = (
{
name = bottom;
position = "{355, 78}";
},
{
name = connect;
position = "{560, 678}";
},
{
name = top;
position = "{319, 718}";
},
{
name = wa_ra;
position = "{516, 160}";
}
);
associatedMasterId = "76B3AF2C-89AC-4CB1-B1C9-F754B2D43151";
background = {
paths = (
{
closed = 1;
nodes = (
"450 592 LINE",
"468 678 LINE",
"92 678 LINE",
"74 592 LINE"
);
},
{
closed = 1;
nodes = (
"432 436 LINE",
"450 522 LINE",
"90 522 LINE",
"80 436 LINE"
);
},
{
closed = 1;
nodes = (
"314 513 LINE",
"314 621 LINE",
"218 621 LINE",
"218 513 LINE"
);
},
{
closed = 1;
nodes = (
"286 238 OFFCURVE",
"388 208 OFFCURVE",
"481 102 CURVE",
"527 110 LINE",
"440 262 OFFCURVE",
"314 324 OFFCURVE",
"164 334 CURVE",
"202 446 LINE",
"130 446 LINE",
"60 248 LINE"
);
}
);
};
layerId = "0ADFDEB3-C876-4232-AB72-6A2106A32578";
name = Width;
paths = (
{
closed = 1;
nodes = (
"560 592 LINE",
"560 678 LINE",
"80 678 LINE",
"80 592 LINE"
);
},
{
closed = 1;
nodes = (
"431 188 OFFCURVE",
"501 146 OFFCURVE",
"562 92 CURVE",
"608 100 LINE",
"494 243 OFFCURVE",
"388 271 OFFCURVE",
"177 274 CURVE",
"177 436 LINE",
"542 436 LINE",
"560 522 LINE",
"80 522 LINE",
"80 188 LINE"
);
},
{
closed = 1;
nodes = (
"369 503 LINE",
"369 621 LINE",
"273 621 LINE",
"273 503 LINE"
);
}
);
userData = {
PartSelection = {
Width = 2;
};
};
width = 668;
}
);
partsSettings = (
{
name = FootLength;
bottomName = Low;
bottomValue = 0;
topName = High;
topValue = 100;
},
{
name = Height;
bottomName = Low;
bottomValue = 0;
topName = High;
topValue = 200;
},
{
name = HeadlineSlant;
bottomName = Low;
bottomValue = 0;
topName = High;
topValue = 100;
},
{
name = Width;
bottomName = Low;
bottomValue = 0;
topName = High;
topValue = 400;
}
);
},
{
export = 0;
glyphname = _part_nya;
lastChange = "2017-12-20 17:32:07 +0000";
layers = (
{
anchors = (
{
name = bottom;
position = "{353, 78}";
},
{
name = connect;
position = "{634, 678}";
},
{
name = top;
position = "{348, 718}";
},
{
name = wa_ra;
position = "{589, 180}";
}
);
components = (
{
name = _part_foot_down;
piece = {
Flatness = 1;
};
transform = "{1, 0, 0, 1, 508, 45}";
}
);
layerId = "76B3AF2C-89AC-4CB1-B1C9-F754B2D43151";
paths = (
{
closed = 1;
nodes = (
"156 124 LINE",
"156 280 LINE",
"468 280 LINE",
"468 522 LINE",
"372 522 LINE",
"372 366 LINE",
"60 366 LINE",
"60 124 LINE"
);
},
{
closed = 1;
nodes = (
"634 238 LINE",
"634 678 LINE",
"60 678 LINE",
"60 436 LINE",
"216 436 LINE",
"216 124 LINE",
"474 124 LINE",
"474 210 LINE",
"312 210 LINE",
"312 522 LINE",
"156 522 LINE",
"156 592 LINE",
"538 592 LINE",
"538 238 LINE"
);
}
);
userData = {
PartSelection = {
FootShape = 1;
Narrow = 1;
RightLegHeight = 1;
Wide = 1;
};
};
width = 694;
},
{
anchors = (
{
name = bottom;
position = "{367, 78}";
},
{
name = connect;
position = "{674, 678}";
},
{
name = top;
position = "{368, 718}";
},
{
name = wa_ra;
position = "{629, 180}";
}
);
associatedMasterId = "76B3AF2C-89AC-4CB1-B1C9-F754B2D43151";
background = {
paths = (
{
closed = 1;
nodes = (
"136 154 LINE",
"136 300 LINE",
"488 300 LINE",
"488 532 LINE",
"392 532 LINE",
"392 386 LINE",
"40 386 LINE",
"40 154 LINE"
);
},
{
closed = 1;
nodes = (
"674 198 LINE",
"674 678 LINE",
"40 678 LINE",
"40 446 LINE",
"216 446 LINE",
"216 154 LINE",
"494 154 LINE",
"494 240 LINE",
"312 240 LINE",
"312 532 LINE",
"136 532 LINE",
"136 592 LINE",
"578 592 LINE",
"578 198 LINE"
);
}
);
};
components = (
{
name = _part_foot_down;
piece = {
Flatness = 1;
};
transform = "{1, 0, 0, 1, 548, 45}";
}
);
layerId = "E85046B5-D159-440C-A734-0861374E30A3";
name = Wide;
paths = (
{
closed = 1;
nodes = (
"156 124 LINE",
"156 280 LINE",
"508 280 LINE",
"508 522 LINE",
"412 522 LINE",
"412 366 LINE",
"60 366 LINE",
"60 124 LINE"
);
},
{
closed = 1;
nodes = (
"674 238 LINE",
"674 678 LINE",
"60 678 LINE",
"60 436 LINE",
"236 436 LINE",
"236 124 LINE",
"514 124 LINE",
"514 210 LINE",
"332 210 LINE",
"332 522 LINE",
"156 522 LINE",
"156 592 LINE",
"578 592 LINE",
"578 238 LINE"
);
}
);
userData = {
PartSelection = {
Wide = 2;
};
};
width = 734;
},
{
anchors = (
{
name = bottom;
position = "{297, 78}";
},
{
name = connect;
position = "{590, 677}";
},
{
name = top;
position = "{348, 718}";
},
{
name = wa_ra;
position = "{549, 180}";
}
);
associatedMasterId = "76B3AF2C-89AC-4CB1-B1C9-F754B2D43151";
background = {
paths = (
{
closed = 1;
nodes = (
"156 154 LINE",
"156 300 LINE",
"448 300 LINE",
"448 532 LINE",
"352 532 LINE",
"352 386 LINE",
"60 386 LINE",
"60 154 LINE"
);
},
{
closed = 1;
nodes = (
"594 198 LINE",
"594 678 LINE",
"60 678 LINE",
"60 446 LINE",
"206 446 LINE",
"206 154 LINE",
"454 154 LINE",
"454 240 LINE",
"302 240 LINE",
"302 532 LINE",
"156 532 LINE",
"156 592 LINE",
"498 592 LINE",
"498 198 LINE"
);
}
);
};
components = (
{
name = _part_foot_down;
piece = {
Flatness = 1;
};
transform = "{1, 0, 0, 1, 468, 45}";
}
);
layerId = "11D683DA-5F83-4CB7-AE13-C2551ED6D1AB";
name = Narrow;
paths = (
{
closed = 1;
nodes = (
"156 124 LINE",
"156 280 LINE",
"448 280 LINE",
"448 522 LINE",
"352 522 LINE",
"352 366 LINE",
"60 366 LINE",
"60 124 LINE"
);
},
{
closed = 1;
nodes = (
"594 238 LINE",
"594 678 LINE",
"60 678 LINE",
"60 436 LINE",
"206 436 LINE",
"206 124 LINE",
"454 124 LINE",
"454 210 LINE",
"302 210 LINE",
"302 522 LINE",
"156 522 LINE",
"156 592 LINE",
"498 592 LINE",
"498 238 LINE"
);
}
);
userData = {
PartSelection = {
Narrow = 2;
};
};
width = 684;
},
{
anchors = (
{
name = bottom;
position = "{297, 78}";
},
{
name = connect;
position = "{634, 678}";
},
{
name = top;
position = "{348, 718}";
},
{
name = wa_ra;
position = "{589, 180}";
}
);
associatedMasterId = "76B3AF2C-89AC-4CB1-B1C9-F754B2D43151";
components = (
{
name = _part_foot_down;
transform = "{1, 0, 0, 1, 508, 45}";
}
);
layerId = "F0B76D92-5322-4BC3-9F56-5F0C69F86757";
name = FootShape;
paths = (
{
closed = 1;
nodes = (
"156 124 LINE",
"156 280 LINE",
"468 280 LINE",
"468 522 LINE",
"372 522 LINE",
"372 366 LINE",
"60 366 LINE",
"60 124 LINE"
);
},
{
closed = 1;
nodes = (
"634 238 LINE",
"634 678 LINE",
"60 678 LINE",
"60 436 LINE",
"216 436 LINE",
"216 124 LINE",
"474 124 LINE",
"474 210 LINE",
"312 210 LINE",
"312 522 LINE",
"156 522 LINE",
"156 592 LINE",
"538 592 LINE",
"538 238 LINE"
);
}
);
userData = {
PartSelection = {
FootShape = 2;
};
};
width = 684;
},
{
anchors = (
{
name = bottom;
position = "{297, 78}";
},
{
name = connect;
position = "{634, 678}";
},
{
name = top;
position = "{348, 718}";
},
{
name = wa_ra;
position = "{589, 0}";
}
);
associatedMasterId = "76B3AF2C-89AC-4CB1-B1C9-F754B2D43151";
components = (
{
name = _part_foot_down;
piece = {
Flatness = 1;
};
transform = "{1, 0, 0, 1, 508, -255}";
}
);
layerId = "6F4C16FE-81A6-40FB-93E2-E487B1B6534A";
name = RightLegHeight;
paths = (
{
closed = 1;
nodes = (
"156 124 LINE",
"156 280 LINE",
"468 280 LINE",
"468 522 LINE",
"372 522 LINE",
"372 366 LINE",
"60 366 LINE",
"60 124 LINE"
);
},
{
closed = 1;
nodes = (
"634 -62 LINE",
"634 678 LINE",
"60 678 LINE",
"60 436 LINE",
"216 436 LINE",
"216 124 LINE",
"474 124 LINE",
"474 210 LINE",
"312 210 LINE",
"312 522 LINE",
"156 522 LINE",
"156 592 LINE",
"538 592 LINE",
"538 -62 LINE"
);
}
);
userData = {
PartSelection = {
RightLegHeight = 2;
};
};
width = 684;
}
);
partsSettings = (
{
name = Narrow;
bottomName = Low;
bottomValue = 0;
topName = High;
topValue = 200;
},
{
name = Wide;
bottomName = Low;
bottomValue = 0;
topName = High;
topValue = 200;
},
{
name = FootShape;
bottomName = Low;
bottomValue = 0;
topName = High;
topValue = 1;
},
{
name = RightLegHeight;
bottomName = Low;
bottomValue = 0;
topName = High;
topValue = 300;
}
);
},
{
export = 0;
glyphname = _part_ovwl;
lastChange = "2017-12-20 17:32:07 +0000";
layers = (
{
anchors = (
{
name = top;
position = "{464, 854}";
}
);
components = (
{
name = _part_foot_down;
transform = "{1, 0, 0, 1, 522, 57}";
}
);
layerId = "76B3AF2C-89AC-4CB1-B1C9-F754B2D43151";
paths = (
{
closed = 1;
nodes = (
"648 256 LINE",
"648 814 LINE",
"281 814 LINE",
"281 728 LINE",
"552 728 LINE",
"552 256 LINE"
);
}
);
userData = {
PartSelection = {
Concave = 1;
Convex = 1;
HeadlineSlant = 1;
Height = 1;
Outstroke = 1;
Width = 1;
};
};
width = 0;
},
{
anchors = (
{
name = top;
position = "{164, 854}";
}
);
associatedMasterId = "76B3AF2C-89AC-4CB1-B1C9-F754B2D43151";
components = (
{
name = _part_foot_down;
transform = "{1, 0, 0, 1, 522, 57}";
}
);
layerId = "632CB9F6-E269-4AAA-84FF-9DD9F9A1B54D";
name = Width;
paths = (
{
closed = 1;
nodes = (
"648 256 LINE",
"648 814 LINE",
"-319 814 LINE",
"-319 728 LINE",
"552 728 LINE",
"552 256 LINE"
);
}
);
userData = {
PartSelection = {
Width = 2;
};
};
width = 0;
},
{
anchors = (
{
name = top;
position = "{464, 854}";
}
);
associatedMasterId = "76B3AF2C-89AC-4CB1-B1C9-F754B2D43151";
components = (
{
name = _part_foot_down;
transform = "{1, 0, 0, 1, 522, -743}";
}
);
layerId = "1FCFB5EE-49FE-45A8-8722-0EB1035112C2";
name = Height;
paths = (
{
closed = 1;
nodes = (
"648 -540 LINE",
"648 814 LINE",
"281 814 LINE",
"281 728 LINE",
"552 728 LINE",
"552 -540 LINE"
);
}
);
userData = {
PartSelection = {
Height = 2;
};
};
width = 0;
},
{
anchors = (
{
name = top;
position = "{464, 854}";
}
);
associatedMasterId = "76B3AF2C-89AC-4CB1-B1C9-F754B2D43151";
components = (
{
name = _part_foot_down;
transform = "{1, 0, 0, 1, 522, 57}";
}
);
layerId = "66AA200D-D7A0-48FA-9608-8FCA11AA22F3";
name = Outstroke;
paths = (
{
closed = 1;
nodes = (
"648 256 LINE",
"648 814 LINE",
"281 814 LINE",
"281 728 LINE",
"552 728 LINE",
"552 256 LINE"
);
}
);
userData = {
PartSelection = {
Outstroke = 2;
};
};
width = 0;
},
{
anchors = (
{
name = top;
position = "{464, 854}";
}
);
associatedMasterId = "76B3AF2C-89AC-4CB1-B1C9-F754B2D43151";
components = (
{
name = _part_foot_down;
transform = "{1, 0, 0, 1, 522, 57}";
}
);
layerId = "7E73561D-5B90-45CC-A06F-98A60DAC2F61";
name = HeadlineSlant;
paths = (
{
closed = 1;
nodes = (
"648 256 LINE",
"648 814 LINE",
"301 814 LINE",
"281 728 LINE",
"552 728 LINE",
"552 256 LINE"
);
}
);
userData = {
PartSelection = {
HeadlineSlant = 2;
};
};
width = 0;
},
{
anchors = (
{
name = top;
position = "{464, 854}";
}
);
associatedMasterId = "76B3AF2C-89AC-4CB1-B1C9-F754B2D43151";
components = (
{
name = _part_foot_down;
piece = {
Convex = 100;
};
transform = "{1, 0, 0, 1, 522, 57}";
}
);
layerId = "20689F29-474C-40A4-B060-AA96A6B4DE3B";
name = Convex;
paths = (
{
closed = 1;
nodes = (
"648 256 LINE",
"648 814 LINE",
"281 814 LINE",
"281 728 LINE",
"552 728 LINE",
"552 256 LINE"
);
}
);
userData = {
PartSelection = {
Convex = 2;
};
};
width = 0;
},
{
anchors = (
{
name = top;
position = "{464, 854}";
}
);
associatedMasterId = "76B3AF2C-89AC-4CB1-B1C9-F754B2D43151";
components = (
{
name = _part_foot_down;
transform = "{1, 0, 0, 1, 522, 57}";
}
);
layerId = "0864681A-99B1-4589-B7C9-4F991BC52A63";
name = Concave;
paths = (
{
closed = 1;
nodes = (
"648 256 LINE",
"648 814 LINE",
"281 814 LINE",
"281 728 LINE",
"552 728 LINE",
"552 256 LINE"
);
}
);
userData = {
PartSelection = {
Concave = 2;
};
};
width = 0;
}
);
partsSettings = (
{
name = Width;
bottomName = Low;
bottomValue = 367;
topName = High;
topValue = 967;
},
{
name = Height;
bottomName = Low;
bottomValue = 0;
topName = High;
topValue = 400;
},
{
name = Outstroke;
bottomName = Low;
bottomValue = 0;
topName = High;
topValue = 100;
},
{
name = HeadlineSlant;
bottomName = Low;
bottomValue = 0;
topName = High;
topValue = 100;
},
{
name = Convex;
bottomName = Low;
bottomValue = 0;
topName = High;
topValue = 100;
},
{
name = Concave;
bottomName = Low;
bottomValue = 0;
topName = High;
topValue = 100;
}
);
},
{
export = 0;
glyphname = _part_pa;
lastChange = "2017-12-20 17:32:07 +0000";
layers = (
{
anchors = (
{
name = bottom;
position = "{277, 78}";
},
{
name = connect;
position = "{597, 678}";
},
{
name = top;
position = "{324, 718}";
},
{
name = wa_ra;
position = "{552, 160}";
}
);
components = (
{
name = _part_foot_down;
piece = {
Flatness = 1;
};
transform = "{1, 0, 0, 1, 471, 63}";
}
);
layerId = "76B3AF2C-89AC-4CB1-B1C9-F754B2D43151";
paths = (
{
closed = 1;
nodes = (
"431 298 LINE",
"431 532 LINE",
"314 532 LINE",
"314 678 LINE",
"218 678 LINE",
"218 446 LINE",
"335 446 LINE",
"335 384 LINE",
"156 384 LINE",
"156 678 LINE",
"60 678 LINE",
"60 298 LINE"
);
},
{
closed = 1;
nodes = (
"297 214 LINE",
"297 327 LINE",
"201 327 LINE",
"201 214 LINE"
);
},
{
closed = 1;
nodes = (
"431 142 LINE",
"431 228 LINE",
"63 228 LINE",
"63 142 LINE"
);
},
{
closed = 1;
nodes = (
"597 220 LINE",
"597 678 LINE",
"218 678 LINE",
"218 592 LINE",
"501 592 LINE",
"501 220 LINE"
);
}
);
userData = {
PartSelection = {
FootShape = 1;
Narrow = 1;
RightLegHeight = 1;
TopSlant = 1;
};
};
width = 657;
},
{
anchors = (
{
name = bottom;
position = "{277, 78}";
},
{
name = connect;
position = "{597, 678}";
},
{
name = top;
position = "{324, 718}";
},
{
name = wa_ra;
position = "{552, 160}";
}
);
associatedMasterId = "76B3AF2C-89AC-4CB1-B1C9-F754B2D43151";
background = {
paths = (
{
closed = 1;
nodes = (
"431 298 LINE",
"431 532 LINE",
"314 532 LINE",
"314 678 LINE",
"218 678 LINE",
"218 446 LINE",
"335 446 LINE",
"335 384 LINE",
"156 384 LINE",
"156 678 LINE",
"60 704 LINE",
"60 298 LINE"
);
},
{
closed = 1;
nodes = (
"297 214 LINE",
"297 327 LINE",
"201 327 LINE",
"201 214 LINE"
);
},
{
closed = 1;
nodes = (
"431 142 LINE",
"431 228 LINE",
"63 228 LINE",
"63 142 LINE"
);
},
{
closed = 1;
nodes = (
"597 220 LINE",
"597 678 LINE",
"218 678 LINE",
"218 592 LINE",
"501 592 LINE",
"501 220 LINE"
);
}
);
};
components = (
{
name = _part_foot_down;
piece = {
Flatness = 1;
};
transform = "{1, 0, 0, 1, 471, 63}";
}
);
layerId = "A0CA656D-D675-4001-A50B-3E6C2D098192";
name = TopSlant;
paths = (
{
closed = 1;
nodes = (
"431 298 LINE",
"431 532 LINE",
"314 532 LINE",
"314 678 LINE",
"218 678 LINE",
"218 446 LINE",
"335 446 LINE",
"335 384 LINE",
"156 384 LINE",
"156 678 LINE",
"60 708 LINE",
"60 298 LINE"
);
},
{
closed = 1;
nodes = (
"297 214 LINE",
"297 327 LINE",
"201 327 LINE",
"201 214 LINE"
);
},
{
closed = 1;
nodes = (
"431 142 LINE",
"431 228 LINE",
"63 228 LINE",
"63 142 LINE"
);
},
{
closed = 1;
nodes = (
"597 220 LINE",
"597 678 LINE",
"218 678 LINE",
"218 592 LINE",
"501 592 LINE",
"501 220 LINE"
);
}
);
userData = {
PartSelection = {
TopSlant = 2;
};
};
width = 657;
},
{
anchors = (
{
name = bottom;
position = "{277, 78}";
},
{
name = connect;
position = "{597, 678}";
},
{
name = top;
position = "{324, 718}";
},
{
name = wa_ra;
position = "{552, 160}";
}
);
associatedMasterId = "76B3AF2C-89AC-4CB1-B1C9-F754B2D43151";
components = (
{
name = _part_foot_down;
transform = "{1, 0, 0, 1, 471, 63}";
}
);
layerId = "B5FD5B7F-F0AC-4873-AACB-EBBAFFAAD716";
name = FootShape;
paths = (
{
closed = 1;
nodes = (
"431 298 LINE",
"431 532 LINE",
"314 532 LINE",
"314 678 LINE",
"218 678 LINE",
"218 446 LINE",
"335 446 LINE",
"335 384 LINE",
"156 384 LINE",
"156 678 LINE",
"60 678 LINE",
"60 298 LINE"
);
},
{
closed = 1;
nodes = (
"297 214 LINE",
"297 327 LINE",
"201 327 LINE",
"201 214 LINE"
);
},
{
closed = 1;
nodes = (
"431 142 LINE",
"431 228 LINE",
"63 228 LINE",
"63 142 LINE"
);
},
{
closed = 1;
nodes = (
"597 220 LINE",
"597 678 LINE",
"218 678 LINE",
"218 592 LINE",
"501 592 LINE",
"501 220 LINE"
);
}
);
userData = {
PartSelection = {
FootShape = 2;
};
};
width = 657;
},
{
anchors = (
{
name = bottom;
position = "{277, 78}";
},
{
name = connect;
position = "{567, 678}";
},
{
name = top;
position = "{324, 718}";
},
{
name = wa_ra;
position = "{522, 160}";
}
);
associatedMasterId = "76B3AF2C-89AC-4CB1-B1C9-F754B2D43151";
background = {
paths = (
{
closed = 1;
nodes = (
"419 298 LINE",
"419 532 LINE",
"302 532 LINE",
"302 678 LINE",
"206 678 LINE",
"206 446 LINE",
"323 446 LINE",
"323 384 LINE",
"156 384 LINE",
"156 678 LINE",
"60 678 LINE",
"60 298 LINE"
);
},
{
closed = 1;
nodes = (
"285 214 LINE",
"285 327 LINE",
"189 327 LINE",
"189 214 LINE"
);
},
{
closed = 1;
nodes = (
"419 142 LINE",
"419 228 LINE",
"63 228 LINE",
"63 142 LINE"
);
},
{
closed = 1;
nodes = (
"565 220 LINE",
"565 678 LINE",
"206 678 LINE",
"206 592 LINE",
"469 592 LINE",
"469 220 LINE"
);
}
);
};
components = (
{
name = _part_foot_down;
piece = {
Flatness = 1;
};
transform = "{1, 0, 0, 1, 441, 63}";
}
);
layerId = "8136B3B5-36B1-49C5-B963-3CA91551F00D";
name = Narrow;
paths = (
{
closed = 1;
nodes = (
"419 298 LINE",
"419 532 LINE",
"302 532 LINE",
"302 678 LINE",
"206 678 LINE",
"206 446 LINE",
"323 446 LINE",
"323 384 LINE",
"156 384 LINE",
"156 678 LINE",
"60 678 LINE",
"60 298 LINE"
);
},
{
closed = 1;
nodes = (
"287 214 LINE",
"287 327 LINE",
"191 327 LINE",
"191 214 LINE"
);
},
{
closed = 1;
nodes = (
"419 142 LINE",
"419 228 LINE",
"63 228 LINE",
"63 142 LINE"
);
},
{
closed = 1;
nodes = (
"567 220 LINE",
"567 678 LINE",
"206 678 LINE",
"206 592 LINE",
"471 592 LINE",
"471 220 LINE"
);
}
);
userData = {
PartSelection = {
Narrow = 2;
};
};
width = 657;
},
{
anchors = (
{
name = bottom;
position = "{277, 78}";
},
{
name = connect;
position = "{597, 678}";
},
{
name = top;
position = "{324, 718}";
},
{
name = wa_ra;
position = "{552, 60}";
}
);
associatedMasterId = "76B3AF2C-89AC-4CB1-B1C9-F754B2D43151";
components = (
{
name = _part_foot_down;
piece = {
Flatness = 1;
};
transform = "{1, 0, 0, 1, 471, -237}";
}
);
layerId = "39780ACD-282E-49DA-BAAA-926F6EBCED63";
name = RightLegHeight;
paths = (
{
closed = 1;
nodes = (
"431 298 LINE",
"431 532 LINE",
"314 532 LINE",
"314 678 LINE",
"218 678 LINE",
"218 446 LINE",
"335 446 LINE",
"335 384 LINE",
"156 384 LINE",
"156 678 LINE",
"60 678 LINE",
"60 298 LINE"
);
},
{
closed = 1;
nodes = (
"297 214 LINE",
"297 327 LINE",
"201 327 LINE",
"201 214 LINE"
);
},
{
closed = 1;
nodes = (
"431 142 LINE",
"431 228 LINE",
"63 228 LINE",
"63 142 LINE"
);
},
{
closed = 1;
nodes = (
"597 -80 LINE",
"597 678 LINE",
"218 678 LINE",
"218 592 LINE",
"501 592 LINE",
"501 -80 LINE"
);
}
);
userData = {
PartSelection = {
RightLegHeight = 2;
};
};
width = 657;
}
);
partsSettings = (
{
name = TopSlant;
bottomName = Low;
bottomValue = 0;
topName = High;
topValue = 100;
},
{
name = Narrow;
bottomName = Low;
bottomValue = 0;
topName = High;
topValue = 200;
},
{
name = RightLegHeight;
bottomName = Low;
bottomValue = 0;
topName = High;
topValue = 300;
},
{
name = FootShape;
bottomName = Low;
bottomValue = 0;
topName = High;
topValue = 1;
}
);
},
{
export = 0;
glyphname = _part_pha;
lastChange = "2017-12-20 17:32:06 +0000";
layers = (
{
anchors = (
{
name = bottom;
position = "{276, 78}";
},
{
name = connect;
position = "{586, 678}";
},
{
name = top;
position = "{324, 718}";
},
{
name = wa_ra;
position = "{541, 241}";
}
);
components = (
{
name = _part_foot_down;
piece = {
Flatness = 1;
};
transform = "{1, 0, 0, 1, 460, 66}";
}
);
guideLines = (
{
position = "{194, 386}";
}
);
layerId = "76B3AF2C-89AC-4CB1-B1C9-F754B2D43151";
paths = (
{
closed = 1;
nodes = (
"60 299 LINE",
"196 299 LINE",
"196 229 LINE",
"60 229 LINE",
"60 143 LINE",
"420 143 LINE",
"420 229 LINE",
"282 229 LINE",
"282 299 LINE",
"420 299 LINE",
"420 522 LINE",
"146 522 LINE",
"146 592 LINE",
"490 592 LINE",
"490 224 LINE",
"586 224 LINE",
"586 678 LINE",
"60 678 LINE"
);
},
{
closed = 1;
nodes = (
"146 385 LINE",
"146 436 LINE",
"334 436 LINE",
"334 385 LINE"
);
}
);
userData = {
PartSelection = {
FootShape = 1;
RightLegHeight = 1;
Width = 1;
};
};
width = 646;
},
{
anchors = (
{
name = bottom;
position = "{276, 78}";
},
{
name = connect;
position = "{636, 678}";
},
{
name = top;
position = "{349, 718}";
},
{
name = wa_ra;
position = "{591, 241}";
}
);
associatedMasterId = "76B3AF2C-89AC-4CB1-B1C9-F754B2D43151";
background = {
paths = (
{
closed = 1;
nodes = (
"460 145 LINE",
"460 229 LINE",
"60 229 LINE",
"60 145 LINE"
);
},
{
closed = 1;
nodes = (
"327 215 LINE",
"327 312 LINE",
"231 312 LINE",
"231 215 LINE"
);
},
{
closed = 1;
nodes = (
"460 299 LINE",
"460 522 LINE",
"60 522 LINE",
"60 299 LINE"
);
},
{
closed = 1;
nodes = (
"156 436 LINE",
"364 436 LINE",
"364 386 LINE",
"156 386 LINE"
);
},
{
closed = 1;
nodes = (
"156 494 LINE",
"156 604 LINE",
"60 604 LINE",
"60 494 LINE"
);
},
{
closed = 1;
nodes = (
"636 224 LINE",
"636 678 LINE",
"60 678 LINE",
"60 592 LINE",
"540 592 LINE",
"540 224 LINE"
);
}
);
};
components = (
{
name = _part_foot_down;
piece = {
Flatness = 1;
};
transform = "{1, 0, 0, 1, 510, 66}";
}
);
layerId = "2C11EF52-954E-4C90-90F1-5257506BFD0A";
name = Width;
paths = (
{
closed = 1;
nodes = (
"60 299 LINE",
"226 299 LINE",
"226 229 LINE",
"60 229 LINE",
"60 143 LINE",
"460 143 LINE",
"460 229 LINE",
"312 229 LINE",
"312 299 LINE",
"460 299 LINE",
"460 522 LINE",
"146 522 LINE",
"146 592 LINE",
"540 592 LINE",
"540 224 LINE",
"636 224 LINE",
"636 678 LINE",
"60 678 LINE"
);
},
{
closed = 1;
nodes = (
"146 385 LINE",
"146 436 LINE",
"374 436 LINE",
"374 385 LINE"
);
}
);
userData = {
PartSelection = {
Width = 2;
};
};
width = 696;
},
{
anchors = (
{
name = bottom;
position = "{276, 78}";
},
{
name = connect;
position = "{586, 678}";
},
{
name = top;
position = "{324, 718}";
},
{
name = wa_ra;
position = "{541, 241}";
}
);
associatedMasterId = "76B3AF2C-89AC-4CB1-B1C9-F754B2D43151";
components = (
{
name = _part_foot_down;
transform = "{1, 0, 0, 1, 460, 66}";
}
);
layerId = "69DA8F92-C1A6-44A9-8446-0B4EA5DF827B";
name = FootShape;
paths = (
{
closed = 1;
nodes = (
"60 299 LINE",
"196 299 LINE",
"196 229 LINE",
"60 229 LINE",
"60 143 LINE",
"420 143 LINE",
"420 229 LINE",
"282 229 LINE",
"282 299 LINE",
"420 299 LINE",
"420 522 LINE",
"146 522 LINE",
"146 592 LINE",
"490 592 LINE",
"490 224 LINE",
"586 224 LINE",
"586 678 LINE",
"60 678 LINE"
);
},
{
closed = 1;
nodes = (
"146 385 LINE",
"146 436 LINE",
"334 436 LINE",
"334 385 LINE"
);
}
);
userData = {
PartSelection = {
FootShape = 2;
};
};
width = 646;
},
{
anchors = (
{
name = bottom;
position = "{276, 78}";
},
{
name = connect;
position = "{586, 678}";
},
{
name = top;
position = "{324, 718}";
},
{
name = wa_ra;
position = "{541, -59}";
}
);
associatedMasterId = "76B3AF2C-89AC-4CB1-B1C9-F754B2D43151";
background = {
paths = (
{
closed = 1;
nodes = (
"420 145 LINE",
"420 229 LINE",
"60 229 LINE",
"60 145 LINE"
);
},
{
closed = 1;
nodes = (
"287 215 LINE",
"287 312 LINE",
"191 312 LINE",
"191 215 LINE"
);
},
{
closed = 1;
nodes = (
"420 299 LINE",
"420 522 LINE",
"60 522 LINE",
"60 299 LINE"
);
},
{
closed = 1;
nodes = (
"156 436 LINE",
"324 436 LINE",
"324 386 LINE",
"156 386 LINE"
);
},
{
closed = 1;
nodes = (
"156 494 LINE",
"156 604 LINE",
"60 604 LINE",
"60 494 LINE"
);
},
{
closed = 1;
nodes = (
"586 -76 LINE",
"586 678 LINE",
"60 678 LINE",
"60 592 LINE",
"490 592 LINE",
"490 -76 LINE"
);
}
);
};
components = (
{
name = _part_foot_down;
piece = {
Flatness = 1;
};
transform = "{1, 0, 0, 1, 460, -234}";
}
);
layerId = "089B5928-3555-44CA-95EA-BC1698C94E7B";
name = RightLegHeight;
paths = (
{
closed = 1;
nodes = (
"60 299 LINE",
"196 299 LINE",
"196 229 LINE",
"60 229 LINE",
"60 143 LINE",
"420 143 LINE",
"420 229 LINE",
"282 229 LINE",
"282 299 LINE",
"420 299 LINE",
"420 522 LINE",
"146 522 LINE",
"146 592 LINE",
"490 592 LINE",
"490 24 LINE",
"586 24 LINE",
"586 678 LINE",
"60 678 LINE"
);
},
{
closed = 1;
nodes = (
"146 385 LINE",
"146 436 LINE",
"334 436 LINE",
"334 385 LINE"
);
}
);
userData = {
PartSelection = {
RightLegHeight = 2;
};
};
width = 646;
}
);
partsSettings = (
{
name = Width;
bottomName = Low;
bottomValue = 0;
topName = High;
topValue = 400;
},
{
name = FootShape;
bottomName = Low;
bottomValue = 0;
topName = High;
topValue = 1;
},
{
name = RightLegHeight;
bottomName = Low;
bottomValue = 0;
topName = High;
topValue = 300;
}
);
},
{
export = 0;
glyphname = _part_ra;
lastChange = "2017-12-20 17:32:07 +0000";
layers = (
{
anchors = (
{
name = bottom;
position = "{277, 78}";
},
{
name = connect;
position = "{441, 678}";
},
{
name = top;
position = "{269, 718}";
},
{
name = wa_ra;
position = "{442, 160}";
}
);
components = (
{
name = _part_foot_right;
transform = "{1, 0, 0, 1, 160, 0}";
},
{
name = _part_foot_down;
piece = {
Flatness = 1;
};
transform = "{1, 0, 0, 1, 30, 0}";
}
);
layerId = "76B3AF2C-89AC-4CB1-B1C9-F754B2D43151";
paths = (
{
closed = 1;
nodes = (
"156 208 LINE",
"156 592 LINE",
"345 592 LINE",
"345 532 LINE",
"216 532 LINE",
"216 427 LINE",
"302 427 LINE",
"302 451 LINE",
"441 451 LINE",
"441 678 LINE",
"60 678 LINE",
"60 208 LINE"
);
}
);
userData = {
PartSelection = {
FootLength = 1;
FootSlant = 1;
LeftLegHeight = 1;
RightFootFlat = 1;
RightLegHeight = 1;
Width = 1;
};
};
width = 539;
},
{
anchors = (
{
name = bottom;
position = "{277, 78}";
},
{
name = connect;
position = "{541, 678}";
},
{
name = top;
position = "{309, 718}";
},
{
name = wa_ra;
position = "{502, 160}";
}
);
associatedMasterId = "76B3AF2C-89AC-4CB1-B1C9-F754B2D43151";
components = (
{
name = _part_foot_right;
piece = {
Width = 100;
};
transform = "{1, 0, 0, 1, 170, 0}";
},
{
name = _part_foot_down;
piece = {
Flatness = 1;
};
transform = "{1, 0, 0, 1, 30, 0}";
}
);
layerId = "17694A78-7FE8-4F7C-ADC4-543F98E86BF3";
name = Width;
paths = (
{
closed = 1;
nodes = (
"156 208 LINE",
"156 592 LINE",
"445 592 LINE",
"445 532 LINE",
"226 532 LINE",
"226 427 LINE",
"312 427 LINE",
"312 451 LINE",
"541 451 LINE",
"541 678 LINE",
"60 678 LINE",
"60 208 LINE"
);
}
);
userData = {
PartSelection = {
Width = 2;
};
};
width = 539;
},
{
anchors = (
{
name = bottom;
position = "{277, 78}";
},
{
name = connect;
position = "{441, 678}";
},
{
name = top;
position = "{269, 718}";
},
{
name = wa_ra;
position = "{442, 160}";
}
);
associatedMasterId = "76B3AF2C-89AC-4CB1-B1C9-F754B2D43151";
components = (
{
name = _part_foot_right;
transform = "{1, 0, 0, 1, 160, 0}";
},
{
name = _part_foot_down;
piece = {
Flatness = 0;
};
transform = "{1, 0, 0, 1, 30, -1}";
}
);
layerId = "ED7CD806-D0EB-4DBE-9C95-5BFCA573FF00";
name = FootSlant;
paths = (
{
closed = 1;
nodes = (
"156 208 LINE",
"156 592 LINE",
"345 592 LINE",
"345 532 LINE",
"216 532 LINE",
"216 427 LINE",
"302 427 LINE",
"302 451 LINE",
"441 451 LINE",
"441 678 LINE",
"60 678 LINE",
"60 208 LINE"
);
}
);
userData = {
PartSelection = {
FootSlant = 2;
};
};
width = 539;
},
{
anchors = (
{
name = bottom;
position = "{277, 78}";
},
{
name = connect;
position = "{441, 678}";
},
{
name = top;
position = "{304, 718}";
},
{
name = wa_ra;
position = "{442, 160}";
}
);
associatedMasterId = "76B3AF2C-89AC-4CB1-B1C9-F754B2D43151";
components = (
{
name = _part_foot_right;
piece = {
Width = 100;
};
transform = "{1, 0, 0, 1, 160, 0}";
},
{
name = _part_foot_down;
piece = {
Flatness = 1;
};
transform = "{1, 0, 0, 1, 30, 0}";
}
);
layerId = "2F627BD1-5C9A-40C6-A175-8709EFADC189";
name = FootLength;
paths = (
{
closed = 1;
nodes = (
"156 208 LINE",
"156 592 LINE",
"345 592 LINE",
"345 532 LINE",
"216 532 LINE",
"216 427 LINE",
"302 427 LINE",
"302 451 LINE",
"441 451 LINE",
"441 678 LINE",
"60 678 LINE",
"60 208 LINE"
);
}
);
userData = {
PartSelection = {
FootLength = 2;
};
};
width = 539;
},
{
anchors = (
{
name = bottom;
position = "{277, 78}";
},
{
name = connect;
position = "{441, 678}";
},
{
name = top;
position = "{269, 718}";
},
{
name = wa_ra;
position = "{442, 160}";
}
);
associatedMasterId = "76B3AF2C-89AC-4CB1-B1C9-F754B2D43151";
components = (
{
name = _part_foot_right;
transform = "{1, 0, 0, 1, 160, 0}";
},
{
name = _part_foot_down;
piece = {
Flatness = 1;
};
transform = "{1, 0, 0, 1, 30, -200}";
}
);
layerId = "3E92CAF7-5C5D-45D7-84A2-2F30984FECD6";
name = LeftLegHeight;
paths = (
{
closed = 1;
nodes = (
"156 8 LINE",
"156 592 LINE",
"345 592 LINE",
"345 532 LINE",
"216 532 LINE",
"216 427 LINE",
"302 427 LINE",
"302 451 LINE",
"441 451 LINE",
"441 678 LINE",
"60 678 LINE",
"60 8 LINE"
);
}
);
userData = {
PartSelection = {
LeftLegHeight = 2;
};
};
width = 539;
},
{
anchors = (
{
name = bottom;
position = "{277, 78}";
},
{
name = connect;
position = "{441, 678}";
},
{
name = top;
position = "{269, 718}";
},
{
name = wa_ra;
position = "{442, 160}";
}
);
associatedMasterId = "76B3AF2C-89AC-4CB1-B1C9-F754B2D43151";
components = (
{
name = _part_foot_right;
transform = "{1, 0, 0, 1, 160, -190}";
},
{
name = _part_foot_down;
piece = {
Flatness = 1;
};
transform = "{1, 0, 0, 1, 30, 0}";
}
);
layerId = "055EEC7D-129F-4939-8D5B-0B62135A053E";
name = RightLegHeight;
paths = (
{
closed = 1;
nodes = (
"156 208 LINE",
"156 592 LINE",
"345 592 LINE",
"345 532 LINE",
"216 532 LINE",
"216 267 LINE",
"302 267 LINE",
"302 451 LINE",
"441 451 LINE",
"441 678 LINE",
"60 678 LINE",
"60 208 LINE"
);
}
);
userData = {
PartSelection = {
RightLegHeight = 2;
};
};
width = 539;
},
{
anchors = (
{
name = bottom;
position = "{277, 78}";
},
{
name = connect;
position = "{441, 678}";
},
{
name = top;
position = "{284, 718}";
},
{
name = wa_ra;
position = "{442, 160}";
}
);
associatedMasterId = "76B3AF2C-89AC-4CB1-B1C9-F754B2D43151";
components = (
{
name = _part_foot_right;
piece = {
Flatness = 100;
};
transform = "{1, 0, 0, 1, 160, 0}";
},
{
name = _part_foot_down;
piece = {
Flatness = 1;
};
transform = "{1, 0, 0, 1, 30, 0}";
}
);
layerId = "085C499B-48F8-42C9-B2E7-6D31E62354A9";
name = RightFootFlat;
paths = (
{
closed = 1;
nodes = (
"156 208 LINE",
"156 592 LINE",
"345 592 LINE",
"345 532 LINE",
"216 532 LINE",
"216 427 LINE",
"302 427 LINE",
"302 451 LINE",
"441 451 LINE",
"441 678 LINE",
"60 678 LINE",
"60 208 LINE"
);
}
);
userData = {
PartSelection = {
RightFootFlat = 2;
};
};
width = 539;
}
);
partsSettings = (
{
name = Width;
bottomName = Low;
bottomValue = 0;
topName = High;
topValue = 400;
},
{
name = FootSlant;
bottomName = Low;
bottomValue = 0;
topName = High;
topValue = 100;
},
{
name = FootLength;
bottomName = Low;
bottomValue = 0;
topName = High;
topValue = 100;
},
{
name = LeftLegHeight;
bottomName = Low;
bottomValue = 0;
topName = High;
topValue = 200;
},
{
name = RightLegHeight;
bottomName = Low;
bottomValue = 0;
topName = High;
topValue = 200;
},
{
name = RightFootFlat;
bottomName = Low;
bottomValue = 0;
topName = High;
topValue = 100;
}
);
},
{
export = 0;
glyphname = _part_sa;
lastChange = "2017-12-20 17:32:07 +0000";
layers = (
{
anchors = (
{
name = bottom;
position = "{277, 78}";
},
{
name = connect;
position = "{450, 678}";
},
{
name = top;
position = "{255, 718}";
},
{
name = wa_ra;
position = "{405, 241}";
}
);
components = (
{
name = _part_foot_down;
piece = {
Flatness = 1;
};
transform = "{1, 0, 0, 1, 30, 62}";
},
{
name = _part_foot_down;
piece = {
Flatness = 1;
};
transform = "{1, 0, 0, 1, 324, 62}";
}
);
layerId = "76B3AF2C-89AC-4CB1-B1C9-F754B2D43151";
paths = (
{
closed = 1;
nodes = (
"450 250 LINE",
"450 522 LINE",
"156 522 LINE",
"156 592 LINE",
"450 592 LINE",
"450 678 LINE",
"60 678 LINE",
"60 436 LINE",
"196 436 LINE",
"196 366 LINE",
"60 366 LINE",
"60 250 LINE",
"156 250 LINE",
"156 281 LINE",
"284 281 LINE",
"284 436 LINE",
"354 436 LINE",
"354 250 LINE"
);
}
);
userData = {
PartSelection = {
FootShape = 1;
HeadlineSlant = 1;
LeftLegHeight = 1;
RightLegHeight = 1;
Width = 1;
};
};
width = 516;
},
{
anchors = (
{
name = bottom;
position = "{277, 78}";
},
{
name = connect;
position = "{460, 678}";
},
{
name = top;
position = "{255, 718}";
},
{
name = wa_ra;
position = "{405, 241}";
}
);
associatedMasterId = "76B3AF2C-89AC-4CB1-B1C9-F754B2D43151";
background = {
paths = (
{
closed = 1;
nodes = (
"440 220 LINE",
"440 522 LINE",
"156 522 LINE",
"156 592 LINE",
"440 592 LINE",
"458 678 LINE",
"60 678 LINE",
"60 436 LINE",
"196 436 LINE",
"196 366 LINE",
"60 366 LINE",
"60 220 LINE",
"156 220 LINE",
"156 281 LINE",
"284 281 LINE",
"284 436 LINE",
"344 436 LINE",
"344 220 LINE"
);
}
);
};
components = (
{
name = _part_foot_down;
piece = {
Flatness = 1;
};
transform = "{1, 0, 0, 1, 30, 62}";
},
{
name = _part_foot_down;
piece = {
Flatness = 1;
};
transform = "{1, 0, 0, 1, 324, 62}";
}
);
layerId = "0C0E4B6F-3FFC-477D-BC7B-671FDBDDEF25";
name = HeadlineSlant;
paths = (
{
closed = 1;
nodes = (
"450 250 LINE",
"450 522 LINE",
"156 522 LINE",
"156 592 LINE",
"442 592 LINE",
"460 678 LINE",
"60 678 LINE",
"60 436 LINE",
"196 436 LINE",
"196 366 LINE",
"60 366 LINE",
"60 250 LINE",
"156 250 LINE",
"156 281 LINE",
"284 281 LINE",
"284 436 LINE",
"354 436 LINE",
"354 250 LINE"
);
}
);
userData = {
PartSelection = {
HeadlineSlant = 2;
};
};
width = 516;
},
{
anchors = (
{
name = bottom;
position = "{277, 78}";
},
{
name = connect;
position = "{490, 678}";
},
{
name = top;
position = "{275, 718}";
},
{
name = wa_ra;
position = "{445, 241}";
}
);
associatedMasterId = "76B3AF2C-89AC-4CB1-B1C9-F754B2D43151";
background = {
paths = (
{
closed = 1;
nodes = (
"490 220 LINE",
"490 522 LINE",
"156 522 LINE",
"156 592 LINE",
"490 592 LINE",
"490 678 LINE",
"60 678 LINE",
"60 436 LINE",
"236 436 LINE",
"236 366 LINE",
"60 366 LINE",
"60 220 LINE",
"156 220 LINE",
"156 281 LINE",
"324 281 LINE",
"324 436 LINE",
"394 436 LINE",
"394 220 LINE"
);
}
);
};
components = (
{
name = _part_foot_down;
piece = {
Flatness = 1;
};
transform = "{1, 0, 0, 1, 30, 62}";
},
{
name = _part_foot_down;
piece = {
Flatness = 1;
};
transform = "{1, 0, 0, 1, 364, 62}";
}
);
layerId = "F01B241B-F755-4C65-86D2-0DA6B52575C7";
name = Width;
paths = (
{
closed = 1;
nodes = (
"490 250 LINE",
"490 522 LINE",
"156 522 LINE",
"156 592 LINE",
"490 592 LINE",
"490 678 LINE",
"60 678 LINE",
"60 436 LINE",
"236 436 LINE",
"236 366 LINE",
"60 366 LINE",
"60 250 LINE",
"156 250 LINE",
"156 281 LINE",
"324 281 LINE",
"324 436 LINE",
"394 436 LINE",
"394 250 LINE"
);
}
);
userData = {
PartSelection = {
Width = 2;
};
};
width = 550;
},
{
anchors = (
{
name = bottom;
position = "{277, 78}";
},
{
name = connect;
position = "{450, 678}";
},
{
name = top;
position = "{255, 718}";
},
{
name = wa_ra;
position = "{405, 241}";
}
);
associatedMasterId = "76B3AF2C-89AC-4CB1-B1C9-F754B2D43151";
background = {
paths = (
{
closed = 1;
nodes = (
"440 220 LINE",
"440 522 LINE",
"156 522 LINE",
"156 592 LINE",
"440 592 LINE",
"440 678 LINE",
"60 678 LINE",
"60 436 LINE",
"196 436 LINE",
"196 366 LINE",
"60 366 LINE",
"60 -60 LINE",
"156 -60 LINE",
"156 281 LINE",
"284 281 LINE",
"284 436 LINE",
"344 436 LINE",
"344 220 LINE"
);
}
);
};
components = (
{
name = _part_foot_down;
piece = {
Flatness = 1;
};
transform = "{1, 0, 0, 1, 30, -138}";
},
{
name = _part_foot_down;
piece = {
Flatness = 1;
};
transform = "{1, 0, 0, 1, 324, 62}";
}
);
layerId = "237119B4-F2B6-4FC8-A117-9C9B8094FB76";
name = LeftLegHeight;
paths = (
{
closed = 1;
nodes = (
"450 250 LINE",
"450 522 LINE",
"156 522 LINE",
"156 592 LINE",
"450 592 LINE",
"450 678 LINE",
"60 678 LINE",
"60 436 LINE",
"196 436 LINE",
"196 366 LINE",
"60 366 LINE",
"60 50 LINE",
"156 50 LINE",
"156 281 LINE",
"284 281 LINE",
"284 436 LINE",
"354 436 LINE",
"354 250 LINE"
);
}
);
userData = {
PartSelection = {
LeftLegHeight = 2;
};
};
width = 516;
},
{
anchors = (
{
name = bottom;
position = "{277, 78}";
},
{
name = connect;
position = "{450, 678}";
},
{
name = top;
position = "{255, 718}";
},
{
name = wa_ra;
position = "{405, 41}";
}
);
associatedMasterId = "76B3AF2C-89AC-4CB1-B1C9-F754B2D43151";
background = {
paths = (
{
closed = 1;
nodes = (
"440 -60 LINE",
"440 522 LINE",
"156 522 LINE",
"156 592 LINE",
"440 592 LINE",
"440 678 LINE",
"60 678 LINE",
"60 436 LINE",
"196 436 LINE",
"196 366 LINE",
"60 366 LINE",
"60 220 LINE",
"156 220 LINE",
"156 281 LINE",
"284 281 LINE",
"284 436 LINE",
"344 436 LINE",
"344 -60 LINE"
);
}
);
};
components = (
{
name = _part_foot_down;
piece = {
Flatness = 1;
};
transform = "{1, 0, 0, 1, 30, 62}";
},
{
name = _part_foot_down;
piece = {
Flatness = 1;
};
transform = "{1, 0, 0, 1, 324, -138}";
}
);
layerId = "5BEB38F2-0EAD-405D-83EB-C871F95ACFC1";
name = RightLegHeight;
paths = (
{
closed = 1;
nodes = (
"450 50 LINE",
"450 522 LINE",
"156 522 LINE",
"156 592 LINE",
"450 592 LINE",
"450 678 LINE",
"60 678 LINE",
"60 436 LINE",
"196 436 LINE",
"196 366 LINE",
"60 366 LINE",
"60 250 LINE",
"156 250 LINE",
"156 281 LINE",
"284 281 LINE",
"284 436 LINE",
"354 436 LINE",
"354 50 LINE"
);
}
);
userData = {
PartSelection = {
RightLegHeight = 2;
};
};
width = 516;
},
{
anchors = (
{
name = bottom;
position = "{277, 78}";
},
{
name = connect;
position = "{450, 678}";
},
{
name = top;
position = "{255, 718}";
},
{
name = wa_ra;
position = "{405, 241}";
}
);
associatedMasterId = "76B3AF2C-89AC-4CB1-B1C9-F754B2D43151";
components = (
{
name = _part_foot_down;
transform = "{1, 0, 0, 1, 30, 62}";
},
{
name = _part_foot_down;
transform = "{1, 0, 0, 1, 324, 62}";
}
);
layerId = "AC9397CC-0A65-483B-AB94-55F1935F9D40";
name = FootShape;
paths = (
{
closed = 1;
nodes = (
"450 250 LINE",
"450 522 LINE",
"156 522 LINE",
"156 592 LINE",
"450 592 LINE",
"450 678 LINE",
"60 678 LINE",
"60 436 LINE",
"196 436 LINE",
"196 366 LINE",
"60 366 LINE",
"60 250 LINE",
"156 250 LINE",
"156 281 LINE",
"284 281 LINE",
"284 436 LINE",
"354 436 LINE",
"354 250 LINE"
);
}
);
userData = {
PartSelection = {
FootShape = 2;
};
};
width = 516;
}
);
partsSettings = (
{
name = HeadlineSlant;
bottomName = Low;
bottomValue = 0;
topName = High;
topValue = 1;
},
{
name = Width;
bottomName = Low;
bottomValue = 0;
topName = High;
topValue = 400;
},
{
name = LeftLegHeight;
bottomName = Low;
bottomValue = 0;
topName = High;
topValue = 200;
},
{
name = RightLegHeight;
bottomName = Low;
bottomValue = 0;
topName = High;
topValue = 200;
},
{
name = FootShape;
bottomName = Low;
bottomValue = 0;
topName = High;
topValue = 1;
}
);
},
{
export = 0;
glyphname = _part_sha;
lastChange = "2017-12-20 17:32:07 +0000";
layers = (
{
anchors = (
{
name = bottom;
position = "{272, 78}";
},
{
name = connect;
position = "{483, 678}";
},
{
name = top;
position = "{272, 718}";
},
{
name = wa_ra;
position = "{438, 241}";
}
);
components = (
{
name = _part_foot3;
transform = "{1, 0, 0, 1, -158, -10}";
},
{
name = _part_foot_down;
piece = {
Flatness = 1;
};
transform = "{1, 0, 0, 1, 357, 0}";
}
);
layerId = "76B3AF2C-89AC-4CB1-B1C9-F754B2D43151";
paths = (
{
closed = 1;
nodes = (
"158 618 LINE",
"158 521 LINE",
"254 521 LINE",
"254 618 LINE"
);
},
{
closed = 1;
nodes = (
"327 300 LINE",
"327 532 LINE",
"72 532 LINE",
"72 446 LINE",
"231 446 LINE",
"231 386 LINE",
"72 386 LINE",
"72 300 LINE"
);
},
{
closed = 1;
nodes = (
"483 205 LINE",
"483 678 LINE",
"72 678 LINE",
"72 592 LINE",
"387 592 LINE",
"387 205 LINE"
);
}
);
userData = {
PartSelection = {
FootShape = 1;
HeadlineSlant = 1;
LeftFootNarrow = 1;
RightLegHeight = 1;
Width = 1;
};
};
width = 543;
},
{
anchors = (
{
name = bottom;
position = "{272, 78}";
},
{
name = connect;
position = "{483, 678}";
},
{
name = top;
position = "{272, 718}";
},
{
name = wa_ra;
position = "{438, 241}";
}
);
associatedMasterId = "76B3AF2C-89AC-4CB1-B1C9-F754B2D43151";
components = (
{
name = _part_foot3;
transform = "{1, 0, 0, 1, -158, -10}";
},
{
name = _part_foot_down;
piece = {
Flatness = 1;
};
transform = "{1, 0, 0, 1, 357, 0}";
}
);
layerId = "CF081E0E-6BD2-4116-9A1C-8C7E91B93FCC";
name = HeadlineSlant;
paths = (
{
closed = 1;
nodes = (
"158 618 LINE",
"158 521 LINE",
"254 521 LINE",
"254 618 LINE"
);
},
{
closed = 1;
nodes = (
"327 300 LINE",
"327 532 LINE",
"72 532 LINE",
"72 446 LINE",
"231 446 LINE",
"231 386 LINE",
"72 386 LINE",
"72 300 LINE"
);
},
{
closed = 1;
nodes = (
"483 205 LINE",
"483 678 LINE",
"76 678 LINE",
"58 592 LINE",
"387 592 LINE",
"387 205 LINE"
);
}
);
userData = {
PartSelection = {
HeadlineSlant = 2;
};
};
width = 543;
},
{
anchors = (
{
name = bottom;
position = "{272, 78}";
},
{
name = connect;
position = "{573, 678}";
},
{
name = top;
position = "{332, 718}";
},
{
name = wa_ra;
position = "{528, 241}";
}
);
associatedMasterId = "76B3AF2C-89AC-4CB1-B1C9-F754B2D43151";
components = (
{
name = _part_foot3;
transform = "{1, 0, 0, 1, -108, -10}";
},
{
name = _part_foot_down;
piece = {
Flatness = 1;
};
transform = "{1, 0, 0, 1, 447, 0}";
}
);
layerId = "40BBA151-61EE-4730-8B88-F8A203196F79";
name = Wide;
paths = (
{
closed = 1;
nodes = (
"178 618 LINE",
"178 521 LINE",
"274 521 LINE",
"274 618 LINE"
);
},
{
closed = 1;
nodes = (
"397 300 LINE",
"397 532 LINE",
"72 532 LINE",
"72 446 LINE",
"301 446 LINE",
"301 386 LINE",
"72 386 LINE",
"72 300 LINE"
);
},
{
closed = 1;
nodes = (
"573 205 LINE",
"573 678 LINE",
"72 678 LINE",
"72 592 LINE",
"477 592 LINE",
"477 205 LINE"
);
}
);
userData = {
PartSelection = {
Width = 2;
};
};
width = 633;
},
{
anchors = (
{
name = bottom;
position = "{272, 78}";
},
{
name = connect;
position = "{483, 678}";
},
{
name = top;
position = "{272, 718}";
},
{
name = wa_ra;
position = "{438, 241}";
}
);
associatedMasterId = "76B3AF2C-89AC-4CB1-B1C9-F754B2D43151";
components = (
{
name = _part_foot3;
transform = "{1, 0, 0, 1, -158, -10}";
},
{
name = _part_foot_down;
transform = "{1, 0, 0, 1, 357, 0}";
}
);
layerId = "6CC13ABD-2604-4CE4-8FD1-D91E730D9A71";
name = FootShape;
paths = (
{
closed = 1;
nodes = (
"158 618 LINE",
"158 521 LINE",
"254 521 LINE",
"254 618 LINE"
);
},
{
closed = 1;
nodes = (
"327 300 LINE",
"327 532 LINE",
"72 532 LINE",
"72 446 LINE",
"231 446 LINE",
"231 386 LINE",
"72 386 LINE",
"72 300 LINE"
);
},
{
closed = 1;
nodes = (
"483 205 LINE",
"483 678 LINE",
"72 678 LINE",
"72 592 LINE",
"387 592 LINE",
"387 205 LINE"
);
}
);
userData = {
PartSelection = {
FootShape = 2;
};
};
width = 543;
},
{
anchors = (
{
name = bottom;
position = "{272, 78}";
},
{
name = connect;
position = "{483, 678}";
},
{
name = top;
position = "{272, 718}";
},
{
name = wa_ra;
position = "{438, -59}";
}
);
associatedMasterId = "76B3AF2C-89AC-4CB1-B1C9-F754B2D43151";
components = (
{
name = _part_foot3;
transform = "{1, 0, 0, 1, -158, -10}";
},
{
name = _part_foot_down;
piece = {
Flatness = 1;
};
transform = "{1, 0, 0, 1, 357, -300}";
}
);
layerId = "D0211700-92E4-4CA2-A787-D82EF3354134";
name = RightLegHeight;
paths = (
{
closed = 1;
nodes = (
"158 618 LINE",
"158 521 LINE",
"254 521 LINE",
"254 618 LINE"
);
},
{
closed = 1;
nodes = (
"327 300 LINE",
"327 532 LINE",
"72 532 LINE",
"72 446 LINE",
"231 446 LINE",
"231 386 LINE",
"72 386 LINE",
"72 300 LINE"
);
},
{
closed = 1;
nodes = (
"483 -95 LINE",
"483 678 LINE",
"72 678 LINE",
"72 592 LINE",
"387 592 LINE",
"387 -95 LINE"
);
}
);
userData = {
PartSelection = {
RightLegHeight = 2;
};
};
width = 543;
},
{
anchors = (
{
name = bottom;
position = "{272, 78}";
},
{
name = connect;
position = "{483, 678}";
},
{
name = top;
position = "{272, 718}";
},
{
name = wa_ra;
position = "{438, 241}";
}
);
associatedMasterId = "76B3AF2C-89AC-4CB1-B1C9-F754B2D43151";
components = (
{
name = _part_foot3;
piece = {
Narrow = 200;
};
transform = "{1, 0, 0, 1, -158, -10}";
},
{
name = _part_foot_down;
piece = {
Flatness = 1;
};
transform = "{1, 0, 0, 1, 357, 0}";
}
);
layerId = "6A8AF6E9-A3FC-4F10-94FA-C0C1F5AA5182";
name = LeftFootNarrow;
paths = (
{
closed = 1;
nodes = (
"158 618 LINE",
"158 521 LINE",
"254 521 LINE",
"254 618 LINE"
);
},
{
closed = 1;
nodes = (
"327 300 LINE",
"327 532 LINE",
"72 532 LINE",
"72 446 LINE",
"231 446 LINE",
"231 386 LINE",
"72 386 LINE",
"72 300 LINE"
);
},
{
closed = 1;
nodes = (
"483 205 LINE",
"483 678 LINE",
"72 678 LINE",
"72 592 LINE",
"387 592 LINE",
"387 205 LINE"
);
}
);
userData = {
PartSelection = {
LeftFootNarrow = 2;
};
};
width = 543;
}
);
partsSettings = (
{
name = HeadlineSlant;
bottomName = Low;
bottomValue = 0;
topName = High;
topValue = 100;
},
{
name = Width;
bottomName = Low;
bottomValue = 0;
topName = High;
topValue = 400;
},
{
name = FootShape;
bottomName = Low;
bottomValue = 0;
topName = High;
topValue = 100;
},
{
name = RightLegHeight;
bottomName = Low;
bottomValue = 0;
topName = High;
topValue = 300;
},
{
name = LeftFootNarrow;
bottomName = Low;
bottomValue = 0;
topName = High;
topValue = 100;
}
);
},
